{"glyphs":{"0":{"ha":799,"x_min":67,"x_max":733,"o":"m 400 886 q 531 860 471 886 q 637 778 592 833 q 708 639 682 724 q 733 438 733 554 q 706 235 733 321 q 633 95 679 150 q 527 14 588 40 q 400 -12 467 -12 q 269 14 331 -12 q 163 95 208 40 q 92 235 118 150 q 67 438 67 321 q 94 634 67 550 q 167 774 121 718 q 273 858 213 831 q 400 886 333 886 m 167 438 q 186 258 167 329 q 239 144 206 186 q 315 83 272 101 q 403 65 357 65 q 490 85 449 65 q 564 149 532 104 q 615 264 596 193 q 633 438 633 335 q 614 616 633 544 q 561 731 594 688 q 485 792 528 774 q 397 810 443 810 q 310 790 351 810 q 236 726 268 771 q 185 611 204 682 q 167 438 167 540 z "},"1":{"ha":488,"x_min":76,"x_max":363,"o":"m 292 875 l 363 875 l 363 0 l 268 0 l 268 771 l 99 694 l 76 776 l 292 875 z "},"2":{"ha":665,"x_min":63,"x_max":606,"o":"m 308 807 q 217 792 263 807 q 121 736 171 776 l 78 801 q 198 870 140 854 q 308 886 256 886 q 427 867 376 886 q 511 813 478 847 q 561 733 544 779 q 578 632 578 686 q 559 531 578 582 q 503 425 540 479 q 413 310 467 371 q 290 181 360 250 l 188 79 l 606 79 l 606 0 l 79 0 l 63 67 l 179 182 q 318 326 261 264 q 410 440 375 389 q 462 537 446 492 q 478 628 478 582 q 435 758 478 708 q 308 807 393 807 z "},"3":{"ha":681,"x_min":58,"x_max":586,"o":"m 74 821 q 183 872 126 857 q 294 886 240 886 q 401 869 353 886 q 483 822 449 853 q 536 751 517 792 q 556 661 556 710 q 513 525 556 579 q 408 449 471 471 q 480 421 447 440 q 536 374 513 401 q 573 313 560 347 q 586 239 586 278 q 559 122 586 169 q 488 44 532 74 q 389 1 444 14 q 276 -12 333 -12 q 160 -1 218 -12 q 58 32 101 11 l 81 107 q 169 77 125 88 q 275 67 214 67 q 352 76 314 67 q 420 107 390 86 q 468 161 450 128 q 486 240 486 194 q 426 363 486 321 q 275 404 367 404 l 169 404 l 169 479 l 250 479 q 331 490 293 479 q 397 523 369 501 q 442 577 425 544 q 458 651 458 610 q 412 764 458 719 q 288 808 365 808 q 198 797 239 808 q 104 754 157 786 l 74 821 z "},"4":{"ha":744,"x_min":28,"x_max":696,"o":"m 456 875 l 551 875 l 551 310 l 696 310 l 696 229 l 551 229 l 551 0 l 458 0 l 458 229 l 28 229 l 28 288 l 456 875 m 140 310 l 458 310 l 458 589 l 465 775 l 463 775 l 367 622 l 140 310 z "},"5":{"ha":704,"x_min":88,"x_max":611,"o":"m 586 878 l 586 797 l 249 794 l 219 528 q 259 533 235 531 q 311 536 283 536 q 419 521 365 536 q 516 474 474 506 q 585 392 558 442 q 611 275 611 343 q 589 160 611 213 q 524 69 567 108 q 418 9 481 31 q 276 -12 356 -12 q 176 -2 228 -12 q 88 28 124 8 l 110 106 q 185 78 142 88 q 274 68 229 68 q 370 81 326 68 q 445 118 414 93 q 494 181 476 143 q 511 271 511 219 q 447 413 511 363 q 278 464 382 464 q 203 459 239 464 q 129 446 167 454 l 172 875 l 586 878 z "},"6":{"ha":714,"x_min":63,"x_max":665,"o":"m 436 886 q 522 881 485 886 q 599 860 560 875 l 575 782 q 514 801 546 794 q 443 808 482 808 q 240 715 314 808 q 160 463 165 622 q 252 543 192 511 q 386 575 313 575 q 494 556 443 575 q 583 501 544 538 q 643 413 621 465 q 665 292 665 360 q 643 167 665 224 q 581 72 621 111 q 488 10 542 32 q 369 -12 433 -12 q 256 10 311 -12 q 158 81 200 32 q 89 208 115 129 q 63 401 63 288 q 94 624 63 532 q 178 775 126 717 q 298 860 231 833 q 436 886 365 886 m 163 319 q 178 215 163 263 q 222 135 194 168 q 288 83 250 101 q 372 64 326 64 q 450 80 414 64 q 513 126 486 96 q 553 197 539 156 q 568 288 568 238 q 512 446 568 394 q 367 497 456 497 q 247 462 296 497 q 175 378 197 426 q 165 351 168 363 q 163 319 163 339 z "},"7":{"ha":688,"x_min":79,"x_max":624,"o":"m 624 875 l 624 811 l 232 -19 l 147 18 l 522 794 l 79 794 l 79 875 l 624 875 z "},"8":{"ha":701,"x_min":56,"x_max":644,"o":"m 353 886 q 469 868 419 886 q 553 819 519 850 q 605 750 588 789 q 622 668 622 711 q 583 551 622 606 q 451 463 543 497 q 596 372 547 426 q 644 235 644 317 q 622 129 644 175 q 560 52 600 83 q 468 4 521 21 q 353 -12 415 -12 q 236 4 290 -12 q 142 51 182 21 q 78 126 101 82 q 56 225 56 169 q 101 365 56 311 q 243 456 147 418 q 126 539 167 488 q 85 661 85 590 q 101 748 85 707 q 152 819 118 789 q 236 868 186 850 q 353 886 286 886 m 179 665 q 193 603 179 631 q 230 554 207 575 q 284 519 253 533 q 350 494 315 504 q 419 520 388 504 q 475 558 451 536 q 513 606 499 579 q 526 667 526 633 q 513 727 526 700 q 474 773 499 754 q 419 801 450 792 q 353 811 388 811 q 223 767 267 811 q 179 665 179 724 m 343 418 q 205 352 258 397 q 151 229 151 307 q 164 166 151 196 q 201 113 176 136 q 265 77 226 90 q 353 64 303 64 q 435 77 399 64 q 498 113 472 90 q 537 166 524 136 q 550 229 550 196 q 492 351 550 304 q 343 418 435 397 z "},"9":{"ha":711,"x_min":53,"x_max":649,"o":"m 282 -12 q 183 -5 224 -12 q 110 18 142 3 l 133 96 q 197 75 161 83 q 278 67 233 67 q 550 403 539 67 q 462 328 519 358 q 329 299 404 299 q 221 318 271 299 q 133 374 171 338 q 74 463 96 410 q 53 585 53 517 q 76 711 53 656 q 138 806 99 767 q 232 865 178 844 q 349 886 286 886 q 461 863 407 886 q 557 791 515 840 q 624 663 599 742 q 649 474 649 585 q 621 247 649 340 q 544 97 593 154 q 428 13 494 39 q 282 -12 361 -12 m 549 539 q 535 638 549 589 q 494 724 521 686 q 428 786 467 763 q 342 810 390 810 q 203 751 257 810 q 150 590 150 692 q 205 430 150 483 q 347 376 260 376 q 467 408 418 376 q 538 489 517 440 q 547 515 544 504 q 549 539 549 526 z "},"\u0000":{"ha":0,"x_min":0,"x_max":0,"o":""},"\r":{"ha":1424,"x_min":0,"x_max":0,"o":""}," ":{"ha":301,"x_min":0,"x_max":0,"o":""},"!":{"ha":315,"x_min":88,"x_max":228,"o":"m 108 986 l 211 986 l 196 276 l 118 276 l 108 986 m 88 63 q 108 115 88 94 q 158 136 129 136 q 207 115 186 136 q 228 63 228 94 q 207 8 228 28 q 158 -12 186 -12 q 108 8 129 -12 q 88 63 88 28 z "},"\"":{"ha":429,"x_min":71,"x_max":358,"o":"m 264 896 l 358 896 l 339 594 l 281 594 l 264 896 m 71 896 l 165 896 l 147 594 l 89 594 l 71 896 z "},"#":{"ha":861,"x_min":49,"x_max":814,"o":"m 353 665 l 306 379 l 533 379 l 581 665 l 353 665 m 640 1028 l 717 1028 l 668 739 l 814 739 l 814 665 l 657 665 l 610 379 l 767 379 l 767 304 l 599 304 l 549 0 l 472 0 l 522 304 l 294 304 l 244 0 l 168 0 l 218 304 l 49 304 l 49 379 l 231 379 l 278 665 l 97 665 l 97 739 l 290 739 l 338 1028 l 413 1028 l 365 738 l 593 738 l 640 1028 z "},"%":{"ha":1132,"x_min":42,"x_max":1089,"o":"m 232 0 l 839 1042 l 915 1042 l 308 0 l 232 0 m 1089 247 q 1074 147 1089 194 q 1032 65 1060 100 q 961 8 1004 29 q 863 -12 918 -12 q 767 8 808 -12 q 697 65 725 29 q 656 147 669 100 q 642 247 642 194 q 656 347 642 300 q 700 428 671 393 q 771 485 729 464 q 867 506 813 506 q 963 485 921 506 q 1032 428 1004 464 q 1074 347 1060 393 q 1089 247 1089 300 m 1007 247 q 999 323 1007 288 q 975 385 992 358 q 932 428 958 413 q 867 444 906 444 q 803 430 831 444 q 759 388 776 415 q 733 325 742 361 q 724 247 724 289 q 732 169 724 206 q 757 106 740 133 q 800 64 774 79 q 863 49 826 49 q 971 102 935 49 q 1007 247 1007 156 m 489 783 q 474 683 489 731 q 432 601 460 636 q 361 544 404 565 q 263 524 318 524 q 167 544 208 524 q 97 601 125 565 q 56 683 69 636 q 42 783 42 731 q 56 883 42 836 q 100 965 71 929 q 171 1021 129 1000 q 267 1042 213 1042 q 363 1021 321 1042 q 432 965 404 1000 q 474 883 460 929 q 489 783 489 836 m 407 783 q 399 858 407 822 q 375 922 392 894 q 332 965 358 949 q 267 981 306 981 q 203 965 231 981 q 159 924 176 950 q 133 861 142 897 q 124 783 124 825 q 132 705 124 742 q 157 642 140 668 q 200 600 174 615 q 263 585 226 585 q 371 638 335 585 q 407 783 407 692 z "},"&":{"ha":889,"x_min":42,"x_max":896,"o":"m 139 257 q 202 116 139 167 q 368 65 265 65 q 444 75 407 65 q 512 100 481 85 q 567 135 543 115 q 607 175 592 156 l 319 469 q 187 383 235 435 q 139 257 139 332 m 42 254 q 103 422 42 358 q 268 526 164 486 q 198 621 228 569 q 168 738 168 672 q 186 819 168 783 q 235 880 204 856 q 307 917 267 904 q 393 931 347 931 q 481 917 440 931 q 550 877 521 903 q 595 816 579 851 q 611 738 611 781 q 574 617 611 667 q 467 532 536 567 l 419 589 q 490 647 464 613 q 517 732 517 682 q 483 820 517 785 q 389 856 449 856 q 294 821 325 856 q 264 738 264 786 q 273 676 264 704 q 299 621 282 647 q 338 569 315 594 q 389 515 361 543 l 657 243 q 702 330 678 276 q 743 436 726 383 l 822 404 q 772 283 801 342 q 715 183 743 225 l 896 0 l 778 0 l 664 117 q 610 67 640 90 q 542 26 579 43 q 458 -1 504 8 q 356 -11 411 -11 q 228 9 286 -11 q 129 65 171 29 q 65 149 88 100 q 42 254 42 197 z "},"'":{"ha":236,"x_min":71,"x_max":165,"o":"m 71 896 l 165 896 l 146 594 l 88 594 l 71 896 z "},"(":{"ha":407,"x_min":69,"x_max":351,"o":"m 290 -212 q 209 -91 249 -156 q 138 48 169 -26 q 88 206 107 122 q 69 388 69 290 q 89 572 69 485 q 140 734 108 658 q 212 873 172 810 q 293 986 251 936 l 351 944 q 217 690 268 826 q 167 388 167 554 q 179 231 167 304 q 215 90 192 158 q 273 -44 239 21 q 351 -178 307 -110 l 290 -212 z "},")":{"ha":407,"x_min":56,"x_max":338,"o":"m 117 986 q 198 865 158 929 q 269 726 238 800 q 319 567 300 651 q 338 386 338 483 q 318 202 338 289 q 267 40 299 115 q 195 -99 235 -36 q 114 -212 156 -162 l 56 -172 q 190 83 139 -54 q 240 386 240 219 q 228 542 240 469 q 192 683 215 615 q 134 817 168 751 q 56 950 100 883 l 117 986 z "},"*":{"ha":472,"x_min":19,"x_max":465,"o":"m 82 568 l 136 640 l 214 718 l 104 738 l 19 764 l 40 828 l 124 803 l 228 753 l 208 864 l 208 950 l 278 950 l 278 864 l 258 753 l 361 804 l 444 829 l 465 764 l 381 738 l 271 718 l 349 640 l 401 568 l 346 528 l 294 600 l 243 697 l 192 600 l 138 528 l 82 568 z "},"+":{"ha":781,"x_min":56,"x_max":725,"o":"m 725 461 l 725 388 l 428 388 l 428 90 l 351 90 l 351 388 l 56 388 l 56 461 l 351 461 l 351 760 l 428 760 l 428 461 l 725 461 z "},",":{"ha":261,"x_min":46,"x_max":224,"o":"m 132 -12 q 85 13 103 -8 q 68 65 68 35 q 88 116 68 94 q 140 138 107 138 q 169 133 154 138 q 196 115 183 128 q 216 81 208 103 q 224 26 224 60 q 182 -101 224 -43 q 81 -190 140 -158 l 46 -143 q 113 -90 86 -122 q 149 -15 140 -57 l 132 -12 z "},"-":{"ha":389,"x_min":42,"x_max":347,"o":"m 347 449 l 347 363 l 42 363 l 42 449 l 347 449 z "},".":{"ha":247,"x_min":65,"x_max":204,"o":"m 65 63 q 85 115 65 94 q 135 136 106 136 q 184 115 164 136 q 204 63 204 94 q 184 8 204 28 q 135 -12 164 -12 q 85 8 106 -12 q 65 63 65 28 z "},"/":{"ha":521,"x_min":-1,"x_max":525,"o":"m -1 -151 l 440 1042 l 525 1042 l 83 -151 l -1 -151 z "},":":{"ha":282,"x_min":71,"x_max":211,"o":"m 71 68 q 92 121 71 100 q 142 142 113 142 q 190 121 169 142 q 211 68 211 100 q 190 14 211 33 q 142 -6 169 -6 q 92 14 113 -6 q 71 68 71 33 m 71 492 q 92 544 71 524 q 142 565 113 565 q 190 544 169 565 q 211 492 211 524 q 190 437 211 457 q 142 417 169 417 q 92 437 113 417 q 71 492 71 457 z "},";":{"ha":289,"x_min":63,"x_max":240,"o":"m 86 424 q 106 476 86 456 q 156 497 126 497 q 205 476 185 497 q 225 424 225 456 q 205 369 225 389 q 156 350 185 350 q 106 369 126 350 q 86 424 86 389 m 149 -12 q 102 13 119 -8 q 85 65 85 35 q 104 116 85 94 q 157 138 124 138 q 185 133 171 138 q 213 115 200 128 q 233 81 225 103 q 240 26 240 60 q 199 -101 240 -43 q 97 -190 157 -158 l 63 -143 q 130 -90 103 -122 q 165 -15 157 -57 l 149 -12 z "},"<":{"ha":689,"x_min":92,"x_max":597,"o":"m 92 319 l 92 386 l 597 678 l 597 592 l 175 353 l 597 114 l 597 28 l 92 319 z "},"=":{"ha":643,"x_min":56,"x_max":588,"o":"m 588 344 l 588 271 l 56 271 l 56 344 l 588 344 m 588 579 l 588 506 l 56 506 l 56 579 l 588 579 z "},">":{"ha":689,"x_min":92,"x_max":597,"o":"m 92 114 l 514 353 l 92 592 l 92 678 l 597 386 l 597 319 l 92 28 l 92 114 z "},"?":{"ha":600,"x_min":81,"x_max":538,"o":"m 278 993 q 469 929 400 993 q 538 764 538 865 q 493 628 538 690 q 386 510 449 567 q 333 458 354 482 q 297 413 311 435 q 276 370 282 392 q 269 324 269 349 q 282 246 269 283 l 200 231 q 187 274 192 247 q 182 325 182 301 q 212 435 182 382 q 311 553 242 488 q 363 604 339 579 q 403 654 386 629 q 431 706 421 679 q 440 763 440 732 q 431 818 440 792 q 402 865 422 844 q 349 899 382 886 q 269 911 317 911 q 196 901 233 911 q 121 865 158 892 l 81 936 q 175 979 121 965 q 278 993 229 993 m 185 63 q 206 115 185 94 q 256 135 226 135 q 304 115 283 135 q 325 63 325 94 q 304 8 325 28 q 256 -12 283 -12 q 206 8 226 -12 q 185 63 185 28 z "},"@":{"ha":1338,"x_min":71,"x_max":1272,"o":"m 792 86 l 789 86 q 696 15 747 42 q 565 -12 644 -12 q 487 1 522 -12 q 426 37 451 14 q 388 92 401 60 q 374 161 374 124 q 458 327 374 269 q 685 385 543 385 l 822 385 q 829 428 826 411 q 833 455 832 444 q 835 472 835 465 q 836 482 836 478 q 802 560 836 539 q 710 582 768 582 q 619 569 675 582 q 499 522 564 556 l 472 594 q 603 644 543 628 q 729 661 664 661 q 810 651 774 661 q 874 621 847 642 q 916 567 901 600 q 931 485 931 533 q 929 456 931 471 q 925 425 928 442 l 889 203 q 884 168 886 188 q 882 131 882 149 q 892 88 882 104 q 933 71 901 71 q 1032 103 988 71 q 1109 188 1076 135 q 1160 312 1142 242 q 1178 458 1178 382 q 1149 625 1178 547 q 1065 761 1119 703 q 930 853 1010 819 q 749 886 850 886 q 508 840 615 886 q 324 708 400 793 q 206 505 247 624 q 164 243 164 386 q 206 22 164 113 q 317 -124 249 -68 q 469 -204 385 -179 q 639 -229 554 -229 q 797 -212 728 -229 q 921 -172 867 -196 l 940 -240 q 799 -286 878 -268 q 624 -304 719 -304 q 424 -275 524 -304 q 247 -181 325 -246 q 119 -14 168 -117 q 71 236 71 89 q 122 529 71 396 q 262 758 172 663 q 474 908 351 854 q 743 961 597 961 q 969 923 871 961 q 1135 818 1068 885 q 1238 660 1203 751 q 1272 463 1272 569 q 1246 278 1272 363 q 1172 131 1219 193 q 1058 33 1124 68 q 917 -1 993 -1 q 855 4 881 -1 q 815 17 829 10 l 792 86 m 813 315 l 697 313 q 475 168 475 307 q 509 89 475 115 q 596 63 543 63 q 708 92 663 63 q 786 161 754 121 l 813 315 z "},"[":{"ha":404,"x_min":113,"x_max":363,"o":"m 113 -208 l 113 993 l 363 993 l 363 922 l 204 922 l 204 -136 l 363 -136 l 363 -208 l 113 -208 z "},"\\":{"ha":435,"x_min":-3,"x_max":435,"o":"m 353 -122 l -3 1000 l 79 1000 l 435 -122 l 353 -122 z "},"]":{"ha":404,"x_min":42,"x_max":292,"o":"m 42 -208 l 42 -137 l 200 -137 l 200 921 l 42 921 l 42 993 l 292 993 l 292 -208 l 42 -208 z "},"^":{"ha":689,"x_min":85,"x_max":606,"o":"m 606 578 l 521 578 l 344 929 l 171 578 l 85 578 l 310 1000 l 378 1000 l 606 578 z "},"_":{"ha":508,"x_min":14,"x_max":494,"o":"m 494 -278 l 494 -347 l 14 -347 l 14 -278 l 494 -278 z "},"{":{"ha":453,"x_min":39,"x_max":418,"o":"m 418 901 q 303 861 343 901 q 263 744 263 821 l 263 546 q 240 443 263 482 q 161 386 217 404 l 161 383 q 238 311 214 360 q 263 188 263 263 l 263 -10 q 301 -101 263 -68 q 418 -137 340 -135 l 418 -208 q 242 -152 310 -207 q 175 6 175 -97 l 175 215 q 142 313 175 278 q 39 350 110 347 l 39 418 q 142 456 110 425 q 175 549 175 486 l 175 771 q 191 851 175 814 q 238 915 207 888 q 315 957 269 942 q 418 972 360 972 l 418 901 z "},"|":{"ha":285,"x_min":100,"x_max":185,"o":"m 100 -319 l 100 1042 l 185 1042 l 185 -319 l 100 -319 z "},"}":{"ha":453,"x_min":35,"x_max":414,"o":"m 35 975 q 213 918 147 975 q 278 765 278 861 l 278 549 q 310 453 278 486 q 414 415 343 421 l 414 347 q 310 310 343 342 q 278 215 278 278 l 278 1 q 213 -149 278 -92 q 35 -208 147 -207 l 35 -136 q 150 -98 110 -133 q 190 4 190 -62 l 190 203 q 214 316 190 272 q 292 381 238 360 l 292 383 q 214 448 238 404 q 190 561 190 492 l 190 758 q 151 863 190 826 q 35 903 113 900 l 35 975 z "},"~":{"ha":814,"x_min":67,"x_max":747,"o":"m 67 292 q 119 440 67 389 q 256 490 172 490 q 340 472 300 490 q 418 432 381 454 q 492 392 456 410 q 567 374 529 374 q 651 407 622 374 q 679 501 679 440 l 747 501 q 731 404 747 443 q 690 341 715 365 q 634 307 665 317 q 571 297 603 297 q 485 316 525 297 q 406 357 444 335 q 330 398 367 379 q 254 417 293 417 q 165 381 196 417 q 135 292 135 344 l 67 292 z "},"…":{"ha":789,"x_min":75,"x_max":717,"o":"m 75 63 q 96 115 75 94 q 146 136 117 136 q 194 115 174 136 q 215 63 215 94 q 194 8 215 28 q 146 -12 174 -12 q 96 8 117 -12 q 75 63 75 28 m 326 63 q 347 115 326 94 q 396 136 367 136 q 445 115 425 136 q 465 63 465 94 q 445 8 465 28 q 396 -12 425 -12 q 347 8 367 -12 q 326 63 326 28 m 576 63 q 597 115 576 94 q 647 136 618 136 q 696 115 675 136 q 717 63 717 94 q 696 8 717 28 q 647 -12 675 -12 q 597 8 618 -12 q 576 63 576 28 z "},"–":{"ha":724,"x_min":75,"x_max":649,"o":"m 649 346 l 649 275 l 75 275 l 75 346 l 649 346 z "},"—":{"ha":1297,"x_min":75,"x_max":1222,"o":"m 1222 344 l 1222 275 l 75 275 l 75 344 l 1222 344 z "},"‘":{"ha":254,"x_min":36,"x_max":214,"o":"m 128 856 q 174 831 157 851 q 192 778 192 810 q 173 727 192 749 q 121 706 154 706 q 92 710 107 706 q 65 728 78 715 q 44 764 53 742 q 36 819 36 786 q 78 945 36 889 q 181 1033 119 1001 l 214 986 q 147 933 175 967 q 113 858 119 900 l 128 856 z "},"’":{"ha":254,"x_min":39,"x_max":217,"o":"m 125 867 q 78 892 96 871 q 61 944 61 913 q 81 995 61 974 q 133 1017 100 1017 q 162 1012 147 1017 q 189 994 176 1007 q 209 959 201 981 q 217 904 217 938 q 175 778 217 835 q 74 689 133 721 l 39 736 q 106 789 79 756 q 142 864 133 822 l 125 867 z "},"÷":{"ha":740,"x_min":56,"x_max":685,"o":"m 294 125 q 316 177 294 156 q 367 199 338 199 q 416 177 394 199 q 438 125 438 156 q 416 71 438 92 q 367 50 394 50 q 316 71 338 50 q 294 125 294 92 m 294 581 q 316 633 294 611 q 367 654 338 654 q 416 633 394 654 q 438 581 438 611 q 416 526 438 547 q 367 506 394 506 q 316 526 338 506 q 294 581 294 547 m 685 388 l 685 317 l 56 317 l 56 388 l 685 388 z "},"−":{"ha":657,"x_min":56,"x_max":601,"o":"m 601 465 l 601 394 l 56 394 l 56 465 l 601 465 z "},"×":{"ha":556,"x_min":56,"x_max":499,"o":"m 56 249 l 228 421 l 56 592 l 106 642 l 278 471 l 449 642 l 499 592 l 328 421 l 499 249 l 449 199 l 278 371 l 106 199 l 56 249 z "},"$":{"ha":729,"x_min":93,"x_max":629,"o":"m 329 1000 l 406 1000 l 406 850 q 494 834 450 846 q 583 801 539 822 l 554 726 q 458 763 506 751 q 363 774 410 774 q 238 738 285 774 q 192 643 192 703 q 201 591 192 613 q 231 553 211 569 q 281 524 251 538 q 350 499 310 511 l 431 471 q 580 384 531 439 q 629 247 629 329 q 563 92 629 151 q 385 22 497 32 l 385 -131 l 308 -131 l 308 22 q 197 40 249 25 q 96 81 146 54 l 132 156 q 240 113 185 125 q 344 100 296 100 q 481 137 431 100 q 531 238 531 174 q 496 329 531 293 q 368 396 461 365 l 289 421 q 211 453 247 435 q 149 497 175 471 q 108 556 122 522 q 93 633 93 589 q 156 785 93 728 q 329 850 219 843 l 329 1000 z "},"A":{"ha":810,"x_min":17,"x_max":793,"o":"m 244 331 l 561 331 l 492 518 q 451 628 472 567 q 407 764 431 690 l 404 764 q 382 696 393 728 q 360 635 371 664 q 340 577 350 606 q 317 518 329 549 l 244 331 m 361 875 l 454 875 l 793 0 l 688 0 l 592 250 l 217 250 l 121 0 l 17 0 l 361 875 z "},"B":{"ha":718,"x_min":111,"x_max":649,"o":"m 346 875 q 549 819 476 875 q 622 654 622 763 q 577 528 622 574 q 464 465 532 483 q 536 441 503 458 q 594 396 569 424 q 634 330 619 368 q 649 244 649 292 q 626 145 649 190 q 561 68 603 100 q 461 18 519 36 q 333 0 403 0 l 111 0 l 111 875 l 346 875 m 211 500 l 317 500 q 392 507 356 500 q 458 531 429 514 q 503 576 486 547 q 519 647 519 604 q 466 760 519 725 q 326 794 413 794 l 211 794 l 211 500 m 211 81 l 319 81 q 406 90 365 81 q 476 119 446 99 q 525 174 507 140 q 543 257 543 208 q 524 335 543 304 q 472 385 504 367 q 397 413 439 404 q 310 421 354 421 l 211 421 l 211 81 z "},"C":{"ha":756,"x_min":56,"x_max":710,"o":"m 483 69 q 597 82 551 69 q 682 114 642 94 l 706 33 q 605 -1 660 11 q 471 -12 550 -12 q 309 17 385 -12 q 177 103 233 46 q 88 243 121 160 q 56 436 56 326 q 87 627 56 543 q 174 769 118 711 q 307 856 231 826 q 474 886 383 886 q 610 873 556 886 q 710 836 664 860 l 686 758 q 592 793 638 782 q 489 804 547 804 q 365 783 424 804 q 261 718 306 763 q 190 603 217 674 q 163 435 163 533 q 190 264 163 333 q 262 151 217 194 q 365 89 307 108 q 483 69 422 69 z "},"D":{"ha":864,"x_min":111,"x_max":800,"o":"m 382 875 q 548 849 471 875 q 681 770 625 822 q 768 640 736 718 q 800 457 800 561 q 763 243 800 331 q 661 101 725 156 q 513 24 597 47 q 333 0 428 0 l 111 0 l 111 875 l 382 875 m 211 82 l 321 82 q 457 98 390 82 q 576 156 524 114 q 661 272 629 199 q 693 457 693 344 q 669 600 693 538 q 601 706 644 663 q 494 771 557 749 q 357 793 432 793 l 211 793 l 211 82 z "},"E":{"ha":686,"x_min":111,"x_max":629,"o":"m 111 875 l 625 875 l 625 793 l 211 793 l 211 493 l 589 493 l 589 411 l 211 411 l 211 82 l 629 82 l 629 0 l 111 0 l 111 875 z "},"F":{"ha":660,"x_min":111,"x_max":611,"o":"m 611 875 l 611 793 l 211 793 l 211 476 l 581 476 l 581 396 l 211 396 l 211 0 l 111 0 l 111 875 l 611 875 z "},"G":{"ha":832,"x_min":63,"x_max":751,"o":"m 488 886 q 621 875 563 886 q 732 836 679 864 l 707 757 q 608 793 658 781 q 503 806 557 806 q 376 786 436 806 q 269 723 315 767 q 196 608 224 679 q 168 436 168 538 q 192 280 168 349 q 259 165 215 211 q 363 94 303 118 q 496 69 422 69 q 588 76 549 69 q 656 94 628 83 l 656 372 l 479 372 l 479 450 l 751 450 l 751 35 q 640 1 700 14 q 492 -12 579 -12 q 325 17 403 -12 q 189 103 247 46 q 97 243 131 160 q 63 436 63 326 q 94 631 63 546 q 183 772 126 715 q 318 857 240 828 q 488 886 396 886 z "},"H":{"ha":864,"x_min":111,"x_max":754,"o":"m 111 0 l 111 875 l 211 875 l 211 494 l 654 494 l 654 875 l 754 875 l 754 0 l 654 0 l 654 411 l 211 411 l 211 0 l 111 0 z "},"I":{"ha":321,"x_min":111,"x_max":211,"o":"m 211 875 l 211 0 l 111 0 l 111 875 l 211 875 z "},"J":{"ha":360,"x_min":-21,"x_max":260,"o":"m 260 875 l 260 151 q 250 3 260 60 q 210 -97 240 -54 q 163 -146 190 -126 q 106 -178 136 -165 q 42 -196 75 -190 q -21 -201 10 -201 l -21 -124 q 108 -76 61 -122 q 150 -3 140 -47 q 160 94 160 42 l 160 875 l 260 875 z "},"K":{"ha":756,"x_min":111,"x_max":758,"o":"m 111 0 l 111 875 l 211 875 l 211 451 l 603 875 l 728 875 l 368 489 l 758 0 l 632 0 l 299 421 l 211 326 l 211 0 l 111 0 z "},"L":{"ha":619,"x_min":111,"x_max":599,"o":"m 111 875 l 211 875 l 211 83 l 599 83 l 599 0 l 111 0 l 111 875 z "},"M":{"ha":1106,"x_min":89,"x_max":1017,"o":"m 171 875 l 301 875 l 504 274 q 528 201 515 242 q 553 124 542 161 l 556 124 q 579 199 567 160 q 603 274 592 239 l 801 875 l 933 875 l 1017 0 l 917 0 l 874 482 q 862 627 867 556 q 854 772 857 699 l 851 772 q 809 630 832 706 q 763 482 786 554 l 597 0 l 507 0 l 342 483 q 294 627 317 557 q 253 772 272 697 l 250 772 q 240 631 246 706 q 228 482 235 556 l 186 0 l 89 0 l 171 875 z "},"N":{"ha":899,"x_min":111,"x_max":789,"o":"m 111 875 l 201 875 l 592 310 q 644 232 618 271 q 693 154 669 193 l 696 154 q 692 256 693 206 q 692 358 692 307 l 692 875 l 789 875 l 789 0 l 699 0 l 317 549 q 259 638 288 590 q 206 733 231 686 l 203 733 q 207 610 206 671 q 208 488 208 550 l 208 0 l 111 0 l 111 875 z "},"O":{"ha":925,"x_min":64,"x_max":861,"o":"m 465 886 q 622 858 549 886 q 747 774 694 831 q 831 634 800 718 q 861 438 861 550 q 830 244 861 328 q 744 103 799 160 q 617 17 690 46 q 460 -12 543 -12 q 303 16 376 -12 q 178 101 231 44 q 94 241 125 157 q 64 438 64 325 q 95 631 64 547 q 181 771 126 714 q 308 857 235 828 q 465 886 381 886 m 171 438 q 194 274 171 343 q 258 158 218 204 q 352 90 299 113 q 465 68 406 68 q 577 90 525 68 q 669 158 629 113 q 731 274 708 204 q 754 438 754 343 q 731 603 754 533 q 667 718 707 674 q 573 784 626 763 q 460 806 519 806 q 348 783 400 806 q 256 715 296 761 q 194 600 217 669 q 171 438 171 531 z "},"P":{"ha":711,"x_min":111,"x_max":663,"o":"m 111 875 l 368 875 q 486 858 432 875 q 580 809 540 842 q 641 728 619 776 q 663 617 663 681 q 639 502 663 551 q 574 420 615 453 q 477 371 533 388 q 354 354 421 354 l 211 354 l 211 0 l 111 0 l 111 875 m 211 436 l 311 436 q 411 444 365 436 q 489 473 457 453 q 539 528 521 493 q 557 615 557 563 q 538 701 557 667 q 490 757 519 736 q 421 786 460 778 q 342 794 382 794 l 211 794 l 211 436 z "},"Q":{"ha":918,"x_min":65,"x_max":893,"o":"m 461 886 q 622 858 549 886 q 747 774 694 831 q 829 634 800 718 q 858 438 858 550 q 803 192 858 299 q 615 11 747 85 l 415 -101 q 494 -112 457 -101 q 569 -135 532 -122 q 647 -158 607 -147 q 736 -168 688 -168 q 797 -158 764 -168 q 856 -132 831 -149 l 893 -203 q 815 -237 857 -226 q 732 -249 772 -249 q 637 -237 682 -249 q 548 -211 592 -225 q 460 -185 504 -197 q 372 -174 417 -174 q 221 -217 294 -174 l 181 -144 l 417 -8 q 272 32 336 -1 q 161 122 207 65 q 90 259 115 179 q 65 438 65 339 q 96 631 65 547 q 179 771 126 714 q 305 857 232 828 q 461 886 378 886 m 172 438 q 194 273 172 343 q 255 157 217 203 q 345 88 293 111 q 457 65 397 65 q 572 90 518 65 q 666 162 626 114 q 728 278 706 210 q 751 438 751 347 q 729 603 751 533 q 667 718 707 674 q 574 784 628 763 q 458 806 521 806 q 348 783 400 806 q 257 715 296 761 q 195 600 218 669 q 172 438 172 531 z "},"R":{"ha":733,"x_min":111,"x_max":711,"o":"m 111 875 l 381 875 q 501 856 449 875 q 588 804 553 838 q 640 724 622 771 q 658 622 658 678 q 643 531 658 572 q 602 460 628 490 q 543 408 576 429 q 474 375 510 388 l 711 0 l 597 0 l 381 357 l 204 357 l 204 0 l 111 0 l 111 875 m 204 438 l 338 438 q 423 448 383 438 q 492 481 463 458 q 538 537 521 503 q 554 618 554 571 q 502 752 554 710 q 349 794 450 794 l 204 794 l 204 438 z "},"S":{"ha":686,"x_min":63,"x_max":624,"o":"m 349 886 q 469 875 411 886 q 583 838 526 864 l 558 756 q 451 794 499 783 q 353 806 403 806 q 217 767 268 806 q 165 660 165 729 q 204 563 165 599 q 325 501 243 528 l 418 471 q 574 373 525 435 q 624 232 624 311 q 602 130 624 175 q 542 53 581 85 q 449 5 503 22 q 329 -12 394 -12 q 197 0 263 -12 q 64 43 131 13 l 90 125 q 205 83 149 96 q 324 69 261 69 q 465 107 408 69 q 521 222 521 144 q 513 274 521 250 q 486 319 506 299 q 433 359 467 340 q 349 394 400 378 l 258 424 q 117 505 171 451 q 63 647 63 558 q 136 822 63 757 q 349 886 210 886 z "},"T":{"ha":696,"x_min":14,"x_max":683,"o":"m 683 875 l 683 792 l 396 792 l 396 0 l 296 0 l 296 792 l 14 792 l 14 875 l 683 875 z "},"U":{"ha":869,"x_min":104,"x_max":765,"o":"m 104 875 l 204 875 l 204 351 q 260 134 204 199 q 439 69 317 69 q 542 89 499 69 q 612 143 585 108 q 652 226 639 178 q 665 335 665 275 l 665 875 l 765 875 l 765 339 q 680 73 765 158 q 439 -12 594 -12 q 193 73 282 -12 q 104 346 104 158 l 104 875 z "},"V":{"ha":779,"x_min":4,"x_max":776,"o":"m 111 875 l 300 363 q 346 241 322 304 q 389 119 369 178 l 392 119 q 435 243 413 182 q 479 363 457 304 l 671 875 l 776 875 l 436 0 l 339 0 l 4 875 l 111 875 z "},"W":{"ha":1154,"x_min":11,"x_max":1143,"o":"m 114 875 l 261 360 q 292 243 276 308 q 318 119 307 178 l 321 119 q 349 242 332 178 q 381 360 365 307 l 532 875 l 624 875 l 779 360 q 810 243 794 307 q 840 119 826 179 l 843 119 q 869 244 854 181 q 900 360 885 308 l 1042 875 l 1143 875 l 892 0 l 790 0 l 639 525 q 607 639 624 583 q 578 747 590 694 l 575 747 q 551 654 564 700 q 526 563 539 608 l 369 0 l 269 0 l 11 875 l 114 875 z "},"X":{"ha":731,"x_min":8,"x_max":724,"o":"m 138 875 l 363 513 l 597 875 l 710 875 l 421 444 l 724 0 l 606 0 l 363 376 l 121 0 l 8 0 l 300 444 l 21 875 l 138 875 z "},"Y":{"ha":708,"x_min":17,"x_max":708,"o":"m 129 875 l 363 461 l 597 875 l 708 875 l 410 367 l 410 0 l 310 0 l 310 367 l 17 875 l 129 875 z "},"Z":{"ha":706,"x_min":36,"x_max":668,"o":"m 661 875 l 661 814 l 156 81 l 668 81 l 668 0 l 36 0 l 36 68 l 535 794 l 57 794 l 57 875 l 661 875 z "},"`":{"ha":274,"x_min":31,"x_max":246,"o":"m 31 1000 l 132 1000 l 246 771 l 174 771 l 31 1000 z "},"a":{"ha":658,"x_min":50,"x_max":569,"o":"m 96 594 q 216 645 161 629 q 338 661 271 661 q 430 649 388 661 q 503 610 472 638 q 552 537 535 582 q 569 425 569 492 l 569 0 l 494 0 l 479 79 l 476 79 q 381 9 435 31 q 264 -12 328 -12 q 178 1 218 -12 q 110 39 139 14 q 66 99 82 64 q 50 176 50 133 q 71 267 50 228 q 130 332 92 306 q 222 372 168 358 q 340 385 275 385 l 472 385 l 472 433 q 433 549 472 517 q 331 582 394 582 q 242 570 292 582 q 133 525 193 558 l 96 594 m 472 314 l 364 313 q 200 272 249 310 q 151 181 151 235 q 192 89 151 115 q 288 63 232 63 q 386 85 336 63 q 472 161 436 108 l 472 314 z "},"b":{"ha":736,"x_min":103,"x_max":681,"o":"m 681 326 q 657 186 681 249 q 594 79 633 124 q 501 11 554 35 q 388 -12 447 -12 q 277 6 324 -12 q 189 61 231 24 l 186 61 l 175 0 l 103 0 l 103 986 l 200 986 l 200 571 q 289 636 236 611 q 404 661 342 661 q 515 640 464 661 q 603 575 567 618 q 660 469 639 532 q 681 326 681 407 m 579 325 q 526 515 579 447 q 385 582 474 582 q 282 554 329 582 q 200 485 235 526 l 200 138 q 271 85 228 106 q 364 64 314 64 q 444 81 406 64 q 513 130 483 97 q 561 211 543 163 q 579 325 579 260 z "},"c":{"ha":603,"x_min":56,"x_max":561,"o":"m 394 61 q 474 71 439 61 q 540 96 508 81 l 561 25 q 385 -12 486 -12 q 257 8 317 -12 q 152 72 197 29 q 81 177 107 114 q 56 325 56 240 q 80 465 56 403 q 148 572 104 528 q 251 638 192 615 q 383 661 311 661 q 467 655 426 661 q 558 626 508 649 l 536 551 q 466 578 500 571 q 396 586 432 586 q 222 518 288 586 q 156 329 156 450 q 176 201 156 253 q 231 119 197 150 q 307 74 264 88 q 394 61 350 61 z "},"d":{"ha":721,"x_min":56,"x_max":626,"o":"m 529 986 l 626 986 l 626 0 l 546 0 l 533 67 l 531 67 q 450 8 494 28 q 338 -12 406 -12 q 235 8 285 -12 q 144 71 185 29 q 80 176 104 113 q 56 325 56 239 q 76 464 56 401 q 134 570 96 526 q 227 638 172 614 q 351 661 282 661 q 448 646 403 661 q 529 599 493 631 l 529 986 m 529 510 q 457 566 499 546 q 371 586 415 586 q 290 572 329 586 q 222 528 251 558 q 174 448 192 497 q 156 329 156 399 q 173 207 156 257 q 219 125 190 157 q 285 78 249 93 q 361 64 322 64 q 460 86 418 64 q 529 149 501 108 l 529 510 z "},"e":{"ha":678,"x_min":56,"x_max":624,"o":"m 624 319 l 157 319 l 157 307 q 219 128 157 192 q 390 64 282 64 q 481 72 439 64 q 567 97 522 79 l 588 25 q 497 -2 549 8 q 386 -12 444 -12 q 258 7 318 -12 q 153 67 199 26 q 82 172 108 108 q 56 325 56 236 q 78 464 56 401 q 140 570 100 526 q 235 638 179 614 q 361 661 292 661 q 469 641 421 661 q 551 583 517 621 q 605 493 586 546 q 624 376 624 440 l 624 319 m 524 392 q 514 466 524 431 q 484 528 504 501 q 432 572 464 556 q 356 588 400 588 q 223 535 275 588 q 160 390 171 482 l 524 392 z "},"f":{"ha":449,"x_min":24,"x_max":494,"o":"m 338 993 q 419 982 376 993 q 494 954 461 971 l 474 885 q 416 906 446 899 q 360 914 386 914 q 260 876 292 914 q 228 746 228 838 l 228 653 l 439 653 l 439 579 l 228 579 l 228 0 l 131 0 l 131 579 l 24 579 l 24 653 l 131 653 l 131 772 q 185 937 131 881 q 338 993 239 993 z "},"g":{"ha":733,"x_min":42,"x_max":696,"o":"m 78 436 q 97 533 78 490 q 151 603 117 575 q 235 647 186 632 q 340 661 283 661 q 383 658 364 661 q 419 653 401 656 l 696 653 l 696 579 l 635 579 l 518 592 q 574 524 553 565 q 594 438 594 483 q 575 341 594 383 q 522 269 556 299 q 440 226 488 240 q 338 211 393 211 q 299 213 318 211 q 261 217 281 214 q 212 184 229 206 q 194 139 194 163 q 219 92 194 106 q 282 78 243 78 l 453 78 q 618 31 561 78 q 675 -96 675 -17 q 586 -260 675 -200 q 344 -319 497 -319 q 124 -267 206 -319 q 42 -119 42 -215 q 73 -33 42 -68 q 158 21 104 1 q 119 59 133 36 q 104 118 104 82 q 130 192 104 163 q 196 240 156 222 q 112 313 146 264 q 78 436 78 361 m 219 0 q 160 -42 182 -15 q 139 -106 139 -69 q 194 -208 139 -174 q 349 -242 249 -242 q 453 -230 410 -242 q 525 -198 497 -218 q 565 -153 553 -178 q 578 -103 578 -128 q 566 -52 578 -72 q 533 -20 554 -32 q 482 -4 511 -8 q 418 0 453 0 l 219 0 m 494 433 q 452 550 494 511 q 340 589 410 589 q 224 551 269 589 q 178 439 178 514 q 223 322 178 360 q 338 283 268 283 q 451 321 407 283 q 494 433 494 358 z "},"h":{"ha":738,"x_min":103,"x_max":636,"o":"m 200 0 l 103 0 l 103 986 l 200 986 l 200 567 q 301 634 246 607 q 424 661 357 661 q 518 645 478 661 q 584 601 558 629 q 623 534 610 572 q 636 450 636 496 l 636 0 l 539 0 l 539 424 q 502 545 539 508 q 399 582 465 582 q 299 557 350 582 q 200 488 249 532 l 200 0 z "},"i":{"ha":322,"x_min":96,"x_max":226,"o":"m 113 0 l 113 653 l 210 653 l 210 0 l 113 0 m 161 821 q 115 839 133 821 q 96 886 96 857 q 115 934 96 915 q 161 953 133 953 q 206 935 186 953 q 226 886 226 917 q 207 838 226 856 q 161 821 188 821 z "},"j":{"ha":324,"x_min":-51,"x_max":228,"o":"m 115 653 l 213 653 l 213 100 q 203 -45 213 21 q 169 -163 193 -111 q 102 -256 144 -215 q -7 -326 60 -297 l -51 -256 q 26 -206 -6 -232 q 77 -143 57 -181 q 106 -51 97 -106 q 115 86 115 4 l 115 653 m 163 821 q 116 839 135 821 q 97 886 97 857 q 116 934 97 915 q 163 953 135 953 q 208 935 188 953 q 228 886 228 917 q 208 838 228 856 q 163 821 189 821 z "},"k":{"ha":635,"x_min":103,"x_max":628,"o":"m 200 239 l 200 0 l 103 0 l 103 986 l 200 986 l 200 347 l 494 653 l 615 653 l 344 378 l 628 0 l 513 0 l 281 319 l 200 239 z "},"l":{"ha":307,"x_min":106,"x_max":201,"o":"m 106 0 l 106 986 l 201 986 l 201 0 l 106 0 z "},"m":{"ha":1131,"x_min":100,"x_max":1031,"o":"m 197 0 l 100 0 l 100 653 l 172 653 l 188 563 q 286 635 233 608 q 413 663 339 663 q 526 634 482 663 q 593 556 571 606 q 700 635 642 607 q 829 663 758 663 q 980 606 929 663 q 1031 450 1031 550 l 1031 0 l 933 0 l 933 428 q 902 542 933 503 q 792 582 871 582 q 697 558 744 582 q 613 492 650 535 q 614 471 614 482 q 614 450 614 460 l 614 0 l 517 0 l 517 428 q 486 542 517 503 q 378 582 456 582 q 283 557 329 582 q 197 488 236 532 l 197 0 z "},"n":{"ha":728,"x_min":100,"x_max":628,"o":"m 197 0 l 100 0 l 100 653 l 174 653 l 189 563 q 291 635 238 608 q 414 661 344 661 q 571 606 514 661 q 628 450 628 550 l 628 0 l 531 0 l 531 432 q 497 540 531 497 q 386 582 464 582 q 288 558 338 582 q 197 489 238 533 l 197 0 z "},"o":{"ha":722,"x_min":56,"x_max":667,"o":"m 667 333 q 643 187 667 251 q 578 78 619 122 q 480 10 536 33 q 360 -12 424 -12 q 239 9 294 -12 q 143 73 183 31 q 79 177 103 115 q 56 319 56 239 q 80 465 56 401 q 146 573 104 529 q 244 639 188 617 q 365 661 300 661 q 485 640 429 661 q 581 578 540 619 q 644 475 621 536 q 667 333 667 414 m 565 326 q 548 444 565 394 q 502 524 531 493 q 437 570 474 556 q 361 585 400 585 q 285 571 322 585 q 220 526 249 557 q 174 447 192 496 q 157 326 157 397 q 174 206 157 256 q 221 124 192 156 q 288 78 250 93 q 364 64 325 64 q 439 77 403 64 q 503 122 475 90 q 549 203 532 153 q 565 326 565 253 z "},"p":{"ha":726,"x_min":100,"x_max":671,"o":"m 351 -12 q 266 0 307 -12 q 196 33 225 13 l 196 -319 l 100 -319 l 100 661 l 181 661 l 194 578 q 277 636 229 611 q 392 661 325 661 q 506 640 454 661 q 594 578 557 619 q 651 478 631 538 q 671 342 671 418 q 644 183 671 250 q 572 73 617 117 q 469 8 526 29 q 351 -12 411 -12 m 371 582 q 313 574 340 582 q 264 552 286 565 q 224 523 242 539 q 196 492 207 507 l 196 110 q 265 75 228 86 q 339 64 301 64 q 424 78 382 64 q 497 126 465 93 q 549 211 529 158 q 569 340 569 264 q 521 518 569 454 q 371 582 472 582 z "},"q":{"ha":729,"x_min":56,"x_max":626,"o":"m 529 47 q 449 1 493 15 q 350 -12 406 -12 q 226 12 281 -12 q 133 80 171 36 q 76 186 96 124 q 56 326 56 249 q 75 460 56 399 q 133 566 94 521 q 226 636 171 611 q 353 661 282 661 q 453 641 403 661 q 536 585 504 621 l 549 653 l 626 653 l 626 -319 l 529 -319 l 529 47 m 529 504 q 464 561 504 536 q 368 586 424 586 q 286 571 325 586 q 218 524 247 556 q 172 445 189 493 q 156 331 156 397 q 213 130 156 196 q 367 64 271 64 q 462 85 419 64 q 529 136 504 106 l 529 504 z "},"r":{"ha":504,"x_min":97,"x_max":490,"o":"m 97 0 l 97 653 l 167 653 l 185 522 q 264 623 208 585 q 390 661 319 661 q 450 656 425 661 q 490 643 475 650 l 472 557 q 435 571 456 565 q 386 576 414 576 q 311 562 346 576 q 250 519 276 547 q 208 449 224 492 q 193 350 193 406 l 193 0 l 97 0 z "},"s":{"ha":557,"x_min":54,"x_max":503,"o":"m 450 550 q 373 578 410 569 q 296 586 336 586 q 190 558 225 586 q 156 486 156 531 q 183 423 156 446 q 285 378 210 400 l 326 365 q 458 294 413 339 q 503 179 503 250 q 440 42 503 96 q 261 -12 378 -12 q 146 -2 199 -12 q 54 28 93 8 l 79 104 q 160 74 117 85 q 254 64 203 64 q 365 91 325 64 q 404 171 404 118 q 373 241 404 215 q 272 289 342 267 l 228 303 q 100 373 142 331 q 58 481 58 415 q 75 554 58 521 q 122 611 92 588 q 194 648 153 635 q 285 661 235 661 q 381 653 331 661 q 474 625 431 644 l 450 550 z "},"t":{"ha":501,"x_min":28,"x_max":472,"o":"m 438 579 l 232 579 l 232 175 q 259 99 232 118 q 331 79 286 79 q 399 86 365 79 q 457 101 432 93 l 472 28 q 403 8 444 17 q 313 0 361 0 q 135 163 135 0 l 135 579 l 28 579 l 28 653 l 135 653 l 135 861 l 232 861 l 232 653 l 438 653 l 438 579 z "},"u":{"ha":735,"x_min":100,"x_max":635,"o":"m 538 653 l 635 653 l 635 0 l 561 0 l 547 82 l 543 82 q 453 15 507 43 q 326 -12 399 -12 q 163 44 225 -12 q 100 217 100 100 l 100 653 l 197 653 l 197 232 q 208 151 197 183 q 240 100 219 119 q 287 73 260 81 q 346 65 314 65 q 455 92 406 65 q 538 160 504 118 l 538 653 z "},"v":{"ha":604,"x_min":19,"x_max":586,"o":"m 482 653 l 586 653 l 350 0 l 258 0 l 19 653 l 124 653 l 274 197 l 303 81 l 307 81 l 335 196 l 482 653 z "},"w":{"ha":950,"x_min":15,"x_max":935,"o":"m 15 653 l 117 653 l 229 242 l 261 78 l 265 78 l 304 242 l 424 653 l 528 653 l 646 242 l 685 78 l 689 78 l 726 242 l 838 653 l 935 653 l 743 0 l 632 0 l 514 414 l 475 582 l 435 414 l 314 0 l 210 0 l 15 653 z "},"x":{"ha":594,"x_min":15,"x_max":582,"o":"m 353 331 l 582 0 l 471 0 l 358 164 l 293 267 l 232 167 l 122 0 l 15 0 l 242 331 l 25 653 l 135 653 l 249 478 l 301 390 l 354 482 l 461 653 l 567 653 l 353 331 z "},"y":{"ha":617,"x_min":14,"x_max":604,"o":"m 14 653 l 117 653 l 271 249 l 319 97 l 322 97 l 368 249 l 507 653 l 604 653 l 353 -56 q 252 -233 313 -168 q 107 -329 192 -297 l 67 -254 q 185 -178 135 -226 q 265 -37 235 -129 l 278 0 l 14 653 z "},"z":{"ha":571,"x_min":35,"x_max":538,"o":"m 531 597 l 153 75 l 538 75 l 538 0 l 35 0 l 35 61 l 408 576 l 58 576 l 58 653 l 531 653 l 531 597 z "},"€":{"ha":751,"x_min":7,"x_max":724,"o":"m 504 69 q 611 82 567 69 q 696 114 656 94 l 719 33 q 622 -1 674 11 q 492 -12 571 -12 q 356 8 419 -12 q 241 71 292 29 q 156 174 190 113 q 107 317 121 235 l 7 317 l 7 381 l 99 381 q 97 415 97 404 q 97 439 97 426 l 97 471 l 7 471 l 7 535 l 107 535 q 233 794 131 701 q 494 886 335 886 q 627 873 576 886 q 724 836 678 860 l 700 758 q 607 793 651 782 q 510 804 563 804 q 406 788 456 804 q 315 738 356 771 q 246 653 274 704 q 210 535 218 603 l 619 535 l 619 471 l 201 471 l 201 444 q 201 415 201 429 q 203 381 201 400 l 619 381 l 619 317 l 213 317 q 252 201 224 249 q 320 125 281 154 q 407 83 360 96 q 504 69 454 69 z "},"‚":{"ha":264,"x_min":31,"x_max":208,"o":"m 117 -10 q 70 15 88 -6 q 53 68 53 36 q 72 119 53 97 q 125 140 92 140 q 153 135 139 140 q 181 117 168 131 q 201 83 193 104 q 208 28 208 61 q 167 -99 208 -42 q 64 -187 125 -156 l 31 -140 q 97 -87 69 -121 q 132 -12 125 -54 l 117 -10 z "},"ƒ":{"ha":617,"x_min":-33,"x_max":651,"o":"m 264 76 q 224 -67 251 -10 q 160 -160 196 -124 q 81 -215 124 -196 q -6 -243 38 -233 l -33 -169 q 36 -144 4 -160 q 94 -101 68 -128 q 139 -33 121 -74 q 165 64 157 7 l 240 581 l 128 581 l 128 653 l 249 653 l 264 763 q 289 870 272 819 q 335 959 306 921 q 410 1019 365 997 q 518 1042 456 1042 q 651 1011 588 1042 l 625 940 q 525 963 581 963 q 410 911 450 963 q 356 749 371 860 l 343 653 l 544 653 l 544 579 l 335 579 l 264 76 z "},"„":{"ha":517,"x_min":31,"x_max":461,"o":"m 117 -10 q 70 15 88 -6 q 53 68 53 36 q 72 119 53 97 q 125 140 92 140 q 153 135 139 140 q 181 117 168 131 q 201 83 193 104 q 208 28 208 61 q 167 -99 208 -42 q 64 -187 125 -156 l 31 -140 q 97 -87 69 -121 q 132 -12 125 -54 l 117 -10 m 369 -10 q 323 15 340 -6 q 306 68 306 36 q 325 119 306 97 q 378 140 344 140 q 406 135 392 140 q 433 117 421 131 q 453 83 446 104 q 461 28 461 61 q 419 -99 461 -42 q 318 -187 378 -156 l 283 -140 q 351 -87 324 -121 q 386 -12 378 -54 l 369 -10 z "},"†":{"ha":488,"x_min":14,"x_max":474,"o":"m 474 653 l 474 574 l 292 574 l 292 -56 l 197 -56 l 197 574 l 14 574 l 14 653 l 197 653 l 197 875 l 292 875 l 292 653 l 474 653 z "},"‡":{"ha":488,"x_min":14,"x_max":474,"o":"m 474 269 l 474 190 l 292 190 l 292 -56 l 197 -56 l 197 190 l 14 190 l 14 269 l 197 269 l 197 574 l 14 574 l 14 653 l 197 653 l 197 875 l 292 875 l 292 653 l 474 653 l 474 574 l 292 574 l 292 269 l 474 269 z "},"ˆ":{"ha":493,"x_min":44,"x_max":454,"o":"m 454 771 l 363 771 l 253 933 l 138 771 l 44 771 l 218 1000 l 286 1000 l 454 771 z "},"‰":{"ha":1700,"x_min":42,"x_max":1658,"o":"m 232 0 l 839 1042 l 915 1042 l 308 0 l 232 0 m 1089 247 q 1074 147 1089 194 q 1032 65 1060 100 q 961 8 1004 29 q 863 -12 918 -12 q 767 8 808 -12 q 697 65 725 29 q 656 147 669 100 q 642 247 642 194 q 656 347 642 300 q 700 428 671 393 q 771 485 729 464 q 867 506 813 506 q 963 485 921 506 q 1032 428 1004 464 q 1074 347 1060 393 q 1089 247 1089 300 m 1007 247 q 999 323 1007 288 q 975 385 992 358 q 932 428 958 413 q 867 444 906 444 q 803 430 831 444 q 759 388 776 415 q 733 325 742 361 q 724 247 724 289 q 732 169 724 206 q 757 106 740 133 q 800 64 774 79 q 863 49 826 49 q 971 102 935 49 q 1007 247 1007 156 m 489 783 q 474 683 489 731 q 432 601 460 636 q 361 544 404 565 q 263 524 318 524 q 167 544 208 524 q 97 601 125 565 q 56 683 69 636 q 42 783 42 731 q 56 883 42 836 q 100 965 71 929 q 171 1021 129 1000 q 267 1042 213 1042 q 363 1021 321 1042 q 432 965 404 1000 q 474 883 460 929 q 489 783 489 836 m 407 783 q 399 858 407 822 q 375 922 392 894 q 332 965 358 949 q 267 981 306 981 q 203 965 231 981 q 159 924 176 950 q 133 861 142 897 q 124 783 124 825 q 132 705 124 742 q 157 642 140 668 q 200 600 174 615 q 263 585 226 585 q 371 638 335 585 q 407 783 407 692 m 1658 247 q 1644 147 1658 194 q 1601 65 1629 100 q 1531 8 1574 29 q 1432 -12 1488 -12 q 1336 8 1378 -12 q 1267 65 1294 29 q 1225 147 1239 100 q 1211 247 1211 194 q 1226 347 1211 300 q 1269 428 1240 393 q 1340 485 1299 464 q 1436 506 1382 506 q 1532 485 1490 506 q 1601 428 1574 464 q 1644 347 1629 393 q 1658 247 1658 300 m 1576 247 q 1569 323 1576 288 q 1544 385 1561 358 q 1501 428 1528 413 q 1436 444 1475 444 q 1373 430 1400 444 q 1328 388 1346 415 q 1302 325 1311 361 q 1293 247 1293 289 q 1301 169 1293 206 q 1326 106 1310 133 q 1369 64 1343 79 q 1432 49 1396 49 q 1540 102 1504 49 q 1576 247 1576 156 z "},"Š":{"ha":686,"x_min":63,"x_max":624,"o":"m 349 886 q 469 875 411 886 q 583 838 526 864 l 558 756 q 451 794 499 783 q 353 806 403 806 q 217 767 268 806 q 165 660 165 729 q 204 563 165 599 q 325 501 243 528 l 418 471 q 574 373 525 435 q 624 232 624 311 q 602 130 624 175 q 542 53 581 85 q 449 5 503 22 q 329 -12 394 -12 q 197 0 263 -12 q 64 43 131 13 l 90 125 q 205 83 149 96 q 324 69 261 69 q 465 107 408 69 q 521 222 521 144 q 513 274 521 250 q 486 319 506 299 q 433 359 467 340 q 349 394 400 378 l 258 424 q 117 505 171 451 q 63 647 63 558 q 136 822 63 757 q 349 886 210 886 m 140 1174 l 235 1174 l 351 1044 l 468 1174 l 565 1174 l 392 988 l 310 988 l 140 1174 z "},"‹":{"ha":396,"x_min":53,"x_max":350,"o":"m 258 106 l 53 328 l 258 551 l 350 551 l 161 328 l 350 106 l 258 106 z "},"Œ":{"ha":1154,"x_min":64,"x_max":1093,"o":"m 463 -12 q 306 15 379 -12 q 180 99 233 43 q 95 239 126 154 q 64 439 64 324 q 95 632 64 549 q 181 772 126 715 q 309 857 236 828 q 465 886 382 886 q 526 884 494 886 q 583 875 557 882 l 1089 875 l 1089 793 l 682 793 l 682 493 l 1053 493 l 1053 411 l 682 411 l 682 82 l 1093 82 l 1093 0 l 581 0 q 522 -10 553 -7 q 463 -12 492 -12 m 467 806 q 349 783 403 806 q 255 717 294 761 q 193 603 215 672 q 171 440 171 533 q 194 276 171 346 q 256 160 217 206 q 350 91 296 114 q 468 68 404 68 q 526 74 497 68 q 582 90 556 79 l 582 786 q 526 801 554 797 q 467 806 497 806 z "},"Ž":{"ha":706,"x_min":36,"x_max":668,"o":"m 661 875 l 661 814 l 156 81 l 668 81 l 668 0 l 36 0 l 36 68 l 535 794 l 57 794 l 57 875 l 661 875 m 146 1174 l 238 1174 l 356 1046 l 474 1174 l 571 1174 l 397 988 l 315 988 l 146 1174 z "},"“":{"ha":497,"x_min":36,"x_max":458,"o":"m 128 856 q 174 831 157 851 q 192 778 192 810 q 173 727 192 749 q 121 706 154 706 q 92 710 107 706 q 65 728 78 715 q 44 764 53 742 q 36 819 36 786 q 78 945 36 889 q 181 1033 119 1001 l 214 986 q 147 933 175 967 q 113 858 119 900 l 128 856 m 372 856 q 419 831 401 851 q 436 778 436 810 q 417 727 436 749 q 365 706 399 706 q 337 710 351 706 q 310 728 322 715 q 289 764 297 742 q 281 819 281 786 q 322 945 281 889 q 424 1033 364 1001 l 458 986 q 391 933 418 967 q 356 858 364 900 l 372 856 z "},"”":{"ha":497,"x_min":39,"x_max":461,"o":"m 125 867 q 78 892 96 871 q 61 944 61 914 q 81 995 61 974 q 133 1017 100 1017 q 162 1012 147 1017 q 189 994 176 1007 q 209 960 201 982 q 217 906 217 939 q 175 778 217 836 q 74 689 133 721 l 39 736 q 106 790 79 757 q 142 864 133 822 l 125 867 m 369 867 q 323 892 340 871 q 306 944 306 914 q 325 995 306 974 q 378 1017 344 1017 q 406 1012 392 1017 q 433 994 421 1007 q 453 960 446 982 q 461 906 461 939 q 419 778 461 836 q 317 689 378 721 l 283 736 q 350 790 322 757 q 385 864 378 822 l 369 867 z "},"•":{"ha":476,"x_min":83,"x_max":394,"o":"m 83 369 q 96 431 83 403 q 129 481 108 460 q 178 513 150 501 q 239 525 207 525 q 299 513 271 525 q 349 481 328 501 q 382 431 369 460 q 394 369 394 403 q 382 308 394 336 q 349 258 369 279 q 299 224 328 236 q 239 213 271 213 q 178 224 207 213 q 129 258 150 236 q 96 308 108 279 q 83 369 83 336 z "},"˜":{"ha":554,"x_min":47,"x_max":449,"o":"m 47 831 q 72 938 47 897 q 158 978 96 978 q 210 967 188 978 q 254 942 233 956 q 294 917 275 928 q 336 906 314 906 q 376 923 363 906 q 389 982 389 940 l 449 982 q 425 874 449 911 q 343 836 401 836 q 286 847 311 836 q 240 872 261 858 q 199 896 218 885 q 163 907 181 907 q 122 890 136 907 q 108 831 108 872 l 47 831 z "},"™":{"ha":1007,"x_min":56,"x_max":979,"o":"m 513 875 l 586 875 l 694 549 q 708 503 701 528 q 721 453 714 478 l 724 453 q 738 501 731 476 q 751 549 744 525 l 857 875 l 932 875 l 979 381 l 914 381 l 890 656 q 886 722 888 689 q 883 793 885 756 l 881 793 q 861 718 872 757 q 842 656 850 679 l 750 381 l 694 381 l 601 656 q 581 724 589 692 q 563 793 572 756 l 560 793 q 558 722 560 757 q 553 656 556 688 l 529 381 l 467 381 l 513 875 m 431 875 l 431 819 l 275 819 l 275 381 l 208 381 l 208 819 l 56 819 l 56 875 l 431 875 z "},"š":{"ha":557,"x_min":54,"x_max":503,"o":"m 450 550 q 373 578 410 569 q 296 586 336 586 q 190 558 225 586 q 156 486 156 531 q 183 423 156 446 q 285 378 210 400 l 326 365 q 458 294 413 339 q 503 179 503 250 q 440 42 503 96 q 261 -12 378 -12 q 146 -2 199 -12 q 54 28 93 8 l 79 104 q 160 74 117 85 q 254 64 203 64 q 365 91 325 64 q 404 171 404 118 q 373 241 404 215 q 272 289 342 267 l 228 303 q 100 373 142 331 q 58 481 58 415 q 75 554 58 521 q 122 611 92 588 q 194 648 153 635 q 285 661 235 661 q 381 653 331 661 q 474 625 431 644 l 450 550 m 82 958 l 175 958 l 285 831 l 396 958 l 493 958 l 326 772 l 244 772 l 82 958 z "},"›":{"ha":393,"x_min":47,"x_max":344,"o":"m 47 106 l 236 328 l 47 551 l 139 551 l 344 328 l 139 106 l 47 106 z "},"œ":{"ha":1176,"x_min":53,"x_max":1111,"o":"m 1111 319 l 650 319 l 650 307 q 711 128 650 192 q 881 64 772 64 q 969 72 929 64 q 1053 97 1008 79 l 1074 25 q 985 -2 1036 8 q 876 -12 935 -12 q 711 24 785 -12 q 601 138 638 61 q 353 -12 526 -12 q 233 9 288 -12 q 138 73 178 31 q 76 177 99 115 q 53 319 53 239 q 76 465 53 401 q 141 573 100 529 q 238 639 182 617 q 358 661 293 661 q 505 624 442 661 q 606 514 568 588 q 851 661 678 661 q 959 641 911 661 q 1041 583 1007 621 q 1093 493 1075 546 q 1111 376 1111 440 l 1111 319 m 554 326 q 538 444 554 394 q 493 524 521 493 q 429 570 465 556 q 354 585 393 585 q 279 571 315 585 q 215 526 243 557 q 171 447 188 496 q 154 326 154 397 q 172 206 154 256 q 217 124 189 156 q 281 78 244 93 q 357 64 318 64 q 432 77 396 64 q 495 122 468 90 q 538 203 522 153 q 554 326 554 253 m 1010 392 q 1001 466 1010 431 q 972 528 992 501 q 922 572 953 556 q 846 588 890 588 q 715 535 765 588 q 654 390 665 482 l 1010 392 z "},"ž":{"ha":571,"x_min":35,"x_max":538,"o":"m 531 597 l 153 75 l 538 75 l 538 0 l 35 0 l 35 61 l 408 576 l 58 576 l 58 653 l 531 653 l 531 597 m 107 958 l 199 958 l 304 832 l 410 958 l 504 958 l 344 772 l 263 772 l 107 958 z "},"Ÿ":{"ha":699,"x_min":7,"x_max":699,"o":"m 119 875 l 353 461 l 588 875 l 699 875 l 399 367 l 399 0 l 299 0 l 299 367 l 7 875 l 119 875 m 174 1060 q 192 1106 174 1088 q 236 1125 210 1125 q 281 1106 263 1125 q 299 1060 299 1088 q 281 1013 299 1032 q 236 994 263 994 q 192 1013 210 994 q 174 1060 174 1032 m 407 1060 q 425 1106 407 1088 q 469 1125 443 1125 q 514 1106 496 1125 q 532 1060 532 1088 q 514 1013 532 1032 q 469 994 496 994 q 425 1013 443 994 q 407 1060 407 1032 z "},"¡":{"ha":314,"x_min":88,"x_max":228,"o":"m 88 569 q 108 624 88 604 q 158 643 129 643 q 208 624 188 643 q 228 569 228 604 q 208 517 228 538 q 158 496 188 496 q 109 517 129 496 q 88 569 89 538 m 106 -354 l 118 356 l 196 356 l 208 -354 l 106 -354 z "},"¢":{"ha":701,"x_min":89,"x_max":601,"o":"m 432 168 q 513 178 476 168 q 581 203 549 188 l 601 132 q 535 108 569 117 q 463 96 501 100 l 463 -28 l 376 -28 l 376 97 q 262 126 314 103 q 171 191 210 150 q 110 290 132 232 q 89 425 89 349 q 167 654 89 568 q 376 753 246 740 l 376 888 l 463 888 l 463 753 q 529 742 496 750 q 599 719 563 735 l 576 646 q 506 671 546 661 q 424 681 465 681 q 251 617 313 681 q 189 429 189 553 q 210 302 189 353 q 266 222 232 251 q 344 180 300 192 q 432 168 388 168 z "},"£":{"ha":701,"x_min":83,"x_max":639,"o":"m 104 0 l 83 63 q 199 193 164 111 q 214 396 233 275 l 85 396 l 85 469 l 200 469 q 190 538 194 500 q 185 614 185 575 q 206 728 185 678 q 264 815 226 779 q 353 868 301 850 q 465 886 404 886 q 561 876 517 886 q 628 853 606 865 l 606 779 q 543 800 579 792 q 467 808 507 808 q 324 756 371 808 q 278 613 278 704 q 283 538 278 574 q 294 469 288 501 l 543 469 l 543 396 l 306 396 q 297 211 317 286 q 218 86 278 136 l 219 82 l 639 82 l 639 0 l 104 0 z "},"¤":{"ha":713,"x_min":49,"x_max":664,"o":"m 94 106 l 49 153 l 165 269 q 122 426 122 333 q 133 513 122 474 q 164 582 144 551 l 50 697 l 96 743 l 210 629 q 358 679 271 679 q 435 665 399 679 q 501 628 472 651 l 617 743 l 664 697 l 546 579 q 578 510 567 549 q 590 426 590 471 q 578 337 590 376 q 547 267 567 297 l 663 151 l 617 106 l 501 219 q 354 172 442 172 q 276 185 313 172 q 210 221 239 197 l 94 106 m 511 426 q 469 567 511 517 q 357 618 428 618 q 244 570 288 618 q 201 426 201 522 q 242 284 201 335 q 354 233 283 233 q 415 245 386 233 q 465 281 443 257 q 499 340 486 304 q 511 426 511 376 z "},"¥":{"ha":706,"x_min":13,"x_max":697,"o":"m 656 306 l 656 233 l 400 233 l 400 0 l 303 0 l 303 233 l 44 233 l 44 306 l 303 306 l 303 367 l 267 428 l 44 428 l 44 500 l 226 500 l 13 875 l 125 875 l 354 454 l 586 875 l 697 875 l 476 500 l 656 500 l 656 428 l 435 428 l 400 367 l 400 306 l 656 306 z "},"¦":{"ha":306,"x_min":111,"x_max":194,"o":"m 111 528 l 111 1042 l 194 1042 l 194 528 l 111 528 m 111 -250 l 111 261 l 194 261 l 194 -250 l 111 -250 z "},"§":{"ha":700,"x_min":79,"x_max":619,"o":"m 113 17 q 202 -15 157 -4 q 304 -26 247 -26 q 429 7 388 -26 q 471 93 471 40 q 439 163 471 139 q 331 217 407 188 l 246 249 q 120 325 161 281 q 79 436 79 369 q 106 528 79 488 q 172 593 133 568 q 145 637 156 611 q 135 694 135 663 q 197 832 135 778 q 375 886 260 886 q 477 877 428 886 q 571 847 526 868 l 549 775 q 461 806 500 797 q 383 814 422 814 q 267 785 307 814 q 228 703 228 756 q 258 633 228 657 q 354 583 288 608 l 439 551 q 573 472 526 518 q 619 360 619 426 q 594 265 619 306 q 532 196 569 224 q 556 152 547 176 q 564 100 564 128 q 547 22 564 58 q 499 -42 531 -15 q 421 -85 467 -69 q 318 -100 375 -100 q 190 -88 244 -100 q 89 -56 135 -76 l 113 17 m 528 349 q 495 426 528 400 q 413 471 463 453 l 328 501 q 276 523 301 513 q 229 547 251 533 q 188 506 204 532 q 171 444 171 481 q 203 367 171 393 q 286 322 235 342 l 371 292 q 427 268 403 279 q 472 244 451 257 q 512 289 496 261 q 528 349 528 317 z "},"¨":{"ha":453,"x_min":47,"x_max":406,"o":"m 47 865 q 65 910 47 892 q 110 929 83 929 q 153 910 135 929 q 172 865 172 892 q 153 817 172 836 q 110 799 135 799 q 65 817 83 799 q 47 865 47 836 m 281 865 q 299 910 281 892 q 343 929 317 929 q 387 910 368 929 q 406 865 406 892 q 387 817 406 836 q 343 799 368 799 q 299 817 317 799 q 281 865 281 836 z "},"©":{"ha":981,"x_min":50,"x_max":931,"o":"m 526 250 q 631 274 583 250 l 649 217 q 518 190 592 190 q 424 206 468 190 q 346 251 379 221 q 293 326 313 281 q 274 433 274 372 q 292 534 274 489 q 342 611 310 579 q 419 660 374 643 q 518 676 464 676 q 578 672 549 676 q 646 651 607 667 l 628 593 q 577 613 603 607 q 526 618 551 618 q 398 570 446 618 q 350 436 350 522 q 365 348 350 383 q 406 290 381 313 q 462 259 431 268 q 526 250 493 250 m 493 886 q 661 858 582 886 q 800 774 740 831 q 895 634 860 718 q 931 438 931 550 q 894 244 931 328 q 797 103 858 160 q 656 17 736 46 q 488 -12 576 -12 q 319 16 399 -12 q 181 101 240 44 q 85 241 121 157 q 50 438 50 325 q 86 631 50 547 q 183 771 122 714 q 324 857 244 828 q 493 886 404 886 m 493 842 q 344 815 415 842 q 220 738 274 789 q 135 612 167 688 q 103 438 103 536 q 133 260 103 336 q 217 133 164 183 q 340 57 269 82 q 488 32 410 32 q 636 58 565 32 q 760 136 707 85 q 846 263 814 188 q 878 438 878 339 q 847 615 878 539 q 764 741 817 690 q 641 817 711 792 q 493 842 571 842 z "},"ª":{"ha":447,"x_min":46,"x_max":390,"o":"m 79 772 q 159 806 124 796 q 238 817 194 817 q 297 809 269 817 q 346 784 325 801 q 378 738 367 767 q 390 668 390 710 l 390 381 l 338 381 l 328 429 l 326 429 q 264 385 299 399 q 189 372 229 372 q 86 405 126 372 q 46 496 46 438 q 99 599 46 564 q 240 633 153 633 l 324 633 l 324 675 q 299 742 324 722 q 233 761 274 761 q 177 753 210 761 q 104 724 144 746 l 79 772 m 324 586 l 253 583 q 146 558 176 581 q 115 499 115 535 q 143 440 115 454 q 203 425 171 425 q 267 438 235 425 q 324 483 299 451 l 324 586 z "},"«":{"ha":639,"x_min":53,"x_max":596,"o":"m 504 106 l 299 328 l 504 551 l 596 551 l 407 328 l 596 106 l 504 106 m 258 106 l 53 328 l 258 551 l 350 551 l 161 328 l 350 106 l 258 106 z "},"®":{"ha":739,"x_min":56,"x_max":683,"o":"m 257 819 l 386 819 q 472 791 442 819 q 503 718 503 763 q 481 653 503 678 q 432 619 460 629 l 525 469 l 464 469 l 382 610 l 306 610 l 306 469 l 257 469 l 257 819 m 306 649 l 367 649 q 428 665 406 649 q 451 717 451 682 q 429 766 451 753 q 372 779 407 779 l 306 779 l 306 649 m 683 650 q 660 512 683 571 q 596 413 638 453 q 497 352 554 372 q 371 332 439 332 q 244 352 301 332 q 144 410 186 372 q 79 506 103 449 q 56 639 56 564 q 78 776 56 717 q 143 874 101 835 q 242 933 185 914 q 368 953 299 953 q 494 933 436 953 q 594 876 553 914 q 660 781 636 838 q 683 650 683 725 m 639 644 q 617 767 639 715 q 558 851 594 818 q 472 901 521 885 q 368 918 422 918 q 265 903 314 918 q 180 854 217 888 q 122 769 143 821 q 100 644 100 717 q 120 521 100 574 q 176 433 140 468 q 262 382 213 399 q 371 365 311 365 q 474 381 425 365 q 559 432 522 397 q 617 519 596 467 q 639 644 639 571 z "},"°":{"ha":536,"x_min":50,"x_max":492,"o":"m 492 649 q 432 473 492 538 q 268 408 372 408 q 110 473 171 408 q 50 649 50 538 q 111 822 50 757 q 272 886 172 886 q 360 869 319 886 q 429 822 400 853 q 475 747 458 790 q 492 649 492 703 m 413 649 q 379 777 413 729 q 272 825 346 825 q 165 780 201 825 q 129 649 129 735 q 164 517 129 565 q 268 469 199 469 q 371 512 329 469 q 413 649 413 554 z "},"±":{"ha":651,"x_min":49,"x_max":603,"o":"m 561 71 l 561 0 l 90 0 l 90 71 l 561 71 m 603 508 l 603 438 l 361 438 l 361 196 l 290 196 l 290 438 l 49 438 l 49 508 l 290 508 l 290 750 l 361 750 l 361 508 l 603 508 z "},"´":{"ha":331,"x_min":43,"x_max":271,"o":"m 115 771 l 43 771 l 165 1000 l 271 1000 l 115 771 z "},"¶":{"ha":749,"x_min":63,"x_max":644,"o":"m 568 -250 l 568 811 l 435 811 l 435 -250 l 358 -250 l 358 372 q 137 442 211 372 q 63 631 63 511 q 84 742 63 694 q 144 822 106 790 q 236 870 182 854 q 356 886 290 886 l 644 886 l 644 -250 l 568 -250 z "},"¸":{"ha":397,"x_min":79,"x_max":336,"o":"m 178 0 l 242 0 l 207 -67 q 303 -97 269 -69 q 336 -164 336 -124 q 324 -214 336 -193 q 290 -249 311 -235 q 240 -271 268 -264 q 182 -278 213 -278 q 123 -273 150 -278 q 79 -261 96 -268 l 94 -208 q 172 -222 133 -222 q 236 -209 213 -222 q 260 -167 260 -196 q 230 -124 260 -139 q 126 -108 200 -108 l 178 0 z "},"º":{"ha":1165,"x_min":0,"x_max":0,"o":""},"»":{"ha":639,"x_min":47,"x_max":592,"o":"m 294 106 l 483 328 l 294 551 l 386 551 l 592 328 l 386 106 l 294 106 m 47 106 l 236 328 l 47 551 l 139 551 l 344 328 l 139 106 l 47 106 z "},"¿":{"ha":611,"x_min":88,"x_max":544,"o":"m 347 -346 q 156 -282 225 -346 q 88 -117 88 -218 q 131 19 88 -43 q 239 138 175 81 q 328 233 301 193 q 356 324 356 274 q 342 401 356 365 l 425 417 q 438 373 432 400 q 443 322 443 346 q 413 213 443 265 q 314 94 383 160 q 221 -7 257 40 q 185 -115 185 -54 q 194 -171 185 -144 q 223 -218 203 -197 q 275 -251 243 -239 q 354 -264 307 -264 q 428 -254 390 -264 q 504 -218 467 -244 l 544 -289 q 450 -332 504 -318 q 347 -346 396 -346 m 440 585 q 419 533 440 553 q 369 513 399 513 q 320 533 340 513 q 300 585 300 553 q 320 640 300 619 q 369 660 340 660 q 419 640 399 660 q 440 585 440 619 z "},"À":{"ha":810,"x_min":17,"x_max":793,"o":"m 221 1158 l 336 1158 l 454 986 l 375 986 l 221 1158 m 244 331 l 561 331 l 492 518 q 451 628 472 567 q 407 764 431 690 l 404 764 q 382 696 393 728 q 360 635 371 664 q 340 577 350 606 q 317 518 329 549 l 244 331 m 361 875 l 454 875 l 793 0 l 688 0 l 592 250 l 217 250 l 121 0 l 17 0 l 361 875 z "},"Á":{"ha":810,"x_min":17,"x_max":793,"o":"m 440 986 l 361 986 l 479 1158 l 594 1158 l 440 986 m 244 331 l 561 331 l 492 518 q 451 628 472 567 q 407 764 431 690 l 404 764 q 382 696 393 728 q 360 635 371 664 q 340 577 350 606 q 317 518 329 549 l 244 331 m 361 875 l 454 875 l 793 0 l 688 0 l 592 250 l 217 250 l 121 0 l 17 0 l 361 875 z "},"Â":{"ha":810,"x_min":17,"x_max":793,"o":"m 365 1172 l 447 1172 l 621 986 l 524 986 l 406 1113 l 288 986 l 196 986 l 365 1172 m 244 331 l 561 331 l 492 518 q 451 628 472 567 q 407 764 431 690 l 404 764 q 382 696 393 728 q 360 635 371 664 q 340 577 350 606 q 317 518 329 549 l 244 331 m 361 875 l 454 875 l 793 0 l 688 0 l 592 250 l 217 250 l 121 0 l 17 0 l 361 875 z "},"Ã":{"ha":810,"x_min":17,"x_max":793,"o":"m 199 989 q 227 1092 199 1050 q 319 1135 256 1135 q 372 1124 349 1135 q 415 1101 394 1114 q 453 1077 435 1088 q 496 1067 472 1067 q 541 1089 528 1067 q 557 1139 554 1111 l 619 1139 q 612 1085 619 1111 q 590 1040 604 1060 q 553 1008 575 1021 q 503 996 532 996 q 447 1006 472 996 q 401 1029 422 1017 q 360 1052 379 1042 q 324 1063 342 1063 q 277 1041 290 1063 q 261 989 264 1019 l 199 989 m 244 331 l 561 331 l 492 518 q 451 628 472 567 q 407 764 431 690 l 404 764 q 382 696 393 728 q 360 635 371 664 q 340 577 350 606 q 317 518 329 549 l 244 331 m 361 875 l 454 875 l 793 0 l 688 0 l 592 250 l 217 250 l 121 0 l 17 0 l 361 875 z "},"Ä":{"ha":810,"x_min":17,"x_max":793,"o":"m 228 1060 q 246 1106 228 1088 q 290 1125 264 1125 q 334 1106 315 1125 q 353 1060 353 1088 q 334 1013 353 1032 q 290 994 315 994 q 246 1013 264 994 q 228 1060 228 1032 m 461 1060 q 479 1106 461 1088 q 524 1125 497 1125 q 567 1106 549 1125 q 586 1060 586 1088 q 567 1013 586 1032 q 524 994 549 994 q 479 1013 497 994 q 461 1060 461 1032 m 244 331 l 561 331 l 492 518 q 451 628 472 567 q 407 764 431 690 l 404 764 q 382 696 393 728 q 360 635 371 664 q 340 577 350 606 q 317 518 329 549 l 244 331 m 361 875 l 454 875 l 793 0 l 688 0 l 592 250 l 217 250 l 121 0 l 17 0 l 361 875 z "},"Å":{"ha":810,"x_min":17,"x_max":793,"o":"m 275 1056 q 314 1143 275 1115 q 407 1171 353 1171 q 501 1143 463 1171 q 539 1056 539 1115 q 528 1003 539 1025 q 499 968 517 982 q 457 947 481 954 q 407 940 433 940 q 315 969 354 940 q 275 1056 275 997 m 336 1056 q 355 1001 336 1021 q 407 982 374 982 q 459 1001 440 982 q 478 1056 478 1021 q 458 1108 478 1089 q 407 1128 439 1128 q 356 1108 375 1128 q 336 1056 336 1089 m 244 331 l 561 331 l 492 518 q 451 628 472 567 q 407 764 431 690 l 404 764 q 382 696 393 728 q 360 635 371 664 q 340 577 350 606 q 317 518 329 549 l 244 331 m 361 875 l 454 875 l 793 0 l 688 0 l 592 250 l 217 250 l 121 0 l 17 0 l 361 875 z "},"Æ":{"ha":1081,"x_min":13,"x_max":1019,"o":"m 13 0 l 463 875 l 1015 875 l 1015 793 l 622 793 l 622 493 l 979 493 l 979 411 l 622 411 l 622 82 l 1019 82 l 1019 0 l 525 0 l 525 256 l 253 256 l 126 0 l 13 0 m 525 801 l 289 333 l 525 333 l 525 801 z "},"Ç":{"ha":756,"x_min":56,"x_max":710,"o":"m 483 69 q 597 82 551 69 q 682 114 642 94 l 706 33 q 610 1 661 13 q 483 -12 558 -11 l 460 -65 q 526 -76 499 -67 q 570 -101 553 -86 q 595 -135 588 -117 q 603 -175 603 -154 q 555 -265 603 -233 q 435 -297 507 -297 q 376 -292 403 -297 q 332 -281 349 -287 l 347 -229 q 385 -239 365 -236 q 425 -242 406 -242 q 502 -224 478 -242 q 526 -178 526 -207 q 521 -151 526 -164 q 500 -129 515 -139 q 456 -114 485 -119 q 379 -108 426 -108 l 426 -10 q 280 29 347 -3 q 163 117 213 61 q 84 253 113 174 q 56 436 56 333 q 87 627 56 543 q 174 769 118 711 q 307 856 231 826 q 474 886 383 886 q 610 873 556 886 q 710 836 664 860 l 686 758 q 592 793 638 782 q 489 804 547 804 q 365 783 424 804 q 261 718 306 763 q 190 603 217 674 q 163 435 163 533 q 190 264 163 333 q 262 151 217 194 q 365 89 307 108 q 483 69 422 69 z "},"È":{"ha":690,"x_min":111,"x_max":629,"o":"m 111 875 l 625 875 l 625 793 l 211 793 l 211 493 l 589 493 l 589 411 l 211 411 l 211 82 l 629 82 l 629 0 l 111 0 l 111 875 m 250 1158 l 365 1158 l 483 986 l 404 986 l 250 1158 z "},"É":{"ha":686,"x_min":111,"x_max":629,"o":"m 111 875 l 625 875 l 625 793 l 211 793 l 211 493 l 589 493 l 589 411 l 211 411 l 211 82 l 629 82 l 629 0 l 111 0 l 111 875 m 357 986 l 278 986 l 396 1158 l 511 1158 l 357 986 z "},"Ê":{"ha":686,"x_min":111,"x_max":629,"o":"m 111 875 l 625 875 l 625 793 l 211 793 l 211 493 l 589 493 l 589 411 l 211 411 l 211 82 l 629 82 l 629 0 l 111 0 l 111 875 m 325 1172 l 407 1172 l 581 986 l 483 986 l 365 1113 l 247 986 l 156 986 l 325 1172 z "},"Ë":{"ha":686,"x_min":111,"x_max":629,"o":"m 111 875 l 625 875 l 625 793 l 211 793 l 211 493 l 589 493 l 589 411 l 211 411 l 211 82 l 629 82 l 629 0 l 111 0 l 111 875 m 193 1060 q 211 1106 193 1088 q 256 1125 229 1125 q 299 1106 281 1125 q 318 1060 318 1088 q 299 1013 318 1032 q 256 994 281 994 q 211 1013 229 994 q 193 1060 193 1032 m 426 1060 q 444 1106 426 1088 q 489 1125 463 1125 q 533 1106 514 1125 q 551 1060 551 1088 q 533 1013 551 1032 q 489 994 514 994 q 444 1013 463 994 q 426 1060 426 1032 z "},"Ì":{"ha":322,"x_min":-29,"x_max":211,"o":"m 211 875 l 211 0 l 111 0 l 111 875 l 211 875 m -29 1158 l 86 1158 l 204 986 l 125 986 l -29 1158 z "},"Í":{"ha":321,"x_min":111,"x_max":350,"o":"m 211 875 l 211 0 l 111 0 l 111 875 l 211 875 m 196 986 l 117 986 l 235 1158 l 350 1158 l 196 986 z "},"Î":{"ha":321,"x_min":-49,"x_max":376,"o":"m 211 875 l 211 0 l 111 0 l 111 875 l 211 875 m 121 1172 l 203 1172 l 376 986 l 279 986 l 161 1113 l 43 986 l -49 986 l 121 1172 z "},"Ï":{"ha":321,"x_min":-19,"x_max":339,"o":"m 211 875 l 211 0 l 111 0 l 111 875 l 211 875 m -19 1060 q -1 1106 -19 1088 q 43 1125 17 1125 q 87 1106 68 1125 q 106 1060 106 1088 q 87 1013 106 1032 q 43 994 68 994 q -1 1013 17 994 q -19 1060 -19 1032 m 214 1060 q 232 1106 214 1088 q 276 1125 250 1125 q 320 1106 301 1125 q 339 1060 339 1088 q 320 1013 339 1032 q 276 994 301 994 q 232 1013 250 994 q 214 1060 214 1032 z "},"Ð":{"ha":906,"x_min":42,"x_max":842,"o":"m 424 875 q 590 849 513 875 q 722 770 667 822 q 810 640 778 718 q 842 457 842 561 q 804 243 842 331 q 703 101 767 156 q 554 24 639 47 q 375 0 469 0 l 153 0 l 153 421 l 42 421 l 42 493 l 153 493 l 153 875 l 424 875 m 458 493 l 458 421 l 253 421 l 253 82 l 363 82 q 499 98 432 82 q 618 156 565 114 q 703 272 671 199 q 735 457 735 344 q 710 600 735 538 q 642 706 686 663 q 536 771 599 749 q 399 793 474 793 l 253 793 l 253 493 l 458 493 z "},"Ñ":{"ha":892,"x_min":111,"x_max":782,"o":"m 111 875 l 264 875 l 576 300 l 682 96 l 686 96 l 685 328 l 685 875 l 782 875 l 782 0 l 629 0 l 326 550 l 210 792 l 207 792 l 208 522 l 208 0 l 111 0 l 111 875 m 251 989 q 280 1092 251 1050 q 372 1135 308 1135 q 425 1124 403 1135 q 467 1101 447 1114 q 506 1077 488 1088 q 549 1067 525 1067 q 594 1089 581 1067 q 610 1139 607 1111 l 672 1139 q 665 1085 672 1111 q 644 1040 658 1060 q 608 1008 629 1021 q 557 996 586 996 q 500 1006 525 996 q 453 1029 475 1017 q 413 1052 432 1042 q 376 1063 394 1063 q 331 1041 344 1063 q 314 989 317 1019 l 251 989 z "},"Ò":{"ha":925,"x_min":64,"x_max":861,"o":"m 465 886 q 622 858 549 886 q 747 774 694 831 q 831 634 800 718 q 861 438 861 550 q 830 244 861 328 q 744 103 799 160 q 617 17 690 46 q 460 -12 543 -12 q 303 16 376 -12 q 178 101 231 44 q 94 241 125 157 q 64 438 64 325 q 95 631 64 547 q 181 771 126 714 q 308 857 235 828 q 465 886 381 886 m 171 438 q 194 274 171 343 q 258 158 218 204 q 352 90 299 113 q 465 68 406 68 q 577 90 525 68 q 669 158 629 113 q 731 274 708 204 q 754 438 754 343 q 731 603 754 533 q 667 718 707 674 q 573 784 626 763 q 460 806 519 806 q 348 783 400 806 q 256 715 296 761 q 194 600 217 669 q 171 438 171 531 m 319 1158 l 435 1158 l 553 986 l 474 986 l 319 1158 z "},"Ó":{"ha":925,"x_min":64,"x_max":861,"o":"m 465 886 q 622 858 549 886 q 747 774 694 831 q 831 634 800 718 q 861 438 861 550 q 830 244 861 328 q 744 103 799 160 q 617 17 690 46 q 460 -12 543 -12 q 303 16 376 -12 q 178 101 231 44 q 94 241 125 157 q 64 438 64 325 q 95 631 64 547 q 181 771 126 714 q 308 857 235 828 q 465 886 381 886 m 171 438 q 194 274 171 343 q 258 158 218 204 q 352 90 299 113 q 465 68 406 68 q 577 90 525 68 q 669 158 629 113 q 731 274 708 204 q 754 438 754 343 q 731 603 754 533 q 667 718 707 674 q 573 784 626 763 q 460 806 519 806 q 348 783 400 806 q 256 715 296 761 q 194 600 217 669 q 171 438 171 531 m 440 986 l 361 986 l 479 1158 l 594 1158 l 440 986 z "},"Ô":{"ha":925,"x_min":64,"x_max":861,"o":"m 465 886 q 622 858 549 886 q 747 774 694 831 q 831 634 800 718 q 861 438 861 550 q 830 244 861 328 q 744 103 799 160 q 617 17 690 46 q 460 -12 543 -12 q 303 16 376 -12 q 178 101 231 44 q 94 241 125 157 q 64 438 64 325 q 95 631 64 547 q 181 771 126 714 q 308 857 235 828 q 465 886 381 886 m 171 438 q 194 274 171 343 q 258 158 218 204 q 352 90 299 113 q 465 68 406 68 q 577 90 525 68 q 669 158 629 113 q 731 274 708 204 q 754 438 754 343 q 731 603 754 533 q 667 718 707 674 q 573 784 626 763 q 460 806 519 806 q 348 783 400 806 q 256 715 296 761 q 194 600 217 669 q 171 438 171 531 m 422 1172 l 504 1172 l 678 986 l 581 986 l 463 1113 l 344 986 l 253 986 l 422 1172 z "},"Õ":{"ha":925,"x_min":64,"x_max":861,"o":"m 465 886 q 622 858 549 886 q 747 774 694 831 q 831 634 800 718 q 861 438 861 550 q 830 244 861 328 q 744 103 799 160 q 617 17 690 46 q 460 -12 543 -12 q 303 16 376 -12 q 178 101 231 44 q 94 241 125 157 q 64 438 64 325 q 95 631 64 547 q 181 771 126 714 q 308 857 235 828 q 465 886 381 886 m 171 438 q 194 274 171 343 q 258 158 218 204 q 352 90 299 113 q 465 68 406 68 q 577 90 525 68 q 669 158 629 113 q 731 274 708 204 q 754 438 754 343 q 731 603 754 533 q 667 718 707 674 q 573 784 626 763 q 460 806 519 806 q 348 783 400 806 q 256 715 296 761 q 194 600 217 669 q 171 438 171 531 m 250 990 q 278 1094 250 1051 q 371 1136 307 1136 q 423 1126 400 1136 q 466 1102 446 1115 q 505 1078 486 1089 q 547 1068 524 1068 q 592 1090 579 1068 q 608 1140 606 1111 l 671 1140 q 663 1087 671 1113 q 641 1041 656 1061 q 605 1008 626 1021 q 554 996 583 996 q 499 1006 524 996 q 452 1030 474 1017 q 412 1053 431 1043 q 375 1064 393 1064 q 328 1042 342 1064 q 313 990 315 1021 l 250 990 z "},"Ö":{"ha":925,"x_min":64,"x_max":861,"o":"m 465 886 q 622 858 549 886 q 747 774 694 831 q 831 634 800 718 q 861 438 861 550 q 830 244 861 328 q 744 103 799 160 q 617 17 690 46 q 460 -12 543 -12 q 303 16 376 -12 q 178 101 231 44 q 94 241 125 157 q 64 438 64 325 q 95 631 64 547 q 181 771 126 714 q 308 857 235 828 q 465 886 381 886 m 171 438 q 194 274 171 343 q 258 158 218 204 q 352 90 299 113 q 465 68 406 68 q 577 90 525 68 q 669 158 629 113 q 731 274 708 204 q 754 438 754 343 q 731 603 754 533 q 667 718 707 674 q 573 784 626 763 q 460 806 519 806 q 348 783 400 806 q 256 715 296 761 q 194 600 217 669 q 171 438 171 531 m 283 1060 q 301 1106 283 1088 q 346 1125 319 1125 q 390 1106 371 1125 q 408 1060 408 1088 q 390 1013 408 1032 q 346 994 371 994 q 301 1013 319 994 q 283 1060 283 1032 m 517 1060 q 535 1106 517 1088 q 579 1125 553 1125 q 623 1106 604 1125 q 642 1060 642 1088 q 623 1013 642 1032 q 579 994 604 994 q 535 1013 553 994 q 517 1060 517 1032 z "},"Ø":{"ha":925,"x_min":64,"x_max":861,"o":"m 686 1042 l 738 1024 l 664 838 q 807 688 753 788 q 861 438 861 589 q 830 244 861 328 q 744 103 799 160 q 617 17 690 46 q 460 -12 543 -12 q 390 -7 424 -12 q 325 8 356 -1 l 239 -207 l 188 -186 l 272 29 q 121 178 178 78 q 64 438 64 279 q 95 631 64 547 q 181 771 126 714 q 308 857 235 828 q 465 886 381 886 q 541 880 503 886 q 613 860 579 874 l 686 1042 m 171 438 q 209 235 171 315 q 310 114 247 154 l 578 782 q 460 806 522 806 q 348 783 400 806 q 256 715 296 761 q 194 600 217 669 q 171 438 171 531 m 465 68 q 577 90 525 68 q 669 158 629 113 q 731 274 708 204 q 754 438 754 343 q 719 634 754 556 q 626 754 685 713 l 360 88 q 465 68 411 68 z "},"Ù":{"ha":869,"x_min":104,"x_max":765,"o":"m 104 875 l 204 875 l 204 351 q 260 134 204 199 q 439 69 317 69 q 542 89 499 69 q 612 143 585 108 q 652 226 639 178 q 665 335 665 275 l 665 875 l 765 875 l 765 339 q 680 73 765 158 q 439 -12 594 -12 q 193 73 282 -12 q 104 346 104 158 l 104 875 m 296 1158 l 411 1158 l 529 986 l 450 986 l 296 1158 z "},"Ú":{"ha":869,"x_min":104,"x_max":765,"o":"m 104 875 l 204 875 l 204 351 q 260 134 204 199 q 439 69 317 69 q 542 89 499 69 q 612 143 585 108 q 652 226 639 178 q 665 335 665 275 l 665 875 l 765 875 l 765 339 q 680 73 765 158 q 439 -12 594 -12 q 193 73 282 -12 q 104 346 104 158 l 104 875 m 419 986 l 340 986 l 458 1158 l 574 1158 l 419 986 z "},"Û":{"ha":869,"x_min":104,"x_max":765,"o":"m 104 875 l 204 875 l 204 351 q 260 134 204 199 q 439 69 317 69 q 542 89 499 69 q 612 143 585 108 q 652 226 639 178 q 665 335 665 275 l 665 875 l 765 875 l 765 339 q 680 73 765 158 q 439 -12 594 -12 q 193 73 282 -12 q 104 346 104 158 l 104 875 m 399 1172 l 481 1172 l 654 986 l 557 986 l 439 1113 l 321 986 l 229 986 l 399 1172 z "},"Ü":{"ha":869,"x_min":104,"x_max":765,"o":"m 104 875 l 204 875 l 204 351 q 260 134 204 199 q 439 69 317 69 q 542 89 499 69 q 612 143 585 108 q 652 226 639 178 q 665 335 665 275 l 665 875 l 765 875 l 765 339 q 680 73 765 158 q 439 -12 594 -12 q 193 73 282 -12 q 104 346 104 158 l 104 875 m 260 1060 q 278 1106 260 1088 q 322 1125 296 1125 q 366 1106 347 1125 q 385 1060 385 1088 q 366 1013 385 1032 q 322 994 347 994 q 278 1013 296 994 q 260 1060 260 1032 m 493 1060 q 511 1106 493 1088 q 556 1125 529 1125 q 599 1106 581 1125 q 618 1060 618 1088 q 599 1013 618 1032 q 556 994 581 994 q 511 1013 529 994 q 493 1060 493 1032 z "},"Ý":{"ha":688,"x_min":-1,"x_max":690,"o":"m 111 875 l 344 461 l 579 875 l 690 875 l 390 367 l 390 0 l 290 0 l 290 367 l -1 875 l 111 875 m 357 986 l 278 986 l 396 1158 l 511 1158 l 357 986 z "},"Þ":{"ha":685,"x_min":100,"x_max":624,"o":"m 100 875 l 192 875 l 192 690 q 251 703 219 699 q 317 708 282 708 q 437 690 381 708 q 535 638 493 672 q 600 556 576 604 q 624 446 624 507 q 599 317 624 372 q 528 226 574 263 q 422 172 483 190 q 290 154 361 154 q 242 156 271 154 q 192 161 214 158 l 192 0 l 100 0 l 100 875 m 192 240 q 238 233 215 235 q 293 231 261 231 q 463 284 399 231 q 526 433 526 338 q 508 521 526 483 q 460 583 490 558 q 389 620 429 608 q 304 632 349 632 q 242 628 272 632 q 192 617 211 624 l 192 240 z "},"ß":{"ha":792,"x_min":108,"x_max":719,"o":"m 108 0 l 108 667 q 126 801 108 739 q 182 906 144 863 q 277 975 219 950 q 415 1000 335 1000 q 510 985 465 1000 q 590 943 556 971 q 644 872 624 915 q 665 774 665 829 q 657 708 665 740 q 639 657 649 676 q 523 610 557 642 q 489 532 489 579 q 515 459 489 488 q 581 401 540 431 q 633 359 607 381 q 677 313 658 338 q 708 259 696 289 q 719 192 719 229 q 656 44 719 101 q 476 -12 593 -12 q 392 -5 439 -12 q 321 17 346 3 l 343 88 q 405 69 372 76 q 471 63 438 63 q 583 98 546 63 q 621 189 621 133 q 613 229 621 211 q 592 264 606 247 q 559 297 579 281 q 514 333 539 314 q 424 420 456 378 q 392 528 392 463 q 435 639 392 590 q 561 708 478 688 q 571 772 571 732 q 526 885 571 846 q 411 924 481 924 q 325 909 364 924 q 259 862 286 894 q 217 776 232 829 q 201 647 201 724 l 201 0 l 108 0 z "},"à":{"ha":658,"x_min":50,"x_max":569,"o":"m 96 594 q 216 645 161 629 q 338 661 271 661 q 430 649 388 661 q 503 610 472 638 q 552 537 535 582 q 569 425 569 492 l 569 0 l 494 0 l 479 79 l 476 79 q 381 9 435 31 q 264 -12 328 -12 q 178 1 218 -12 q 110 39 139 14 q 66 99 82 64 q 50 176 50 133 q 71 267 50 228 q 130 332 92 306 q 222 372 168 358 q 340 385 275 385 l 472 385 l 472 433 q 433 549 472 517 q 331 582 394 582 q 242 570 292 582 q 133 525 193 558 l 96 594 m 472 314 l 364 313 q 200 272 249 310 q 151 181 151 235 q 192 89 151 115 q 288 63 232 63 q 386 85 336 63 q 472 161 436 108 l 472 314 m 210 958 l 325 958 l 429 772 l 350 772 l 210 958 z "},"á":{"ha":658,"x_min":50,"x_max":569,"o":"m 96 594 q 216 645 161 629 q 338 661 271 661 q 430 649 388 661 q 503 610 472 638 q 552 537 535 582 q 569 425 569 492 l 569 0 l 494 0 l 479 79 l 476 79 q 381 9 435 31 q 264 -12 328 -12 q 178 1 218 -12 q 110 39 139 14 q 66 99 82 64 q 50 176 50 133 q 71 267 50 228 q 130 332 92 306 q 222 372 168 358 q 340 385 275 385 l 472 385 l 472 433 q 433 549 472 517 q 331 582 394 582 q 242 570 292 582 q 133 525 193 558 l 96 594 m 472 314 l 364 313 q 200 272 249 310 q 151 181 151 235 q 192 89 151 115 q 288 63 232 63 q 386 85 336 63 q 472 161 436 108 l 472 314 m 339 772 l 260 772 l 364 958 l 479 958 l 339 772 z "},"â":{"ha":658,"x_min":50,"x_max":569,"o":"m 96 594 q 216 645 161 629 q 338 661 271 661 q 430 649 388 661 q 503 610 472 638 q 552 537 535 582 q 569 425 569 492 l 569 0 l 494 0 l 479 79 l 476 79 q 381 9 435 31 q 264 -12 328 -12 q 178 1 218 -12 q 110 39 139 14 q 66 99 82 64 q 50 176 50 133 q 71 267 50 228 q 130 332 92 306 q 222 372 168 358 q 340 385 275 385 l 472 385 l 472 433 q 433 549 472 517 q 331 582 394 582 q 242 570 292 582 q 133 525 193 558 l 96 594 m 472 314 l 364 313 q 200 272 249 310 q 151 181 151 235 q 192 89 151 115 q 288 63 232 63 q 386 85 336 63 q 472 161 436 108 l 472 314 m 550 772 l 458 772 l 350 899 l 242 772 l 146 772 l 310 958 l 392 958 l 550 772 z "},"ã":{"ha":658,"x_min":50,"x_max":569,"o":"m 96 594 q 216 645 161 629 q 338 661 271 661 q 430 649 388 661 q 503 610 472 638 q 552 537 535 582 q 569 425 569 492 l 569 0 l 494 0 l 479 79 l 476 79 q 381 9 435 31 q 264 -12 328 -12 q 178 1 218 -12 q 110 39 139 14 q 66 99 82 64 q 50 176 50 133 q 71 267 50 228 q 130 332 92 306 q 222 372 168 358 q 340 385 275 385 l 472 385 l 472 433 q 433 549 472 517 q 331 582 394 582 q 242 570 292 582 q 133 525 193 558 l 96 594 m 472 314 l 364 313 q 200 272 249 310 q 151 181 151 235 q 192 89 151 115 q 288 63 232 63 q 386 85 336 63 q 472 161 436 108 l 472 314 m 122 775 q 151 881 122 840 q 242 922 179 922 q 294 911 271 922 q 339 887 318 900 q 379 863 360 874 q 421 851 399 851 q 481 926 478 851 l 542 926 q 514 821 542 861 q 428 781 486 781 q 372 792 397 781 q 324 815 346 803 q 282 839 301 828 q 244 850 263 850 q 201 832 217 850 q 185 775 186 814 l 122 775 z "},"ä":{"ha":658,"x_min":50,"x_max":569,"o":"m 96 594 q 216 645 161 629 q 338 661 271 661 q 430 649 388 661 q 503 610 472 638 q 552 537 535 582 q 569 425 569 492 l 569 0 l 494 0 l 479 79 l 476 79 q 381 9 435 31 q 264 -12 328 -12 q 178 1 218 -12 q 110 39 139 14 q 66 99 82 64 q 50 176 50 133 q 71 267 50 228 q 130 332 92 306 q 222 372 168 358 q 340 385 275 385 l 472 385 l 472 433 q 433 549 472 517 q 331 582 394 582 q 242 570 292 582 q 133 525 193 558 l 96 594 m 472 314 l 364 313 q 200 272 249 310 q 151 181 151 235 q 192 89 151 115 q 288 63 232 63 q 386 85 336 63 q 472 161 436 108 l 472 314 m 163 865 q 181 910 163 892 q 225 929 199 929 q 269 910 251 929 q 288 865 288 892 q 269 817 288 836 q 225 799 251 799 q 181 817 199 799 q 163 865 163 836 m 396 865 q 414 910 396 892 q 458 929 432 929 q 503 910 485 929 q 521 865 521 892 q 503 817 521 836 q 458 799 485 799 q 414 817 432 799 q 396 865 396 836 z "},"å":{"ha":658,"x_min":50,"x_max":569,"o":"m 96 594 q 216 645 161 629 q 338 661 271 661 q 430 649 388 661 q 503 610 472 638 q 552 537 535 582 q 569 425 569 492 l 569 0 l 494 0 l 479 79 l 476 79 q 381 9 435 31 q 264 -12 328 -12 q 178 1 218 -12 q 110 39 139 14 q 66 99 82 64 q 50 176 50 133 q 71 267 50 228 q 130 332 92 306 q 222 372 168 358 q 340 385 275 385 l 472 385 l 472 433 q 433 549 472 517 q 331 582 394 582 q 242 570 292 582 q 133 525 193 558 l 96 594 m 472 314 l 364 313 q 200 272 249 310 q 151 181 151 235 q 192 89 151 115 q 288 63 232 63 q 386 85 336 63 q 472 161 436 108 l 472 314 m 211 865 q 249 952 211 924 q 339 981 288 981 q 428 952 392 981 q 465 865 465 924 q 455 815 465 836 q 426 778 444 793 q 386 757 408 764 q 339 750 364 750 q 250 780 289 750 q 211 865 211 810 m 271 865 q 288 813 271 833 q 339 792 304 792 q 390 813 372 792 q 407 865 407 833 q 389 917 407 897 q 339 938 371 938 q 288 917 306 938 q 271 865 271 897 z "},"æ":{"ha":1081,"x_min":50,"x_max":1026,"o":"m 1026 315 l 567 315 l 567 303 q 627 126 567 188 q 796 64 688 64 q 886 72 844 64 q 972 97 928 79 l 993 25 q 902 -2 954 8 q 792 -12 850 -12 q 640 17 708 -12 q 529 110 571 46 l 526 110 q 421 19 483 50 q 274 -12 358 -12 q 185 1 225 -12 q 114 39 144 14 q 67 99 83 64 q 50 176 50 133 q 71 267 50 228 q 130 332 92 306 q 222 372 168 358 q 340 385 275 385 l 474 385 l 474 433 q 434 549 474 517 q 331 582 394 582 q 242 570 292 582 q 133 525 193 558 l 96 594 q 216 645 161 629 q 338 661 271 661 q 459 635 408 661 q 539 551 510 610 l 542 551 q 638 635 582 608 q 764 661 694 661 q 872 640 824 661 q 955 582 921 619 q 1008 491 989 544 q 1026 372 1026 438 l 1026 315 m 151 181 q 192 89 151 115 q 294 63 232 63 q 403 89 347 63 q 496 175 458 115 q 478 240 485 206 q 472 314 472 274 l 364 313 q 200 272 249 310 q 151 181 151 235 m 925 386 q 916 461 925 425 q 888 525 907 497 q 837 570 868 553 q 761 588 806 588 q 629 534 681 588 q 568 386 578 481 l 925 386 z "},"ç":{"ha":603,"x_min":56,"x_max":561,"o":"m 394 61 q 474 71 439 61 q 540 96 508 81 l 561 25 q 396 -12 490 -11 l 368 -67 q 464 -97 431 -69 q 497 -164 497 -124 q 485 -214 497 -193 q 451 -249 472 -235 q 401 -271 429 -264 q 343 -278 374 -278 q 284 -273 311 -278 q 240 -261 257 -268 l 256 -208 q 333 -222 294 -222 q 397 -209 374 -222 q 421 -167 421 -196 q 391 -124 421 -139 q 288 -108 361 -108 l 335 -8 q 225 23 276 -1 q 136 89 174 47 q 77 190 99 131 q 56 325 56 249 q 80 465 56 403 q 148 572 104 528 q 251 638 192 615 q 383 661 311 661 q 467 655 426 661 q 558 626 508 649 l 536 551 q 466 578 500 571 q 396 586 432 586 q 222 518 288 586 q 156 329 156 450 q 176 201 156 253 q 231 119 197 150 q 307 74 264 88 q 394 61 350 61 z "},"è":{"ha":700,"x_min":68,"x_max":636,"o":"m 636 319 l 169 319 l 169 307 q 231 128 169 192 q 401 64 293 64 q 492 72 450 64 q 578 97 533 79 l 599 25 q 508 -2 561 8 q 397 -12 456 -12 q 269 7 329 -12 q 165 67 210 26 q 94 172 119 108 q 68 325 68 236 q 90 464 68 401 q 151 570 111 526 q 248 638 192 614 q 374 661 304 661 q 481 641 433 661 q 564 583 529 621 q 617 493 599 546 q 636 376 636 440 l 636 319 m 535 392 q 526 466 535 431 q 497 528 517 501 q 444 572 476 556 q 368 588 413 588 q 235 535 288 588 q 172 390 183 482 l 535 392 m 347 958 l 451 772 l 372 772 l 232 958 l 347 958 z "},"é":{"ha":700,"x_min":68,"x_max":636,"o":"m 636 319 l 169 319 l 169 307 q 231 128 169 192 q 401 64 293 64 q 492 72 450 64 q 578 97 533 79 l 599 25 q 508 -2 561 8 q 397 -12 456 -12 q 269 7 329 -12 q 165 67 210 26 q 94 172 119 108 q 68 325 68 236 q 90 464 68 401 q 151 570 111 526 q 248 638 192 614 q 374 661 304 661 q 481 641 433 661 q 564 583 529 621 q 617 493 599 546 q 636 376 636 440 l 636 319 m 535 392 q 526 466 535 431 q 497 528 517 501 q 444 572 476 556 q 368 588 413 588 q 235 535 288 588 q 172 390 183 482 l 535 392 m 500 958 l 360 772 l 281 772 l 385 958 l 500 958 z "},"ê":{"ha":700,"x_min":68,"x_max":636,"o":"m 636 319 l 169 319 l 169 307 q 231 128 169 192 q 401 64 293 64 q 492 72 450 64 q 578 97 533 79 l 599 25 q 508 -2 561 8 q 397 -12 456 -12 q 269 7 329 -12 q 165 67 210 26 q 94 172 119 108 q 68 325 68 236 q 90 464 68 401 q 151 570 111 526 q 248 638 192 614 q 374 661 304 661 q 481 641 433 661 q 564 583 529 621 q 617 493 599 546 q 636 376 636 440 l 636 319 m 535 392 q 526 466 535 431 q 497 528 517 501 q 444 572 476 556 q 368 588 413 588 q 235 535 288 588 q 172 390 183 482 l 535 392 m 481 772 l 372 899 l 264 772 l 168 772 l 332 958 l 414 958 l 572 772 l 481 772 z "},"ë":{"ha":700,"x_min":68,"x_max":636,"o":"m 636 319 l 169 319 l 169 307 q 231 128 169 192 q 401 64 293 64 q 492 72 450 64 q 578 97 533 79 l 599 25 q 508 -2 561 8 q 397 -12 456 -12 q 269 7 329 -12 q 165 67 210 26 q 94 172 119 108 q 68 325 68 236 q 90 464 68 401 q 151 570 111 526 q 248 638 192 614 q 374 661 304 661 q 481 641 433 661 q 564 583 529 621 q 617 493 599 546 q 636 376 636 440 l 636 319 m 535 392 q 526 466 535 431 q 497 528 517 501 q 444 572 476 556 q 368 588 413 588 q 235 535 288 588 q 172 390 183 482 l 535 392 m 196 865 q 214 910 196 892 q 258 929 232 929 q 302 910 283 929 q 321 865 321 892 q 302 817 321 836 q 258 799 283 799 q 214 817 232 799 q 196 865 196 836 m 429 865 q 447 910 429 892 q 492 929 465 929 q 535 910 517 929 q 554 865 554 892 q 535 817 554 836 q 492 799 517 799 q 447 817 465 799 q 429 865 429 836 z "},"ì":{"ha":319,"x_min":-11,"x_max":208,"o":"m 111 0 l 111 653 l 208 653 l 208 0 l 111 0 m -11 958 l 104 958 l 208 772 l 129 772 l -11 958 z "},"í":{"ha":319,"x_min":111,"x_max":331,"o":"m 111 0 l 111 653 l 208 653 l 208 0 l 111 0 m 190 772 l 111 772 l 215 958 l 331 958 l 190 772 z "},"î":{"ha":319,"x_min":-46,"x_max":357,"o":"m 111 0 l 111 653 l 208 653 l 208 0 l 111 0 m 357 772 l 265 772 l 160 897 l 50 772 l -46 772 l 118 958 l 200 958 l 357 772 z "},"ï":{"ha":319,"x_min":-24,"x_max":335,"o":"m 111 0 l 111 653 l 208 653 l 208 0 l 111 0 m -24 865 q -6 910 -24 892 q 39 929 13 929 q 83 910 65 929 q 101 865 101 892 q 83 817 101 836 q 39 799 65 799 q -6 817 13 799 q -24 865 -24 836 m 210 865 q 228 910 210 892 q 272 929 246 929 q 317 910 299 929 q 335 865 335 892 q 317 817 335 836 q 272 799 299 799 q 228 817 246 799 q 210 865 210 836 z "},"ð":{"ha":714,"x_min":56,"x_max":650,"o":"m 339 635 q 448 609 396 635 q 533 539 500 583 l 538 539 q 513 615 529 576 q 473 690 496 654 q 424 756 450 725 q 368 807 397 786 l 207 725 l 179 774 l 319 843 q 251 879 289 863 q 174 910 214 896 l 211 975 q 313 935 260 961 q 410 876 365 910 l 542 944 l 569 896 l 456 839 q 524 758 489 806 q 587 651 558 711 q 633 515 615 590 q 650 350 650 439 q 631 204 650 271 q 573 90 611 138 q 479 15 535 42 q 351 -12 424 -12 q 247 6 300 -12 q 152 64 194 25 q 83 164 110 103 q 56 311 56 225 q 78 448 56 388 q 138 550 100 508 q 228 613 176 592 q 339 635 281 635 m 353 558 q 283 546 318 558 q 219 506 247 533 q 172 431 190 478 q 154 315 154 383 q 172 194 154 243 q 219 117 190 146 q 285 76 249 88 q 357 64 321 64 q 435 83 399 64 q 497 135 471 101 q 538 215 524 168 q 553 317 553 261 q 536 418 553 374 q 492 494 519 463 q 428 542 464 525 q 353 558 392 558 z "},"ñ":{"ha":715,"x_min":93,"x_max":621,"o":"m 190 0 l 93 0 l 93 653 l 167 653 l 182 563 q 284 635 231 608 q 407 661 338 661 q 564 606 507 661 q 621 450 621 550 l 621 0 l 524 0 l 524 432 q 490 540 524 497 q 379 582 457 582 q 281 558 331 582 q 190 489 231 533 l 190 0 m 153 775 q 181 881 153 840 q 272 922 208 922 q 324 911 301 922 q 368 887 347 900 q 408 863 389 874 q 450 851 428 851 q 511 926 508 851 l 572 926 q 544 821 572 861 q 458 781 517 781 q 402 792 428 781 q 354 815 376 803 q 313 839 332 828 q 275 850 293 850 q 214 775 215 850 l 153 775 z "},"ò":{"ha":718,"x_min":53,"x_max":664,"o":"m 664 333 q 640 187 664 251 q 575 78 617 122 q 477 10 533 33 q 357 -12 421 -12 q 236 9 292 -12 q 140 73 181 31 q 76 177 100 115 q 53 319 53 239 q 77 465 53 401 q 143 573 101 529 q 241 639 185 617 q 363 661 297 661 q 482 640 426 661 q 578 578 538 619 q 641 475 618 536 q 664 333 664 414 m 563 326 q 545 444 563 394 q 499 524 528 493 q 434 570 471 556 q 358 585 397 585 q 283 571 319 585 q 217 526 246 557 q 172 447 189 496 q 154 326 154 397 q 172 206 154 256 q 218 124 189 156 q 285 78 247 93 q 361 64 322 64 q 436 77 400 64 q 501 122 472 90 q 546 203 529 153 q 563 326 563 253 m 232 958 l 347 958 l 451 772 l 372 772 l 232 958 z "},"ó":{"ha":718,"x_min":53,"x_max":664,"o":"m 664 333 q 640 187 664 251 q 575 78 617 122 q 477 10 533 33 q 357 -12 421 -12 q 236 9 292 -12 q 140 73 181 31 q 76 177 100 115 q 53 319 53 239 q 77 465 53 401 q 143 573 101 529 q 241 639 185 617 q 363 661 297 661 q 482 640 426 661 q 578 578 538 619 q 641 475 618 536 q 664 333 664 414 m 563 326 q 545 444 563 394 q 499 524 528 493 q 434 570 471 556 q 358 585 397 585 q 283 571 319 585 q 217 526 246 557 q 172 447 189 496 q 154 326 154 397 q 172 206 154 256 q 218 124 189 156 q 285 78 247 93 q 361 64 322 64 q 436 77 400 64 q 501 122 472 90 q 546 203 529 153 q 563 326 563 253 m 354 772 l 275 772 l 379 958 l 494 958 l 354 772 z "},"ô":{"ha":718,"x_min":53,"x_max":664,"o":"m 664 333 q 640 187 664 251 q 575 78 617 122 q 477 10 533 33 q 357 -12 421 -12 q 236 9 292 -12 q 140 73 181 31 q 76 177 100 115 q 53 319 53 239 q 77 465 53 401 q 143 573 101 529 q 241 639 185 617 q 363 661 297 661 q 482 640 426 661 q 578 578 538 619 q 641 475 618 536 q 664 333 664 414 m 563 326 q 545 444 563 394 q 499 524 528 493 q 434 570 471 556 q 358 585 397 585 q 283 571 319 585 q 217 526 246 557 q 172 447 189 496 q 154 326 154 397 q 172 206 154 256 q 218 124 189 156 q 285 78 247 93 q 361 64 322 64 q 436 77 400 64 q 501 122 472 90 q 546 203 529 153 q 563 326 563 253 m 558 772 l 467 772 l 360 899 l 250 772 l 156 772 l 318 958 l 400 958 l 558 772 z "},"õ":{"ha":718,"x_min":53,"x_max":664,"o":"m 664 333 q 640 187 664 251 q 575 78 617 122 q 477 10 533 33 q 357 -12 421 -12 q 236 9 292 -12 q 140 73 181 31 q 76 177 100 115 q 53 319 53 239 q 77 465 53 401 q 143 573 101 529 q 241 639 185 617 q 363 661 297 661 q 482 640 426 661 q 578 578 538 619 q 641 475 618 536 q 664 333 664 414 m 563 326 q 545 444 563 394 q 499 524 528 493 q 434 570 471 556 q 358 585 397 585 q 283 571 319 585 q 217 526 246 557 q 172 447 189 496 q 154 326 154 397 q 172 206 154 256 q 218 124 189 156 q 285 78 247 93 q 361 64 322 64 q 436 77 400 64 q 501 122 472 90 q 546 203 529 153 q 563 326 563 253 m 151 775 q 179 881 151 840 q 271 922 207 922 q 323 911 300 922 q 367 887 346 900 q 407 863 388 874 q 449 851 426 851 q 510 926 507 851 l 571 926 q 543 821 571 861 q 457 781 515 781 q 401 792 426 781 q 353 815 375 803 q 311 839 331 828 q 274 850 292 850 q 213 775 214 850 l 151 775 z "},"ö":{"ha":718,"x_min":53,"x_max":664,"o":"m 664 333 q 640 187 664 251 q 575 78 617 122 q 477 10 533 33 q 357 -12 421 -12 q 236 9 292 -12 q 140 73 181 31 q 76 177 100 115 q 53 319 53 239 q 77 465 53 401 q 143 573 101 529 q 241 639 185 617 q 363 661 297 661 q 482 640 426 661 q 578 578 538 619 q 641 475 618 536 q 664 333 664 414 m 563 326 q 545 444 563 394 q 499 524 528 493 q 434 570 471 556 q 358 585 397 585 q 283 571 319 585 q 217 526 246 557 q 172 447 189 496 q 154 326 154 397 q 172 206 154 256 q 218 124 189 156 q 285 78 247 93 q 361 64 322 64 q 436 77 400 64 q 501 122 472 90 q 546 203 529 153 q 563 326 563 253 m 176 865 q 194 910 176 892 q 239 929 213 929 q 283 910 264 929 q 301 865 301 892 q 283 817 301 836 q 239 799 264 799 q 194 817 213 799 q 176 865 176 836 m 410 865 q 428 910 410 892 q 472 929 446 929 q 516 910 497 929 q 535 865 535 892 q 516 817 535 836 q 472 799 497 799 q 428 817 446 799 q 410 865 410 836 z "},"ø":{"ha":718,"x_min":53,"x_max":664,"o":"m 494 790 l 546 778 l 500 632 q 619 522 574 596 q 664 333 664 449 q 640 187 664 251 q 575 78 617 122 q 477 10 533 33 q 357 -12 421 -12 q 292 -6 324 -12 l 254 -125 l 203 -111 l 242 8 q 105 117 157 40 q 53 319 53 194 q 77 465 53 401 q 143 573 101 529 q 241 639 185 617 q 363 661 297 661 q 450 650 406 661 l 494 790 m 358 585 q 283 571 319 585 q 217 526 246 557 q 172 447 189 496 q 154 326 154 397 q 187 169 154 226 q 268 86 219 111 l 422 574 q 358 585 392 585 m 563 326 q 536 466 563 411 q 469 549 510 521 l 318 68 q 361 64 339 64 q 436 77 400 64 q 501 122 472 90 q 546 203 529 153 q 563 326 563 253 z "},"ù":{"ha":724,"x_min":94,"x_max":629,"o":"m 532 653 l 629 653 l 629 0 l 556 0 l 542 82 l 538 82 q 447 15 501 43 q 321 -12 393 -12 q 157 44 219 -12 q 94 217 94 100 l 94 653 l 192 653 l 192 232 q 203 151 192 183 q 234 100 214 119 q 281 73 254 81 q 340 65 308 65 q 449 92 400 65 q 532 160 499 118 l 532 653 m 218 958 l 333 958 l 438 772 l 358 772 l 218 958 z "},"ú":{"ha":724,"x_min":94,"x_max":629,"o":"m 532 653 l 629 653 l 629 0 l 556 0 l 542 82 l 538 82 q 447 15 501 43 q 321 -12 393 -12 q 157 44 219 -12 q 94 217 94 100 l 94 653 l 192 653 l 192 232 q 203 151 192 183 q 234 100 214 119 q 281 73 254 81 q 340 65 308 65 q 449 92 400 65 q 532 160 499 118 l 532 653 m 361 772 l 282 772 l 386 958 l 501 958 l 361 772 z "},"û":{"ha":724,"x_min":94,"x_max":629,"o":"m 532 653 l 629 653 l 629 0 l 556 0 l 542 82 l 538 82 q 447 15 501 43 q 321 -12 393 -12 q 157 44 219 -12 q 94 217 94 100 l 94 653 l 192 653 l 192 232 q 203 151 192 183 q 234 100 214 119 q 281 73 254 81 q 340 65 308 65 q 449 92 400 65 q 532 160 499 118 l 532 653 m 560 772 l 468 772 l 361 899 l 251 772 l 157 772 l 319 958 l 401 958 l 560 772 z "},"ü":{"ha":724,"x_min":94,"x_max":629,"o":"m 532 653 l 629 653 l 629 0 l 556 0 l 542 82 l 538 82 q 447 15 501 43 q 321 -12 393 -12 q 157 44 219 -12 q 94 217 94 100 l 94 653 l 192 653 l 192 232 q 203 151 192 183 q 234 100 214 119 q 281 73 254 81 q 340 65 308 65 q 449 92 400 65 q 532 160 499 118 l 532 653 m 182 865 q 200 910 182 892 q 244 929 218 929 q 289 910 271 929 q 307 865 307 892 q 289 817 307 836 q 244 799 271 799 q 200 817 218 799 q 182 865 182 836 m 415 865 q 433 910 415 892 q 478 929 451 929 q 522 910 504 929 q 540 865 540 892 q 522 817 540 836 q 478 799 504 799 q 433 817 451 799 q 415 865 415 836 z "},"ý":{"ha":613,"x_min":13,"x_max":603,"o":"m 13 653 l 115 653 l 269 249 l 318 97 l 321 97 l 365 249 l 506 653 l 603 653 l 351 -56 q 250 -233 311 -168 q 106 -329 189 -297 l 64 -254 q 182 -178 132 -226 q 264 -37 232 -129 l 276 0 l 13 653 m 314 772 l 235 772 l 339 958 l 454 958 l 314 772 z "},"þ":{"ha":718,"x_min":96,"x_max":663,"o":"m 663 329 q 640 188 663 251 q 577 81 617 125 q 485 12 538 36 q 372 -12 432 -12 q 269 -1 313 -12 q 189 40 225 11 l 189 -222 l 96 -222 l 96 986 l 189 986 l 189 575 q 284 641 232 621 q 392 661 336 661 q 590 574 517 661 q 663 329 663 488 m 563 328 q 510 514 563 446 q 367 582 458 582 q 269 558 314 582 q 189 493 225 535 l 189 128 q 258 79 217 96 q 340 63 299 63 q 424 78 383 63 q 494 126 464 94 q 544 208 525 158 q 563 328 563 258 z "},"ÿ":{"ha":613,"x_min":13,"x_max":603,"o":"m 13 653 l 115 653 l 268 249 l 318 96 l 321 96 l 367 249 l 506 653 l 603 653 l 351 -56 q 250 -233 311 -168 q 106 -329 189 -297 l 64 -254 q 183 -178 132 -226 q 265 -37 233 -129 l 278 0 l 13 653 m 131 865 q 149 910 131 892 q 193 929 167 929 q 237 910 218 929 q 256 865 256 892 q 237 817 256 836 q 193 799 218 799 q 149 817 167 799 q 131 865 131 836 m 364 865 q 382 910 364 892 q 426 929 400 929 q 470 910 451 929 q 489 865 489 892 q 470 817 489 836 q 426 799 451 799 q 382 817 400 799 q 364 865 364 836 z "},"¬":{"ha":2007,"x_min":0,"x_max":0,"o":""},"˘":{"ha":410,"x_min":21,"x_max":394,"o":"m 97 944 q 124 867 100 896 q 208 838 147 838 q 288 865 260 838 q 318 944 315 893 l 394 944 q 347 821 394 869 q 208 772 299 772 q 123 787 158 772 q 65 825 88 801 q 31 880 42 849 q 21 944 21 911 l 97 944 z "},"ˇ":{"ha":481,"x_min":39,"x_max":450,"o":"m 39 958 l 132 958 l 242 831 l 353 958 l 450 958 l 283 772 l 201 772 l 39 958 z "},"ˉ":{"ha":397,"x_min":43,"x_max":356,"o":"m 356 917 l 356 851 l 43 851 l 43 917 l 356 917 z "},"˙":{"ha":215,"x_min":42,"x_max":174,"o":"m 42 876 q 60 924 42 904 q 107 944 79 944 q 154 924 135 944 q 174 876 174 904 q 154 826 174 846 q 107 807 135 807 q 60 826 79 807 q 42 876 42 846 z "},"˝":{"ha":426,"x_min":22,"x_max":478,"o":"m 99 772 l 22 772 l 136 958 l 249 958 l 99 772 m 328 772 l 251 772 l 365 958 l 478 958 l 328 772 z "},"¯":{"ha":397,"x_min":43,"x_max":356,"o":"m 356 917 l 356 851 l 43 851 l 43 917 l 356 917 z "},"˛":{"ha":347,"x_min":35,"x_max":294,"o":"m 250 0 q 153 -63 190 -32 q 117 -139 117 -94 q 142 -196 117 -175 q 207 -217 167 -217 q 247 -213 229 -217 q 279 -204 265 -210 l 294 -257 q 245 -278 272 -271 q 186 -286 218 -286 q 78 -251 122 -286 q 35 -151 35 -217 q 45 -101 35 -125 q 72 -58 56 -78 q 108 -24 88 -39 q 149 0 128 -10 l 250 0 z "},"˚":{"ha":342,"x_min":40,"x_max":294,"o":"m 40 865 q 78 952 40 924 q 168 981 117 981 q 258 952 221 981 q 294 865 294 924 q 284 815 294 836 q 256 778 274 793 q 215 757 238 764 q 168 750 193 750 q 79 780 118 750 q 40 865 40 810 m 100 865 q 117 813 100 833 q 168 792 133 792 q 219 813 201 792 q 236 865 236 833 q 218 917 236 897 q 168 938 200 938 q 117 917 135 938 q 100 865 100 897 z "},"Ă":{"ha":810,"x_min":17,"x_max":793,"o":"m 293 1158 q 319 1081 296 1110 q 404 1051 343 1051 q 483 1079 456 1051 q 513 1158 510 1107 l 589 1158 q 542 1035 589 1083 q 404 986 494 986 q 319 1001 354 986 q 260 1039 283 1015 q 226 1094 238 1063 q 215 1158 215 1125 l 293 1158 m 244 331 l 561 331 l 492 518 q 451 628 472 567 q 407 764 431 690 l 404 764 q 382 696 393 728 q 360 635 371 664 q 340 577 350 606 q 317 518 329 549 l 244 331 m 361 875 l 454 875 l 793 0 l 688 0 l 592 250 l 217 250 l 121 0 l 17 0 l 361 875 z "},"Ā":{"ha":810,"x_min":17,"x_max":793,"o":"m 574 1072 l 574 1000 l 233 1000 l 233 1072 l 574 1072 m 244 331 l 561 331 l 492 518 q 451 628 472 567 q 407 764 431 690 l 404 764 q 382 696 393 728 q 360 635 371 664 q 340 577 350 606 q 317 518 329 549 l 244 331 m 361 875 l 454 875 l 793 0 l 688 0 l 592 250 l 217 250 l 121 0 l 17 0 l 361 875 z "},"Ą":{"ha":811,"x_min":17,"x_max":833,"o":"m 361 875 l 454 875 l 793 0 q 688 -65 721 -32 q 656 -139 656 -99 q 679 -197 656 -176 q 744 -217 703 -217 q 818 -203 788 -217 l 833 -257 q 722 -286 785 -286 q 616 -251 658 -286 q 574 -151 574 -217 q 608 -60 574 -99 q 688 0 642 -21 l 592 250 l 217 250 l 121 0 l 17 0 l 361 875 m 244 331 l 561 331 l 492 518 q 451 628 472 567 q 407 764 431 690 l 404 764 q 382 696 393 728 q 360 635 371 664 q 340 577 350 606 q 317 518 329 549 l 244 331 z "},"Ǽ":{"ha":1081,"x_min":13,"x_max":1019,"o":"m 13 0 l 463 875 l 1015 875 l 1015 793 l 622 793 l 622 493 l 979 493 l 979 411 l 622 411 l 622 82 l 1019 82 l 1019 0 l 525 0 l 525 256 l 253 256 l 126 0 l 13 0 m 525 801 l 289 333 l 525 333 l 525 801 m 572 986 l 493 986 l 611 1158 l 726 1158 l 572 986 z "},"Ć":{"ha":756,"x_min":56,"x_max":710,"o":"m 483 69 q 597 82 551 69 q 682 114 642 94 l 706 33 q 605 -1 660 11 q 471 -12 550 -12 q 309 17 385 -12 q 177 103 233 46 q 88 243 121 160 q 56 436 56 326 q 87 627 56 543 q 174 769 118 711 q 307 856 231 826 q 474 886 383 886 q 610 873 556 886 q 710 836 664 860 l 686 758 q 592 793 638 782 q 489 804 547 804 q 365 783 424 804 q 261 718 306 763 q 190 603 217 674 q 163 435 163 533 q 190 264 163 333 q 262 151 217 194 q 365 89 307 108 q 483 69 422 69 m 426 986 l 347 986 l 465 1158 l 581 1158 l 426 986 z "},"Č":{"ha":760,"x_min":56,"x_max":710,"o":"m 483 69 q 597 82 551 69 q 682 114 642 94 l 706 33 q 605 -1 660 11 q 471 -12 550 -12 q 309 17 385 -12 q 177 103 233 46 q 88 243 121 160 q 56 436 56 326 q 87 627 56 543 q 174 769 118 711 q 307 856 231 826 q 474 886 383 886 q 610 873 556 886 q 710 836 664 860 l 686 758 q 592 793 638 782 q 489 804 547 804 q 365 783 424 804 q 261 718 306 763 q 190 603 217 674 q 163 435 163 533 q 190 264 163 333 q 262 151 217 194 q 365 89 307 108 q 483 69 422 69 m 258 1174 l 353 1174 l 469 1044 l 586 1174 l 683 1174 l 510 988 l 428 988 l 258 1174 z "},"Ĉ":{"ha":756,"x_min":56,"x_max":710,"o":"m 483 69 q 597 82 551 69 q 682 114 642 94 l 706 33 q 605 -1 660 11 q 471 -12 550 -12 q 309 17 385 -12 q 177 103 233 46 q 88 243 121 160 q 56 436 56 326 q 87 627 56 543 q 174 769 118 711 q 307 856 231 826 q 474 886 383 886 q 610 873 556 886 q 710 836 664 860 l 686 758 q 592 793 638 782 q 489 804 547 804 q 365 783 424 804 q 261 718 306 763 q 190 603 217 674 q 163 435 163 533 q 190 264 163 333 q 262 151 217 194 q 365 89 307 108 q 483 69 422 69 m 421 1172 l 503 1172 l 676 986 l 579 986 l 461 1113 l 343 986 l 251 986 l 421 1172 z "},"Ċ":{"ha":756,"x_min":56,"x_max":710,"o":"m 483 69 q 597 82 551 69 q 682 114 642 94 l 706 33 q 605 -1 660 11 q 471 -12 550 -12 q 309 17 385 -12 q 177 103 233 46 q 88 243 121 160 q 56 436 56 326 q 87 627 56 543 q 174 769 118 711 q 307 856 231 826 q 474 886 383 886 q 610 873 556 886 q 710 836 664 860 l 686 758 q 592 793 638 782 q 489 804 547 804 q 365 783 424 804 q 261 718 306 763 q 190 603 217 674 q 163 435 163 533 q 190 264 163 333 q 262 151 217 194 q 365 89 307 108 q 483 69 422 69 m 403 1072 q 422 1121 403 1100 q 469 1142 442 1142 q 517 1121 497 1142 q 536 1072 536 1100 q 517 1022 536 1042 q 469 1003 497 1003 q 422 1022 442 1003 q 403 1072 403 1042 z "},"Ď":{"ha":864,"x_min":111,"x_max":800,"o":"m 382 875 q 548 849 471 875 q 681 770 625 822 q 768 640 736 718 q 800 457 800 561 q 763 243 800 331 q 661 101 725 156 q 513 24 597 47 q 333 0 428 0 l 111 0 l 111 875 l 382 875 m 211 82 l 321 82 q 457 98 390 82 q 576 156 524 114 q 661 272 629 199 q 693 457 693 344 q 669 600 693 538 q 601 706 644 663 q 494 771 557 749 q 357 793 432 793 l 211 793 l 211 82 m 171 1172 l 263 1172 l 381 1046 l 499 1172 l 596 1172 l 422 986 l 340 986 l 171 1172 z "},"Đ":{"ha":906,"x_min":42,"x_max":842,"o":"m 424 875 q 590 849 513 875 q 722 770 667 822 q 810 640 778 718 q 842 457 842 561 q 804 243 842 331 q 703 101 767 156 q 554 24 639 47 q 375 0 469 0 l 153 0 l 153 421 l 42 421 l 42 493 l 153 493 l 153 875 l 424 875 m 458 493 l 458 421 l 253 421 l 253 82 l 363 82 q 499 98 432 82 q 618 156 565 114 q 703 272 671 199 q 735 457 735 344 q 710 600 735 538 q 642 706 686 663 q 536 771 599 749 q 399 793 474 793 l 253 793 l 253 493 l 458 493 z "},"Ĕ":{"ha":686,"x_min":111,"x_max":629,"o":"m 111 875 l 625 875 l 625 793 l 211 793 l 211 493 l 589 493 l 589 411 l 211 411 l 211 82 l 629 82 l 629 0 l 111 0 l 111 875 m 267 1167 q 293 1089 269 1118 q 378 1060 317 1060 q 456 1088 429 1060 q 486 1167 483 1115 l 563 1167 q 515 1043 563 1092 q 378 994 468 994 q 292 1009 328 994 q 234 1047 257 1024 q 200 1102 211 1071 q 189 1167 189 1133 l 267 1167 z "},"Ě":{"ha":686,"x_min":111,"x_max":629,"o":"m 111 875 l 625 875 l 625 793 l 211 793 l 211 493 l 589 493 l 589 411 l 211 411 l 211 82 l 629 82 l 629 0 l 111 0 l 111 875 m 168 1174 l 263 1174 l 379 1044 l 497 1174 l 593 1174 l 419 988 l 338 988 l 168 1174 z "},"Ė":{"ha":686,"x_min":111,"x_max":629,"o":"m 111 875 l 625 875 l 625 793 l 211 793 l 211 493 l 589 493 l 589 411 l 211 411 l 211 82 l 629 82 l 629 0 l 111 0 l 111 875 m 314 1072 q 333 1121 314 1100 q 381 1142 353 1142 q 428 1121 408 1142 q 447 1072 447 1100 q 428 1022 447 1042 q 381 1003 408 1003 q 333 1022 353 1003 q 314 1072 314 1042 z "},"Ē":{"ha":686,"x_min":111,"x_max":629,"o":"m 111 875 l 625 875 l 625 793 l 211 793 l 211 493 l 589 493 l 589 411 l 211 411 l 211 82 l 629 82 l 629 0 l 111 0 l 111 875 m 542 1072 l 542 1000 l 201 1000 l 201 1072 l 542 1072 z "},"Ę":{"ha":686,"x_min":111,"x_max":665,"o":"m 629 0 q 525 -61 563 -26 q 488 -140 488 -96 q 512 -197 488 -176 q 576 -217 536 -217 q 650 -203 619 -217 l 665 -257 q 554 -286 617 -286 q 448 -251 490 -286 q 406 -151 406 -217 q 438 -60 406 -99 q 518 -3 471 -22 l 518 0 l 111 0 l 111 875 l 625 875 l 625 793 l 211 793 l 211 493 l 589 493 l 589 411 l 211 411 l 211 82 l 629 82 l 629 0 z "},"Ğ":{"ha":832,"x_min":63,"x_max":751,"o":"m 488 886 q 621 875 563 886 q 732 836 679 864 l 707 757 q 608 793 658 781 q 503 806 557 806 q 376 786 436 806 q 269 723 315 767 q 196 608 224 679 q 168 436 168 538 q 192 280 168 349 q 259 165 215 211 q 363 94 303 118 q 496 69 422 69 q 588 76 549 69 q 656 94 628 83 l 656 372 l 479 372 l 479 450 l 751 450 l 751 35 q 640 1 700 14 q 492 -12 579 -12 q 325 17 403 -12 q 189 103 247 46 q 97 243 131 160 q 63 436 63 326 q 94 631 63 546 q 183 772 126 715 q 318 857 240 828 q 488 886 396 886 m 381 1175 q 407 1097 383 1126 q 492 1068 431 1068 q 570 1096 543 1068 q 600 1175 597 1124 l 676 1175 q 629 1051 676 1100 q 492 1003 582 1003 q 406 1017 442 1003 q 348 1056 371 1032 q 314 1110 325 1079 q 303 1175 303 1142 l 381 1175 z "},"Ĝ":{"ha":832,"x_min":63,"x_max":751,"o":"m 488 886 q 621 875 563 886 q 732 836 679 864 l 707 757 q 608 793 658 781 q 503 806 557 806 q 376 786 436 806 q 269 723 315 767 q 196 608 224 679 q 168 436 168 538 q 192 280 168 349 q 259 165 215 211 q 363 94 303 118 q 496 69 422 69 q 588 76 549 69 q 656 94 628 83 l 656 372 l 479 372 l 479 450 l 751 450 l 751 35 q 640 1 700 14 q 492 -12 579 -12 q 325 17 403 -12 q 189 103 247 46 q 97 243 131 160 q 63 436 63 326 q 94 631 63 546 q 183 772 126 715 q 318 857 240 828 q 488 886 396 886 m 438 1172 l 519 1172 l 693 986 l 596 986 l 478 1113 l 360 986 l 268 986 l 438 1172 z "},"Ģ":{"ha":832,"x_min":63,"x_max":751,"o":"m 488 886 q 621 875 563 886 q 732 836 679 864 l 707 757 q 608 793 657 781 q 503 806 558 806 q 376 786 436 806 q 269 723 315 767 q 196 608 224 679 q 168 436 168 538 q 192 280 168 349 q 259 165 215 211 q 363 94 303 118 q 496 69 422 69 q 588 76 549 69 q 656 94 628 83 l 656 372 l 479 372 l 479 450 l 751 450 l 751 35 q 640 1 700 14 q 492 -12 579 -12 q 325 17 403 -12 q 189 103 247 46 q 97 243 131 160 q 63 436 63 326 q 94 631 63 546 q 183 772 126 715 q 318 857 240 828 q 488 886 396 886 m 475 -256 q 433 -233 453 -251 q 413 -182 413 -215 q 431 -133 413 -153 q 482 -112 450 -112 q 510 -118 496 -112 q 537 -136 525 -124 q 556 -169 549 -149 q 564 -219 564 -189 q 553 -282 564 -251 q 522 -340 542 -312 q 476 -392 503 -368 q 421 -431 450 -415 l 389 -387 q 458 -330 429 -365 q 492 -260 486 -294 l 475 -256 z "},"Ġ":{"ha":832,"x_min":63,"x_max":751,"o":"m 488 886 q 621 875 563 886 q 732 836 679 864 l 707 757 q 608 793 658 781 q 503 806 557 806 q 376 786 436 806 q 269 723 315 767 q 196 608 224 679 q 168 436 168 538 q 192 280 168 349 q 259 165 215 211 q 363 94 303 118 q 496 69 422 69 q 588 76 549 69 q 656 94 628 83 l 656 372 l 479 372 l 479 450 l 751 450 l 751 35 q 640 1 700 14 q 492 -12 579 -12 q 325 17 403 -12 q 189 103 247 46 q 97 243 131 160 q 63 436 63 326 q 94 631 63 546 q 183 772 126 715 q 318 857 240 828 q 488 886 396 886 m 422 1072 q 442 1121 422 1100 q 489 1142 461 1142 q 536 1121 517 1142 q 556 1072 556 1100 q 536 1022 556 1042 q 489 1003 517 1003 q 442 1022 461 1003 q 422 1072 422 1042 z "},"Ħ":{"ha":892,"x_min":28,"x_max":865,"o":"m 865 750 l 865 678 l 768 678 l 768 0 l 668 0 l 668 411 l 225 411 l 225 0 l 125 0 l 125 678 l 28 678 l 28 750 l 125 750 l 125 875 l 225 875 l 225 750 l 668 750 l 668 875 l 768 875 l 768 750 l 865 750 m 668 494 l 668 678 l 225 678 l 225 494 l 668 494 z "},"Ĥ":{"ha":864,"x_min":111,"x_max":754,"o":"m 111 0 l 111 875 l 211 875 l 211 494 l 654 494 l 654 875 l 754 875 l 754 0 l 654 0 l 654 411 l 211 411 l 211 0 l 111 0 m 393 1172 l 475 1172 l 649 986 l 551 986 l 433 1113 l 315 986 l 224 986 l 393 1172 z "},"Ĭ":{"ha":321,"x_min":-26,"x_max":347,"o":"m 211 875 l 211 0 l 111 0 l 111 875 l 211 875 m 51 1158 q 78 1081 54 1110 q 163 1051 101 1051 q 241 1079 214 1051 q 271 1158 268 1107 l 347 1158 q 300 1035 347 1083 q 163 986 253 986 q 77 1001 113 986 q 19 1039 42 1015 q -15 1094 -4 1063 q -26 1158 -26 1125 l 51 1158 z "},"İ":{"ha":350,"x_min":93,"x_max":226,"o":"m 211 875 l 211 0 l 111 0 l 111 875 l 211 875 m 93 1072 q 113 1121 93 1100 q 160 1142 132 1142 q 207 1121 188 1142 q 226 1072 226 1100 q 207 1022 226 1042 q 160 1003 188 1003 q 113 1022 132 1003 q 93 1072 93 1042 z "},"Ī":{"ha":321,"x_min":-7,"x_max":333,"o":"m 211 875 l 211 0 l 111 0 l 111 875 l 211 875 m 333 1072 l 333 1000 l -7 1000 l -7 1072 l 333 1072 z "},"Į":{"ha":321,"x_min":3,"x_max":263,"o":"m 211 0 q 118 -63 151 -32 q 85 -139 85 -94 q 110 -196 85 -175 q 175 -217 135 -217 q 215 -213 197 -217 q 247 -204 233 -210 l 263 -257 q 213 -278 240 -271 q 154 -286 186 -286 q 47 -251 90 -286 q 3 -150 3 -215 q 35 -59 3 -97 q 111 0 68 -21 l 111 875 l 211 875 l 211 0 z "},"Ĩ":{"ha":321,"x_min":-56,"x_max":365,"o":"m 211 875 l 211 0 l 111 0 l 111 875 l 211 875 m -56 990 q -27 1094 -56 1051 q 65 1136 1 1136 q 118 1126 96 1136 q 160 1102 140 1115 q 199 1078 181 1089 q 242 1068 218 1068 q 287 1090 274 1068 q 303 1140 300 1111 l 365 1140 q 358 1087 365 1113 q 337 1041 351 1061 q 301 1008 322 1021 q 250 996 279 996 q 193 1006 218 996 q 147 1030 168 1017 q 106 1053 125 1043 q 69 1064 88 1064 q 24 1042 38 1064 q 7 990 10 1021 l -56 990 z "},"Ĳ":{"ha":649,"x_min":111,"x_max":549,"o":"m 211 875 l 211 0 l 111 0 l 111 875 l 211 875 m 549 875 l 549 151 q 540 3 549 60 q 500 -97 531 -54 q 453 -146 481 -126 q 396 -178 426 -165 q 332 -196 365 -190 q 268 -201 299 -201 l 268 -124 q 343 -110 311 -122 q 399 -76 375 -99 q 439 -3 429 -47 q 449 94 449 42 l 449 875 l 549 875 z "},"Ĵ":{"ha":360,"x_min":-21,"x_max":428,"o":"m 260 875 l 260 151 q 250 3 260 60 q 210 -97 240 -54 q 163 -146 190 -126 q 106 -178 136 -165 q 42 -196 75 -190 q -21 -201 10 -201 l -21 -124 q 108 -76 61 -122 q 150 -3 140 -47 q 160 94 160 42 l 160 875 l 260 875 m 172 1172 l 254 1172 l 428 986 l 331 986 l 213 1113 l 94 986 l 3 986 l 172 1172 z "},"Ķ":{"ha":765,"x_min":111,"x_max":758,"o":"m 111 0 l 111 875 l 211 875 l 211 451 l 603 875 l 728 875 l 368 489 l 758 0 l 632 0 l 299 421 l 211 326 l 211 0 l 111 0 m 399 -256 q 356 -233 376 -251 q 336 -182 336 -215 q 355 -133 336 -153 q 406 -112 374 -112 q 434 -118 419 -112 q 460 -136 449 -124 q 480 -169 472 -149 q 488 -219 488 -189 q 476 -282 488 -251 q 446 -340 465 -312 q 400 -392 426 -368 q 344 -431 374 -415 l 313 -387 q 381 -330 353 -365 q 415 -260 410 -294 l 399 -256 z "},"Ĺ":{"ha":619,"x_min":111,"x_max":599,"o":"m 111 875 l 211 875 l 211 83 l 599 83 l 599 0 l 111 0 l 111 875 m 197 986 l 118 986 l 236 1158 l 351 1158 l 197 986 z "},"Ľ":{"ha":619,"x_min":111,"x_max":599,"o":"m 111 875 l 211 875 l 211 83 l 599 83 l 599 0 l 111 0 l 111 875 m 438 867 q 394 889 414 871 q 375 940 375 907 q 394 990 375 969 q 444 1010 413 1010 q 473 1004 458 1010 q 499 986 488 999 q 519 953 511 974 q 526 903 526 933 q 515 840 526 871 q 485 782 504 810 q 439 731 465 754 q 382 692 413 707 l 351 735 q 420 792 392 757 q 453 863 449 828 l 438 867 z "},"Ļ":{"ha":619,"x_min":111,"x_max":599,"o":"m 111 875 l 211 875 l 211 83 l 599 83 l 599 0 l 111 0 l 111 875 m 351 -257 q 309 -235 329 -253 q 289 -183 289 -217 q 308 -134 289 -154 q 358 -114 326 -114 q 387 -119 372 -114 q 413 -137 401 -125 q 433 -170 425 -150 q 440 -221 440 -190 q 429 -283 440 -253 q 399 -342 418 -314 q 353 -393 379 -369 q 297 -432 326 -417 l 265 -389 q 334 -331 306 -367 q 368 -261 363 -296 l 351 -257 z "},"Ŀ":{"ha":619,"x_min":111,"x_max":599,"o":"m 111 875 l 211 875 l 211 83 l 599 83 l 599 0 l 111 0 l 111 875 m 360 460 q 379 513 360 492 q 429 533 399 533 q 476 513 457 533 q 496 460 496 492 q 476 407 496 428 q 429 386 457 386 q 379 407 399 386 q 360 460 360 428 z "},"Ł":{"ha":619,"x_min":-40,"x_max":599,"o":"m 426 682 l 468 631 l 211 415 l 211 83 l 599 83 l 599 0 l 111 0 l 111 349 l 1 258 l -40 310 l 111 436 l 111 875 l 211 875 l 211 501 l 426 682 z "},"Ń":{"ha":899,"x_min":111,"x_max":789,"o":"m 449 986 l 369 986 l 488 1158 l 603 1158 l 449 986 m 111 875 l 201 875 l 592 310 q 644 232 618 271 q 693 154 669 193 l 696 154 q 692 256 693 206 q 692 358 692 307 l 692 875 l 789 875 l 789 0 l 699 0 l 317 549 q 259 638 288 590 q 206 733 231 686 l 203 733 q 207 610 206 671 q 208 488 208 550 l 208 0 l 111 0 l 111 875 z "},"Ň":{"ha":899,"x_min":111,"x_max":789,"o":"m 258 1174 l 353 1174 l 469 1044 l 586 1174 l 683 1174 l 510 988 l 428 988 l 258 1174 m 111 875 l 201 875 l 592 310 q 644 232 618 271 q 693 154 669 193 l 696 154 q 692 256 693 206 q 692 358 692 307 l 692 875 l 789 875 l 789 0 l 699 0 l 317 549 q 259 638 288 590 q 206 733 231 686 l 203 733 q 207 610 206 671 q 208 488 208 550 l 208 0 l 111 0 l 111 875 z "},"Ņ":{"ha":899,"x_min":111,"x_max":789,"o":"m 442 -257 q 399 -235 419 -253 q 379 -183 379 -217 q 398 -134 379 -154 q 449 -114 417 -114 q 477 -119 463 -114 q 503 -137 492 -125 q 523 -170 515 -150 q 531 -221 531 -190 q 519 -283 531 -253 q 489 -342 508 -314 q 443 -393 469 -369 q 388 -432 417 -417 l 356 -389 q 424 -331 396 -367 q 458 -261 453 -296 l 442 -257 m 111 875 l 201 875 l 592 310 q 644 232 618 271 q 693 154 669 193 l 696 154 q 692 256 693 206 q 692 358 692 307 l 692 875 l 789 875 l 789 0 l 699 0 l 317 549 q 259 638 288 590 q 206 733 231 686 l 203 733 q 207 610 206 671 q 208 488 208 550 l 208 0 l 111 0 l 111 875 z "},"Ŏ":{"ha":925,"x_min":64,"x_max":861,"o":"m 465 886 q 622 858 549 886 q 747 774 694 831 q 831 634 800 718 q 861 438 861 550 q 830 244 861 328 q 744 103 799 160 q 617 17 690 46 q 460 -12 543 -12 q 303 16 376 -12 q 178 101 231 44 q 94 241 125 157 q 64 438 64 325 q 95 631 64 547 q 181 771 126 714 q 308 857 235 828 q 465 886 381 886 m 171 438 q 194 274 171 343 q 258 158 218 204 q 352 90 299 113 q 465 68 406 68 q 577 90 525 68 q 669 158 629 113 q 731 274 708 204 q 754 438 754 343 q 731 603 754 533 q 667 718 707 674 q 573 784 626 763 q 460 806 519 806 q 348 783 400 806 q 256 715 296 761 q 194 600 217 669 q 171 438 171 531 m 353 1158 q 378 1081 356 1110 q 461 1051 400 1051 q 541 1079 513 1051 q 572 1158 569 1107 l 649 1158 q 600 1035 649 1083 q 461 986 551 986 q 376 1001 411 986 q 319 1039 342 1015 q 285 1094 296 1063 q 275 1158 275 1125 l 353 1158 z "},"Ő":{"ha":925,"x_min":64,"x_max":861,"o":"m 513 986 l 631 1158 l 742 1158 l 592 986 l 513 986 m 265 986 l 383 1158 l 494 1158 l 344 986 l 265 986 m 465 886 q 622 858 549 886 q 747 774 694 831 q 831 634 800 718 q 861 438 861 550 q 830 244 861 328 q 744 103 799 160 q 617 17 690 46 q 460 -12 543 -12 q 303 16 376 -12 q 178 101 231 44 q 94 241 125 157 q 64 438 64 325 q 95 631 64 547 q 181 771 126 714 q 308 857 235 828 q 465 886 381 886 m 171 438 q 194 274 171 343 q 258 158 218 204 q 352 90 299 113 q 465 68 406 68 q 577 90 525 68 q 669 158 629 113 q 731 274 708 204 q 754 438 754 343 q 731 603 754 533 q 667 718 707 674 q 573 784 626 763 q 460 806 519 806 q 348 783 400 806 q 256 715 296 761 q 194 600 217 669 q 171 438 171 531 z "},"Ō":{"ha":925,"x_min":64,"x_max":861,"o":"m 465 886 q 622 858 549 886 q 747 774 694 831 q 831 634 800 718 q 861 438 861 550 q 830 244 861 328 q 744 103 799 160 q 617 17 690 46 q 460 -12 543 -12 q 303 16 376 -12 q 178 101 231 44 q 94 241 125 157 q 64 438 64 325 q 95 631 64 547 q 181 771 126 714 q 308 857 235 828 q 465 886 381 886 m 171 438 q 194 274 171 343 q 258 158 218 204 q 352 90 299 113 q 465 68 406 68 q 577 90 525 68 q 669 158 629 113 q 731 274 708 204 q 754 438 754 343 q 731 603 754 533 q 667 718 707 674 q 573 784 626 763 q 460 806 519 806 q 348 783 400 806 q 256 715 296 761 q 194 600 217 669 q 171 438 171 531 m 636 1072 l 636 1000 l 296 1000 l 296 1072 l 636 1072 z "},"Ǿ":{"ha":925,"x_min":64,"x_max":861,"o":"m 433 986 l 354 986 l 472 1158 l 588 1158 l 433 986 m 686 1042 l 738 1024 l 664 838 q 807 688 753 788 q 861 438 861 589 q 830 244 861 328 q 744 103 799 160 q 617 17 690 46 q 460 -12 543 -12 q 390 -7 424 -12 q 325 8 356 -1 l 239 -207 l 188 -186 l 272 29 q 121 178 178 78 q 64 438 64 279 q 95 631 64 547 q 181 771 126 714 q 308 857 235 828 q 465 886 381 886 q 541 880 503 886 q 613 860 579 874 l 686 1042 m 171 438 q 209 235 171 315 q 310 114 247 154 l 578 782 q 460 806 522 806 q 348 783 400 806 q 256 715 296 761 q 194 600 217 669 q 171 438 171 531 m 465 68 q 577 90 525 68 q 669 158 629 113 q 731 274 708 204 q 754 438 754 343 q 719 634 754 556 q 626 754 685 713 l 360 88 q 465 68 411 68 z "},"Ŕ":{"ha":733,"x_min":111,"x_max":711,"o":"m 111 875 l 381 875 q 501 856 449 875 q 588 804 553 838 q 640 724 622 771 q 658 622 658 678 q 643 531 658 572 q 602 460 628 490 q 543 408 576 429 q 474 375 510 388 l 711 0 l 597 0 l 381 357 l 204 357 l 204 0 l 111 0 l 111 875 m 204 438 l 338 438 q 423 448 383 438 q 492 481 463 458 q 538 537 521 503 q 554 618 554 571 q 502 752 554 710 q 349 794 450 794 l 204 794 l 204 438 m 343 986 l 264 986 l 382 1158 l 497 1158 l 343 986 z "},"Ř":{"ha":733,"x_min":111,"x_max":711,"o":"m 111 875 l 381 875 q 501 856 449 875 q 588 804 553 838 q 640 724 622 771 q 658 622 658 678 q 643 531 658 572 q 602 460 628 490 q 543 408 576 429 q 474 375 510 388 l 711 0 l 597 0 l 381 357 l 204 357 l 204 0 l 111 0 l 111 875 m 204 438 l 338 438 q 423 448 383 438 q 492 481 463 458 q 538 537 521 503 q 554 618 554 571 q 502 752 554 710 q 349 794 450 794 l 204 794 l 204 438 m 135 1174 l 229 1174 l 346 1044 l 463 1174 l 560 1174 l 386 988 l 304 988 l 135 1174 z "},"Ŗ":{"ha":733,"x_min":111,"x_max":711,"o":"m 111 875 l 381 875 q 501 856 449 875 q 588 804 553 838 q 640 724 622 771 q 658 622 658 678 q 643 531 658 572 q 602 460 628 490 q 543 408 576 429 q 474 375 510 388 l 711 0 l 597 0 l 381 357 l 204 357 l 204 0 l 111 0 l 111 875 m 204 438 l 338 438 q 423 448 383 438 q 492 481 463 458 q 538 537 521 503 q 554 618 554 571 q 502 752 554 710 q 349 794 450 794 l 204 794 l 204 438 m 386 -257 q 344 -235 364 -253 q 324 -183 324 -217 q 342 -134 324 -154 q 393 -114 361 -114 q 422 -119 407 -114 q 448 -137 436 -125 q 467 -170 460 -150 q 475 -221 475 -190 q 464 -283 475 -253 q 433 -342 453 -314 q 388 -393 414 -369 q 332 -432 361 -417 l 300 -389 q 369 -331 340 -367 q 403 -261 397 -296 l 386 -257 z "},"Ś":{"ha":686,"x_min":63,"x_max":624,"o":"m 349 886 q 469 875 411 886 q 583 838 526 864 l 558 756 q 451 794 499 783 q 353 806 403 806 q 217 767 268 806 q 165 660 165 729 q 204 563 165 599 q 325 501 243 528 l 418 471 q 574 373 525 435 q 624 232 624 311 q 602 130 624 175 q 542 53 581 85 q 449 5 503 22 q 329 -12 394 -12 q 197 0 263 -12 q 64 43 131 13 l 90 125 q 205 83 149 96 q 324 69 261 69 q 465 107 408 69 q 521 222 521 144 q 513 274 521 250 q 486 319 506 299 q 433 359 467 340 q 349 394 400 378 l 258 424 q 117 505 171 451 q 63 647 63 558 q 136 822 63 757 q 349 886 210 886 m 322 986 l 243 986 l 361 1158 l 476 1158 l 322 986 z "},"Ş":{"ha":686,"x_min":63,"x_max":624,"o":"m 349 886 q 469 875 411 886 q 583 838 526 864 l 558 756 q 451 794 499 783 q 353 806 403 806 q 217 767 268 806 q 165 660 165 729 q 204 563 165 599 q 325 501 243 528 l 418 471 q 574 373 525 435 q 624 232 624 311 q 605 136 624 179 q 551 62 586 93 q 468 12 517 31 q 360 -11 419 -7 l 336 -65 q 402 -76 375 -67 q 447 -101 429 -86 q 472 -135 464 -117 q 479 -175 479 -154 q 431 -265 479 -233 q 311 -297 383 -297 q 252 -292 279 -297 q 208 -281 225 -287 l 222 -229 q 261 -239 240 -236 q 301 -242 282 -242 q 378 -224 353 -242 q 403 -178 403 -207 q 397 -151 403 -164 q 376 -129 392 -139 q 331 -114 360 -119 q 256 -108 303 -108 l 301 -11 q 182 3 242 -8 q 64 43 122 15 l 90 125 q 205 83 149 96 q 324 69 261 69 q 465 107 408 69 q 521 222 521 144 q 513 274 521 250 q 486 319 506 299 q 433 359 467 340 q 349 394 400 378 l 258 424 q 117 505 171 451 q 63 647 63 558 q 136 822 63 757 q 349 886 210 886 z "},"Ŝ":{"ha":686,"x_min":63,"x_max":624,"o":"m 349 886 q 469 875 411 886 q 583 838 526 864 l 558 756 q 451 794 499 783 q 353 806 403 806 q 217 767 268 806 q 165 660 165 729 q 204 563 165 599 q 325 501 243 528 l 418 471 q 574 373 525 435 q 624 232 624 311 q 602 130 624 175 q 542 53 581 85 q 449 5 503 22 q 329 -12 394 -12 q 197 0 263 -12 q 64 43 131 13 l 90 125 q 205 83 149 96 q 324 69 261 69 q 465 107 408 69 q 521 222 521 144 q 513 274 521 250 q 486 319 506 299 q 433 359 467 340 q 349 394 400 378 l 258 424 q 117 505 171 451 q 63 647 63 558 q 136 822 63 757 q 349 886 210 886 m 303 1172 l 385 1172 l 558 986 l 461 986 l 343 1113 l 225 986 l 133 986 l 303 1172 z "},"Ș":{"ha":686,"x_min":63,"x_max":624,"o":"m 558 756 q 451 794 499 783 q 353 806 403 806 q 217 767 268 806 q 165 660 165 729 q 181 592 165 619 q 227 545 196 565 q 306 508 258 525 q 418 471 354 492 q 574 373 525 435 q 624 232 624 311 q 602 130 624 175 q 542 53 581 85 q 449 5 503 22 q 329 -12 394 -12 q 197 0 263 -12 q 64 43 131 13 l 90 125 q 205 83 149 96 q 324 69 261 69 q 465 107 408 69 q 521 222 521 144 q 509 285 521 258 q 468 333 497 311 q 388 377 439 356 q 258 424 338 399 q 117 505 171 451 q 63 647 63 558 q 136 822 63 757 q 349 886 210 886 q 469 875 411 886 q 583 838 526 864 l 558 756 m 319 -257 q 277 -235 297 -253 q 257 -183 257 -217 q 276 -134 257 -154 q 326 -114 294 -114 q 355 -119 340 -114 q 381 -137 369 -125 q 401 -170 393 -150 q 408 -221 408 -190 q 397 -283 408 -253 q 367 -342 386 -314 q 321 -393 347 -369 q 264 -432 294 -417 l 233 -389 q 302 -331 274 -367 q 335 -261 331 -296 l 319 -257 z "},"Ŧ":{"ha":696,"x_min":14,"x_max":683,"o":"m 549 493 l 549 421 l 396 421 l 396 0 l 296 0 l 296 421 l 143 421 l 143 493 l 296 493 l 296 792 l 14 792 l 14 875 l 683 875 l 683 792 l 396 792 l 396 493 l 549 493 z "},"Ť":{"ha":696,"x_min":14,"x_max":683,"o":"m 683 875 l 683 792 l 396 792 l 396 0 l 296 0 l 296 792 l 14 792 l 14 875 l 683 875 m 135 1174 l 226 1174 l 344 1046 l 463 1174 l 560 1174 l 386 988 l 304 988 l 135 1174 z "},"Ţ":{"ha":696,"x_min":14,"x_max":683,"o":"m 683 875 l 683 792 l 396 792 l 396 0 l 296 0 l 296 792 l 14 792 l 14 875 l 683 875 m 335 -257 q 292 -235 313 -253 q 272 -183 272 -217 q 291 -134 272 -154 q 342 -114 310 -114 q 370 -119 356 -114 q 397 -137 385 -125 q 416 -170 408 -150 q 424 -221 424 -190 q 413 -283 424 -253 q 382 -342 401 -314 q 336 -393 363 -369 q 281 -432 310 -417 l 249 -389 q 317 -331 289 -367 q 351 -261 346 -296 l 335 -257 z "},"Ŭ":{"ha":869,"x_min":104,"x_max":765,"o":"m 104 875 l 204 875 l 204 351 q 260 134 204 199 q 439 69 317 69 q 542 89 499 69 q 612 143 585 108 q 652 226 639 178 q 665 335 665 275 l 665 875 l 765 875 l 765 339 q 680 73 765 158 q 439 -12 594 -12 q 193 73 282 -12 q 104 346 104 158 l 104 875 m 328 1158 q 354 1081 331 1110 q 439 1051 378 1051 q 517 1079 490 1051 q 547 1158 544 1107 l 624 1158 q 576 1035 624 1083 q 439 986 529 986 q 353 1001 389 986 q 295 1039 318 1015 q 261 1094 272 1063 q 250 1158 250 1125 l 328 1158 z "},"Ű":{"ha":869,"x_min":104,"x_max":765,"o":"m 104 875 l 204 875 l 204 351 q 260 134 204 199 q 439 69 317 69 q 542 89 499 69 q 612 143 585 108 q 652 226 639 178 q 665 335 665 275 l 665 875 l 765 875 l 765 339 q 680 73 765 158 q 439 -12 594 -12 q 193 73 282 -12 q 104 346 104 158 l 104 875 m 325 986 l 246 986 l 364 1158 l 475 1158 l 325 986 m 572 986 l 493 986 l 611 1158 l 722 1158 l 572 986 z "},"Ū":{"ha":869,"x_min":104,"x_max":765,"o":"m 104 875 l 204 875 l 204 351 q 260 134 204 199 q 439 69 317 69 q 542 89 499 69 q 612 143 585 108 q 652 226 639 178 q 665 335 665 275 l 665 875 l 765 875 l 765 339 q 680 73 765 158 q 439 -12 594 -12 q 193 73 282 -12 q 104 346 104 158 l 104 875 m 608 1072 l 608 1000 l 268 1000 l 268 1072 l 608 1072 z "},"Ų":{"ha":869,"x_min":104,"x_max":765,"o":"m 104 875 l 204 875 l 204 351 q 260 134 204 199 q 439 69 317 69 q 542 89 499 69 q 612 143 585 108 q 652 226 639 178 q 665 335 665 275 l 665 875 l 765 875 l 765 339 q 695 90 765 175 q 494 -8 625 6 q 410 -69 442 -37 q 378 -140 378 -100 q 401 -197 378 -176 q 467 -217 425 -217 q 540 -203 510 -217 l 556 -257 q 444 -286 507 -286 q 338 -251 381 -286 q 296 -151 296 -217 q 325 -67 296 -104 q 390 -10 354 -31 q 180 87 256 1 q 104 346 104 172 l 104 875 z "},"Ů":{"ha":869,"x_min":104,"x_max":765,"o":"m 104 875 l 204 875 l 204 351 q 260 134 204 199 q 439 69 317 69 q 542 89 499 69 q 612 143 585 108 q 652 226 639 178 q 665 335 665 275 l 665 875 l 765 875 l 765 339 q 680 73 765 158 q 439 -12 594 -12 q 193 73 282 -12 q 104 346 104 158 l 104 875 m 306 1056 q 344 1142 306 1114 q 438 1171 383 1171 q 531 1142 493 1171 q 569 1056 569 1114 q 530 969 569 997 q 438 940 490 940 q 345 970 385 940 q 306 1056 306 1000 m 365 1056 q 385 1001 365 1021 q 438 982 404 982 q 491 1001 471 982 q 511 1056 511 1021 q 490 1108 511 1089 q 438 1128 469 1128 q 385 1108 406 1128 q 365 1056 365 1089 z "},"Ũ":{"ha":869,"x_min":104,"x_max":765,"o":"m 104 875 l 204 875 l 204 351 q 260 134 204 199 q 439 69 317 69 q 542 89 499 69 q 612 143 585 108 q 652 226 639 178 q 665 335 665 275 l 665 875 l 765 875 l 765 339 q 680 73 765 158 q 439 -12 594 -12 q 193 73 282 -12 q 104 346 104 158 l 104 875 m 225 989 q 253 1092 225 1050 q 346 1135 282 1135 q 399 1124 376 1135 q 441 1101 421 1114 q 480 1077 461 1088 q 522 1067 499 1067 q 567 1089 554 1067 q 583 1139 581 1111 l 646 1139 q 639 1085 646 1111 q 617 1040 632 1060 q 581 1008 603 1021 q 531 996 560 996 q 474 1006 499 996 q 427 1029 449 1017 q 387 1052 406 1042 q 350 1063 368 1063 q 304 1041 318 1063 q 288 989 290 1019 l 225 989 z "},"Ẃ":{"ha":1154,"x_min":11,"x_max":1143,"o":"m 611 986 l 532 986 l 650 1158 l 765 1158 l 611 986 m 114 875 l 261 360 q 292 243 276 308 q 318 119 307 178 l 321 119 q 349 242 332 178 q 381 360 365 307 l 532 875 l 624 875 l 779 360 q 810 243 794 307 q 840 119 826 179 l 843 119 q 869 244 854 181 q 900 360 885 308 l 1042 875 l 1143 875 l 892 0 l 790 0 l 639 525 q 607 639 624 583 q 578 747 590 694 l 575 747 q 551 654 564 700 q 526 563 539 608 l 369 0 l 269 0 l 11 875 l 114 875 z "},"Ŵ":{"ha":1154,"x_min":11,"x_max":1143,"o":"m 536 1172 l 618 1172 l 792 986 l 694 986 l 576 1113 l 458 986 l 367 986 l 536 1172 m 114 875 l 261 360 q 292 243 276 308 q 318 119 307 178 l 321 119 q 349 242 332 178 q 381 360 365 307 l 532 875 l 624 875 l 779 360 q 810 243 794 307 q 840 119 826 179 l 843 119 q 869 244 854 181 q 900 360 885 308 l 1042 875 l 1143 875 l 892 0 l 790 0 l 639 525 q 607 639 624 583 q 578 747 590 694 l 575 747 q 551 654 564 700 q 526 563 539 608 l 369 0 l 269 0 l 11 875 l 114 875 z "},"Ẅ":{"ha":1154,"x_min":11,"x_max":1143,"o":"m 397 1060 q 415 1106 397 1088 q 460 1125 433 1125 q 503 1106 485 1125 q 522 1060 522 1088 q 503 1013 522 1032 q 460 994 485 994 q 415 1013 433 994 q 397 1060 397 1032 m 631 1060 q 649 1106 631 1088 q 693 1125 667 1125 q 737 1106 718 1125 q 756 1060 756 1088 q 737 1013 756 1032 q 693 994 718 994 q 649 1013 667 994 q 631 1060 631 1032 m 114 875 l 261 360 q 292 243 276 308 q 318 119 307 178 l 321 119 q 349 242 332 178 q 381 360 365 307 l 532 875 l 624 875 l 779 360 q 810 243 794 307 q 840 119 826 179 l 843 119 q 869 244 854 181 q 900 360 885 308 l 1042 875 l 1143 875 l 892 0 l 790 0 l 639 525 q 607 639 624 583 q 578 747 590 694 l 575 747 q 551 654 564 700 q 526 563 539 608 l 369 0 l 269 0 l 11 875 l 114 875 z "},"Ẁ":{"ha":1154,"x_min":11,"x_max":1143,"o":"m 389 1158 l 504 1158 l 622 986 l 543 986 l 389 1158 m 114 875 l 261 360 q 292 243 276 308 q 318 119 307 178 l 321 119 q 349 242 332 178 q 381 360 365 307 l 532 875 l 624 875 l 779 360 q 810 243 794 307 q 840 119 826 179 l 843 119 q 869 244 854 181 q 900 360 885 308 l 1042 875 l 1143 875 l 892 0 l 790 0 l 639 525 q 607 639 624 583 q 578 747 590 694 l 575 747 q 551 654 564 700 q 526 563 539 608 l 369 0 l 269 0 l 11 875 l 114 875 z "},"Ŷ":{"ha":699,"x_min":7,"x_max":699,"o":"m 119 875 l 353 461 l 588 875 l 699 875 l 399 367 l 399 0 l 299 0 l 299 367 l 7 875 l 119 875 m 313 1172 l 394 1172 l 568 986 l 471 986 l 353 1113 l 235 986 l 143 986 l 313 1172 z "},"Ỳ":{"ha":699,"x_min":7,"x_max":699,"o":"m 119 875 l 353 461 l 588 875 l 699 875 l 399 367 l 399 0 l 299 0 l 299 367 l 7 875 l 119 875 m 210 1158 l 325 1158 l 443 986 l 364 986 l 210 1158 z "},"Ź":{"ha":706,"x_min":36,"x_max":668,"o":"m 661 875 l 661 814 l 156 81 l 668 81 l 668 0 l 36 0 l 36 68 l 535 794 l 57 794 l 57 875 l 661 875 m 357 986 l 278 986 l 396 1158 l 511 1158 l 357 986 z "},"Ż":{"ha":706,"x_min":36,"x_max":668,"o":"m 661 875 l 661 814 l 156 81 l 668 81 l 668 0 l 36 0 l 36 68 l 535 794 l 57 794 l 57 875 l 661 875 m 290 1072 q 310 1121 290 1100 q 357 1142 329 1142 q 404 1121 385 1142 q 424 1072 424 1100 q 404 1022 424 1042 q 357 1003 385 1003 q 310 1022 329 1003 q 290 1072 290 1042 z "},"⁄":{"ha":601,"x_min":-21,"x_max":622,"o":"m -21 -12 l 546 888 l 622 888 l 56 -12 l -21 -12 z "},"₨":{"ha":688,"x_min":-7,"x_max":604,"o":"m 28 572 l 28 646 l 342 646 q 314 731 335 688 q 267 804 293 774 l -7 804 l -7 875 l 604 875 l 604 804 l 363 804 q 405 740 382 782 q 438 646 428 697 l 569 646 l 569 572 l 443 572 q 420 485 440 526 q 365 415 400 444 q 281 367 329 385 q 175 349 233 349 l 432 39 l 354 -14 l 160 242 q 110 303 132 278 q 71 347 88 329 q 35 382 51 368 l 63 439 q 101 429 82 432 q 149 426 121 426 q 287 468 235 426 q 344 572 339 510 l 28 572 z "},"":{"ha":611,"x_min":1,"x_max":611,"o":"m 260 653 l 357 653 l 611 0 l 518 0 l 449 178 l 161 178 l 93 0 l 1 0 l 260 653 m 307 569 q 274 474 293 525 q 240 389 254 424 l 188 251 l 422 251 l 371 389 q 340 474 358 424 q 310 569 322 525 l 307 569 z "},"":{"ha":618,"x_min":103,"x_max":565,"o":"m 329 653 q 485 608 432 653 q 538 492 538 564 q 506 403 538 439 q 424 350 474 367 q 528 294 490 335 q 565 188 565 254 q 550 115 565 149 q 505 55 535 81 q 431 15 475 29 q 328 0 386 0 l 103 0 l 103 653 l 329 653 m 188 376 l 307 376 q 405 403 369 376 q 440 479 440 429 q 408 553 440 526 q 300 579 375 579 l 188 579 l 188 376 m 188 74 l 299 74 q 422 101 378 74 q 467 196 467 129 q 459 236 467 217 q 435 271 451 256 q 392 295 418 286 q 328 304 365 304 l 188 304 l 188 74 z "},"":{"ha":601,"x_min":57,"x_max":567,"o":"m 400 60 q 479 69 444 60 q 546 94 514 79 l 567 25 q 390 -12 492 -12 q 260 8 321 -12 q 155 72 200 29 q 83 177 110 114 q 57 325 57 240 q 81 465 57 403 q 150 572 106 528 q 255 638 194 615 q 389 661 315 661 q 476 653 433 661 q 564 626 518 646 l 542 554 q 472 580 508 572 q 400 588 436 588 q 222 519 289 588 q 154 329 154 450 q 176 201 154 253 q 231 117 197 149 q 310 73 265 86 q 400 60 354 60 z "},"":{"ha":701,"x_min":103,"x_max":644,"o":"m 301 653 q 430 636 368 653 q 540 582 492 619 q 616 485 588 544 q 644 342 644 426 q 617 188 644 253 q 543 82 590 124 q 431 20 496 40 q 293 0 367 0 l 103 0 l 103 653 l 301 653 m 197 74 l 265 74 q 358 83 308 74 q 450 119 408 92 q 519 199 492 147 q 547 338 547 251 q 476 519 547 460 q 265 578 404 578 l 197 578 l 197 74 z "},"":{"ha":579,"x_min":103,"x_max":525,"o":"m 103 653 l 522 653 l 522 579 l 196 579 l 196 374 l 494 374 l 494 301 l 196 301 l 196 74 l 525 74 l 525 0 l 103 0 l 103 653 z "},"":{"ha":551,"x_min":103,"x_max":503,"o":"m 503 653 l 503 579 l 197 579 l 197 361 l 478 361 l 478 288 l 197 288 l 197 0 l 103 0 l 103 653 l 503 653 z "},"":{"ha":679,"x_min":58,"x_max":607,"o":"m 408 61 q 471 66 439 61 q 526 79 503 71 l 526 271 l 379 271 l 379 340 l 607 340 l 607 26 q 512 -3 565 7 q 401 -12 458 -12 q 267 8 329 -12 q 158 72 204 29 q 85 177 111 114 q 58 325 58 240 q 83 465 58 403 q 153 572 108 528 q 261 638 199 615 q 400 661 324 661 q 490 656 443 661 q 585 631 538 650 l 564 558 q 491 581 529 574 q 410 588 453 588 q 224 520 293 588 q 156 329 156 453 q 177 201 156 253 q 234 119 199 150 q 315 74 269 88 q 408 61 360 61 z "},"":{"ha":710,"x_min":103,"x_max":607,"o":"m 103 0 l 103 653 l 194 653 l 194 381 l 514 381 l 514 653 l 607 653 l 607 0 l 514 0 l 514 304 l 194 304 l 194 0 l 103 0 z "},"":{"ha":299,"x_min":103,"x_max":197,"o":"m 197 653 l 197 0 l 103 0 l 103 653 l 197 653 z "},"":{"ha":319,"x_min":0,"x_max":222,"o":"m 222 653 l 222 90 q 215 -32 222 18 q 179 -125 207 -82 q 98 -193 147 -175 q 0 -211 49 -211 l 0 -135 q 56 -124 28 -135 q 101 -83 85 -112 q 123 -15 118 -56 q 128 57 128 26 l 128 653 l 222 653 z "},"":{"ha":613,"x_min":103,"x_max":606,"o":"m 103 0 l 103 653 l 197 653 l 197 349 l 465 653 l 582 653 l 321 367 l 606 0 l 486 0 l 258 304 l 197 236 l 197 0 l 103 0 z "},"":{"ha":517,"x_min":103,"x_max":504,"o":"m 103 653 l 197 653 l 197 76 l 504 76 l 504 0 l 103 0 l 103 653 z "},"":{"ha":901,"x_min":89,"x_max":813,"o":"m 150 653 l 263 653 l 414 206 q 432 151 422 181 q 450 93 442 121 l 453 93 q 469 150 460 121 q 488 206 479 179 l 638 653 l 750 653 l 813 0 l 724 0 l 692 361 q 679 549 683 450 l 678 549 q 652 456 667 504 q 622 361 638 408 l 497 0 l 403 0 l 278 363 q 248 456 261 411 q 222 549 235 500 l 221 549 q 215 455 218 500 q 207 361 211 410 l 175 0 l 89 0 l 150 653 z "},"":{"ha":742,"x_min":103,"x_max":639,"o":"m 103 653 l 196 653 l 456 276 q 508 198 482 238 q 549 132 535 158 l 551 132 q 546 222 547 179 q 544 310 544 265 l 544 653 l 639 653 l 639 0 l 546 0 l 275 389 q 227 465 250 425 q 192 533 204 504 l 189 533 q 194 428 193 481 q 196 324 196 376 l 196 0 l 103 0 l 103 653 z "},"":{"ha":742,"x_min":58,"x_max":683,"o":"m 683 333 q 659 187 683 251 q 592 78 635 122 q 492 10 549 33 q 368 -12 435 -12 q 245 9 301 -12 q 147 73 189 31 q 82 177 106 115 q 58 319 58 239 q 83 465 58 401 q 150 573 107 529 q 250 639 193 617 q 374 661 307 661 q 497 640 440 661 q 594 578 553 619 q 660 475 636 536 q 683 333 683 414 m 583 326 q 565 447 583 397 q 517 527 547 496 q 448 572 486 558 q 369 586 410 586 q 291 573 329 586 q 224 530 253 560 q 176 450 194 500 q 158 326 158 400 q 176 206 158 256 q 224 124 194 156 q 293 77 254 92 q 372 63 332 63 q 451 76 413 63 q 518 120 489 89 q 565 202 547 151 q 583 326 583 253 z "},"":{"ha":593,"x_min":104,"x_max":557,"o":"m 104 653 l 328 653 q 415 640 374 653 q 488 601 457 626 q 538 540 519 576 q 557 458 557 504 q 531 353 557 393 q 465 291 506 314 q 375 260 425 268 q 276 253 325 253 l 199 253 l 199 0 l 104 0 l 104 653 m 197 326 l 281 326 q 344 332 313 326 q 402 351 376 338 q 444 390 428 365 q 460 454 460 415 q 444 517 460 493 q 403 556 428 542 q 347 574 378 569 q 285 579 315 579 l 197 579 l 197 326 z "},"":{"ha":738,"x_min":58,"x_max":738,"o":"m 419 -10 q 467 -25 444 -14 q 513 -48 489 -36 q 563 -68 536 -60 q 621 -76 589 -76 q 673 -69 653 -76 q 711 -51 693 -62 l 738 -121 q 688 -143 718 -133 q 621 -153 657 -153 q 537 -140 574 -153 q 467 -111 500 -126 q 402 -83 435 -96 q 332 -69 369 -69 q 254 -83 288 -69 q 189 -117 221 -96 l 151 -51 q 210 -17 176 -31 q 272 1 244 -3 l 272 4 q 188 42 226 15 q 120 110 149 69 q 75 203 92 150 q 58 322 58 257 q 83 467 58 404 q 149 574 107 531 q 249 639 192 617 q 372 661 306 661 q 496 640 439 661 q 594 578 553 619 q 660 474 636 536 q 683 332 683 413 q 663 197 683 257 q 606 94 642 138 q 522 26 569 51 q 419 -7 474 0 l 419 -10 m 583 325 q 565 445 583 396 q 516 526 546 494 q 447 572 486 557 q 368 586 408 586 q 290 574 328 586 q 224 531 253 561 q 176 452 194 501 q 158 329 158 403 q 176 208 158 258 q 224 124 194 157 q 290 75 253 90 q 368 60 328 60 q 447 74 408 60 q 516 119 486 88 q 565 201 546 150 q 583 325 583 251 z "},"":{"ha":594,"x_min":103,"x_max":567,"o":"m 103 653 l 326 653 q 411 641 371 653 q 482 605 451 629 q 531 544 513 581 q 549 457 549 507 q 510 338 549 386 q 408 267 471 289 l 567 0 l 458 0 l 325 249 l 193 249 l 193 0 l 103 0 l 103 653 m 192 322 l 288 322 q 408 354 364 322 q 453 453 453 386 q 410 552 453 525 q 292 579 367 579 l 192 579 l 192 322 z "},"":{"ha":568,"x_min":56,"x_max":511,"o":"m 458 549 q 376 578 414 569 q 301 588 338 588 q 190 561 228 588 q 153 488 153 535 q 158 453 153 468 q 179 425 164 438 q 220 401 194 413 q 286 378 246 390 l 328 365 q 465 296 418 339 q 511 179 511 253 q 447 40 511 92 q 268 -12 383 -12 q 151 -1 207 -12 q 56 29 96 10 l 78 104 q 165 74 117 85 q 261 63 213 63 q 374 90 332 63 q 415 174 415 117 q 381 244 415 222 q 272 290 347 267 l 229 304 q 102 372 146 331 q 58 485 58 413 q 76 558 58 525 q 124 613 93 590 q 196 649 154 636 q 288 661 238 661 q 385 652 333 661 q 481 622 436 643 l 458 549 z "},"":{"ha":543,"x_min":10,"x_max":533,"o":"m 533 653 l 533 579 l 317 579 l 317 0 l 222 0 l 222 579 l 10 579 l 10 653 l 533 653 z "},"":{"ha":746,"x_min":96,"x_max":650,"o":"m 96 653 l 190 653 l 190 313 q 204 188 190 236 q 243 112 218 139 q 303 74 268 85 q 381 64 338 64 q 510 117 464 64 q 556 299 556 171 l 556 653 l 650 653 l 650 308 q 581 67 650 146 q 378 -12 513 -12 q 167 65 238 -12 q 96 307 96 143 l 96 653 z "},"":{"ha":601,"x_min":6,"x_max":599,"o":"m 107 653 l 249 272 q 276 196 263 236 q 301 117 290 156 l 303 117 q 327 197 314 157 q 354 272 340 236 l 499 653 l 599 653 l 343 0 l 257 0 l 6 653 l 107 653 z "},"":{"ha":890,"x_min":8,"x_max":885,"o":"m 106 653 l 217 269 q 235 200 226 238 q 251 131 244 163 l 253 131 q 268 201 260 167 q 288 269 276 236 l 399 653 l 496 653 l 610 269 q 628 203 618 242 q 644 131 639 164 l 646 131 q 664 204 653 164 q 682 269 675 244 l 788 653 l 885 653 l 696 0 l 607 0 l 482 421 q 463 491 471 457 q 447 557 454 525 l 444 557 q 429 490 438 524 q 411 422 421 457 l 290 0 l 201 0 l 8 653 l 106 653 z "},"":{"ha":579,"x_min":6,"x_max":572,"o":"m 343 331 l 572 0 l 461 0 l 349 164 l 285 267 l 224 167 l 114 0 l 6 0 l 232 331 l 17 653 l 126 653 l 240 478 l 292 390 l 344 482 l 451 653 l 557 653 l 343 331 z "},"":{"ha":532,"x_min":0,"x_max":532,"o":"m 106 653 l 265 336 l 431 653 l 532 653 l 307 257 l 307 0 l 217 0 l 217 257 l 0 653 l 106 653 z "},"":{"ha":565,"x_min":33,"x_max":529,"o":"m 522 596 l 150 74 l 529 74 l 529 0 l 33 0 l 33 63 l 403 578 l 56 578 l 56 653 l 522 653 l 522 596 z "},"ă":{"ha":658,"x_min":50,"x_max":569,"o":"m 96 594 q 216 645 161 629 q 338 661 271 661 q 430 649 388 661 q 503 610 472 638 q 552 537 535 582 q 569 425 569 492 l 569 0 l 494 0 l 479 79 l 476 79 q 381 9 435 31 q 264 -12 328 -12 q 178 1 218 -12 q 110 39 139 14 q 66 99 82 64 q 50 176 50 133 q 71 267 50 228 q 130 332 92 306 q 222 372 168 358 q 340 385 275 385 l 472 385 l 472 433 q 433 549 472 517 q 331 582 394 582 q 242 570 292 582 q 133 525 193 558 l 96 594 m 472 314 l 364 313 q 200 272 249 310 q 151 181 151 235 q 192 89 151 115 q 288 63 232 63 q 386 85 336 63 q 472 161 436 108 l 472 314 m 229 944 q 256 867 232 896 q 340 838 279 838 q 419 865 392 838 q 449 944 446 893 l 525 944 q 478 821 525 869 q 340 772 431 772 q 255 787 290 772 q 197 825 219 801 q 163 880 174 849 q 151 944 151 911 l 229 944 z "},"ā":{"ha":658,"x_min":50,"x_max":569,"o":"m 96 594 q 216 645 161 629 q 338 661 271 661 q 430 649 388 661 q 503 610 472 638 q 552 537 535 582 q 569 425 569 492 l 569 0 l 494 0 l 479 79 l 476 79 q 381 9 435 31 q 264 -12 328 -12 q 178 1 218 -12 q 110 39 139 14 q 66 99 82 64 q 50 176 50 133 q 71 267 50 228 q 130 332 92 306 q 222 372 168 358 q 340 385 275 385 l 472 385 l 472 433 q 433 549 472 517 q 331 582 394 582 q 242 570 292 582 q 133 525 193 558 l 96 594 m 472 314 l 364 313 q 200 272 249 310 q 151 181 151 235 q 192 89 151 115 q 288 63 232 63 q 386 85 336 63 q 472 161 436 108 l 472 314 m 506 906 l 506 835 l 179 835 l 179 906 l 506 906 z "},"ą":{"ha":658,"x_min":50,"x_max":633,"o":"m 569 0 q 494 -61 525 -26 q 463 -139 463 -96 q 486 -196 463 -175 q 546 -217 510 -217 q 588 -213 569 -217 q 619 -204 606 -210 l 633 -257 q 584 -278 611 -271 q 525 -286 557 -286 q 422 -251 464 -286 q 381 -151 381 -217 q 414 -60 381 -99 q 492 1 447 -21 l 479 79 l 476 79 q 381 9 435 31 q 264 -12 328 -12 q 178 1 218 -12 q 110 39 139 14 q 66 99 82 64 q 50 176 50 133 q 71 267 50 228 q 130 332 92 306 q 222 372 168 358 q 340 385 275 385 l 472 385 l 472 433 q 433 549 472 517 q 331 582 394 582 q 242 570 292 582 q 133 525 193 558 l 96 594 q 216 645 161 629 q 338 661 271 661 q 430 649 388 661 q 503 610 472 638 q 552 537 535 582 q 569 425 569 492 l 569 0 m 472 314 l 364 313 q 200 272 249 310 q 151 181 151 235 q 192 89 151 115 q 288 63 232 63 q 386 85 336 63 q 472 161 436 108 l 472 314 z "},"ǽ":{"ha":1081,"x_min":50,"x_max":1026,"o":"m 1026 315 l 567 315 l 567 303 q 627 126 567 188 q 796 64 688 64 q 886 72 844 64 q 972 97 928 79 l 993 25 q 902 -2 954 8 q 792 -12 850 -12 q 640 17 708 -12 q 529 110 571 46 l 526 110 q 421 19 483 50 q 274 -12 358 -12 q 185 1 225 -12 q 114 39 144 14 q 67 99 83 64 q 50 176 50 133 q 71 267 50 228 q 130 332 92 306 q 222 372 168 358 q 340 385 275 385 l 474 385 l 474 433 q 434 549 474 517 q 331 582 394 582 q 242 570 292 582 q 133 525 193 558 l 96 594 q 216 645 161 629 q 338 661 271 661 q 459 635 408 661 q 539 551 510 610 l 542 551 q 638 635 582 608 q 764 661 694 661 q 872 640 824 661 q 955 582 921 619 q 1008 491 989 544 q 1026 372 1026 438 l 1026 315 m 151 181 q 192 89 151 115 q 294 63 232 63 q 403 89 347 63 q 496 175 458 115 q 478 240 485 206 q 472 314 472 274 l 364 313 q 200 272 249 310 q 151 181 151 235 m 925 386 q 916 461 925 425 q 888 525 907 497 q 837 570 868 553 q 761 588 806 588 q 629 534 681 588 q 568 386 578 481 l 925 386 m 715 958 l 575 772 l 496 772 l 600 958 l 715 958 z "},"ć":{"ha":603,"x_min":56,"x_max":561,"o":"m 394 61 q 474 71 439 61 q 540 96 508 81 l 561 25 q 385 -12 486 -12 q 257 8 317 -12 q 152 72 197 29 q 81 177 107 114 q 56 325 56 240 q 80 465 56 403 q 148 572 104 528 q 251 638 192 615 q 383 661 311 661 q 467 655 426 661 q 558 626 508 649 l 536 551 q 466 578 500 571 q 396 586 432 586 q 222 518 288 586 q 156 329 156 450 q 176 201 156 253 q 231 119 197 150 q 307 74 264 88 q 394 61 350 61 m 340 772 l 261 772 l 365 958 l 481 958 l 340 772 z "},"č":{"ha":618,"x_min":56,"x_max":574,"o":"m 394 61 q 474 71 439 61 q 540 96 508 81 l 561 25 q 385 -12 486 -12 q 257 8 317 -12 q 152 72 197 29 q 81 177 107 114 q 56 325 56 240 q 80 465 56 403 q 148 572 104 528 q 251 638 192 615 q 383 661 311 661 q 467 655 426 661 q 558 626 508 649 l 536 551 q 466 578 500 571 q 396 586 432 586 q 222 518 288 586 q 156 329 156 450 q 176 201 156 253 q 231 119 197 150 q 307 74 264 88 q 394 61 350 61 m 163 958 l 256 958 l 365 831 l 476 958 l 574 958 l 407 772 l 325 772 l 163 958 z "},"ĉ":{"ha":603,"x_min":56,"x_max":565,"o":"m 394 61 q 474 71 439 61 q 540 96 508 81 l 561 25 q 385 -12 486 -12 q 257 8 317 -12 q 152 72 197 29 q 81 177 107 114 q 56 325 56 240 q 80 465 56 403 q 148 572 104 528 q 251 638 192 615 q 383 661 311 661 q 467 655 426 661 q 558 626 508 649 l 536 551 q 466 578 500 571 q 396 586 432 586 q 222 518 288 586 q 156 329 156 450 q 176 201 156 253 q 231 119 197 150 q 307 74 264 88 q 394 61 350 61 m 565 772 l 474 772 l 367 897 l 257 772 l 161 772 l 325 958 l 407 958 l 565 772 z "},"ċ":{"ha":603,"x_min":56,"x_max":561,"o":"m 394 61 q 474 71 439 61 q 540 96 508 81 l 561 25 q 385 -12 486 -12 q 257 8 317 -12 q 152 72 197 29 q 81 177 107 114 q 56 325 56 240 q 80 465 56 403 q 148 572 104 528 q 251 638 192 615 q 383 661 311 661 q 467 655 426 661 q 558 626 508 649 l 536 551 q 466 578 500 571 q 396 586 432 586 q 222 518 288 586 q 156 329 156 450 q 176 201 156 253 q 231 119 197 150 q 307 74 264 88 q 394 61 350 61 m 306 871 q 324 919 306 899 q 371 939 343 939 q 418 919 399 939 q 438 871 438 899 q 418 820 438 839 q 371 801 399 801 q 324 820 343 801 q 306 871 306 839 z "},"ď":{"ha":861,"x_min":56,"x_max":907,"o":"m 529 986 l 626 986 l 626 0 l 546 0 l 533 67 l 531 67 q 450 8 494 28 q 338 -12 406 -12 q 235 8 285 -12 q 144 71 185 29 q 80 176 104 113 q 56 325 56 239 q 76 464 56 401 q 134 570 96 526 q 227 638 172 614 q 351 661 282 661 q 448 646 403 661 q 529 599 493 631 l 529 986 m 529 510 q 457 566 499 546 q 371 586 415 586 q 290 572 329 586 q 222 528 251 558 q 174 448 192 497 q 156 329 156 399 q 173 207 156 257 q 219 125 190 157 q 285 78 249 93 q 361 64 322 64 q 460 86 418 64 q 529 149 501 108 l 529 510 m 818 867 q 776 890 796 871 q 756 940 756 908 q 774 990 756 969 q 825 1011 793 1011 q 853 1006 839 1011 q 880 988 868 1000 q 899 955 892 975 q 907 904 907 935 q 896 841 907 872 q 865 782 885 810 q 819 731 846 754 q 764 692 793 708 l 732 736 q 801 793 772 758 q 835 864 829 828 l 818 867 z "},"≤":{"ha":603,"x_min":56,"x_max":547,"o":"m 547 133 l 57 133 l 57 204 l 547 204 l 547 133 m 56 565 l 547 808 l 547 719 l 149 531 l 547 343 l 547 256 l 56 499 l 56 565 z "},"≥":{"ha":603,"x_min":56,"x_max":547,"o":"m 547 499 l 56 256 l 56 344 l 453 533 l 56 721 l 56 808 l 547 565 l 547 499 z "},"đ":{"ha":746,"x_min":56,"x_max":750,"o":"m 529 986 l 626 986 l 626 875 l 750 875 l 750 804 l 626 804 l 626 0 l 546 0 l 533 67 l 531 67 q 450 8 494 28 q 338 -12 406 -12 q 235 8 285 -12 q 144 71 185 29 q 80 176 104 113 q 56 325 56 239 q 76 464 56 401 q 134 570 96 526 q 227 638 172 614 q 351 661 282 661 q 448 646 403 661 q 529 599 493 631 l 529 804 l 361 804 l 361 875 l 529 875 l 529 986 m 529 510 q 457 566 499 546 q 371 586 415 586 q 290 572 329 586 q 222 528 251 558 q 174 448 192 497 q 156 329 156 399 q 173 207 156 257 q 219 125 190 157 q 285 78 249 93 q 361 64 322 64 q 460 86 418 64 q 529 149 501 108 l 529 510 z "},"ĕ":{"ha":700,"x_min":68,"x_max":636,"o":"m 636 319 l 169 319 l 169 307 q 231 128 169 192 q 401 64 293 64 q 492 72 450 64 q 578 97 533 79 l 599 25 q 508 -2 561 8 q 397 -12 456 -12 q 269 7 329 -12 q 165 67 210 26 q 94 172 119 108 q 68 325 68 236 q 90 464 68 401 q 151 570 111 526 q 248 638 192 614 q 374 661 304 661 q 481 641 433 661 q 564 583 529 621 q 617 493 599 546 q 636 376 636 440 l 636 319 m 535 392 q 526 466 535 431 q 497 528 517 501 q 444 572 476 556 q 368 588 413 588 q 235 535 288 588 q 172 390 183 482 l 535 392 m 265 944 q 292 867 268 896 q 376 838 315 838 q 456 865 428 838 q 486 944 483 893 l 563 944 q 515 821 563 869 q 376 772 467 772 q 291 787 326 772 q 233 825 256 801 q 199 880 210 849 q 189 944 189 911 l 265 944 z "},"ě":{"ha":700,"x_min":68,"x_max":636,"o":"m 636 319 l 169 319 l 169 307 q 231 128 169 192 q 401 64 293 64 q 492 72 450 64 q 578 97 533 79 l 599 25 q 508 -2 561 8 q 397 -12 456 -12 q 269 7 329 -12 q 165 67 210 26 q 94 172 119 108 q 68 325 68 236 q 90 464 68 401 q 151 570 111 526 q 248 638 192 614 q 374 661 304 661 q 481 641 433 661 q 564 583 529 621 q 617 493 599 546 q 636 376 636 440 l 636 319 m 535 392 q 526 466 535 431 q 497 528 517 501 q 444 572 476 556 q 368 588 413 588 q 235 535 288 588 q 172 390 183 482 l 535 392 m 568 958 l 410 772 l 328 772 l 169 958 l 264 958 l 369 832 l 475 958 l 568 958 z "},"ė":{"ha":700,"x_min":68,"x_max":636,"o":"m 636 319 l 169 319 l 169 307 q 231 128 169 192 q 401 64 293 64 q 492 72 450 64 q 578 97 533 79 l 599 25 q 508 -2 561 8 q 397 -12 456 -12 q 269 7 329 -12 q 165 67 210 26 q 94 172 119 108 q 68 325 68 236 q 90 464 68 401 q 151 570 111 526 q 248 638 192 614 q 374 661 304 661 q 481 641 433 661 q 564 583 529 621 q 617 493 599 546 q 636 376 636 440 l 636 319 m 535 392 q 526 466 535 431 q 497 528 517 501 q 444 572 476 556 q 368 588 413 588 q 235 535 288 588 q 172 390 183 482 l 535 392 m 304 871 q 324 919 304 899 q 371 939 343 939 q 417 919 399 939 q 436 871 436 899 q 417 820 436 839 q 371 801 399 801 q 324 820 343 801 q 304 871 304 839 z "},"ē":{"ha":700,"x_min":68,"x_max":636,"o":"m 636 319 l 169 319 l 169 307 q 231 128 169 192 q 401 64 293 64 q 492 72 450 64 q 578 97 533 79 l 599 25 q 508 -2 561 8 q 397 -12 456 -12 q 269 7 329 -12 q 165 67 210 26 q 94 172 119 108 q 68 325 68 236 q 90 464 68 401 q 151 570 111 526 q 248 638 192 614 q 374 661 304 661 q 481 641 433 661 q 564 583 529 621 q 617 493 599 546 q 636 376 636 440 l 636 319 m 535 392 q 526 466 535 431 q 497 528 517 501 q 444 572 476 556 q 368 588 413 588 q 235 535 288 588 q 172 390 183 482 l 535 392 m 535 906 l 535 835 l 208 835 l 208 906 l 535 906 z "},"ę":{"ha":700,"x_min":68,"x_max":636,"o":"m 636 319 l 169 319 l 169 307 q 231 128 169 192 q 401 64 293 64 q 492 72 450 64 q 578 97 533 79 l 599 25 q 538 -5 565 8 q 490 -33 510 -18 q 459 -68 469 -49 q 449 -115 449 -87 q 474 -170 449 -151 q 539 -189 500 -189 q 579 -185 561 -189 q 611 -176 597 -182 l 626 -229 q 577 -251 604 -243 q 518 -258 550 -258 q 410 -226 454 -258 q 367 -129 367 -194 q 385 -63 367 -93 q 435 -14 403 -33 l 435 -11 q 416 -12 425 -11 q 397 -12 407 -12 q 269 7 329 -12 q 165 67 210 26 q 94 172 119 108 q 68 325 68 236 q 90 464 68 401 q 151 570 111 526 q 248 638 192 614 q 374 661 304 661 q 481 641 433 661 q 564 583 529 621 q 617 493 599 546 q 636 376 636 440 l 636 319 m 535 392 q 526 466 535 431 q 497 528 517 501 q 444 572 476 556 q 368 588 413 588 q 235 535 288 588 q 172 390 183 482 l 535 392 z "},"ﬀ":{"ha":849,"x_min":26,"x_max":885,"o":"m 742 993 q 815 983 778 993 q 885 957 853 974 l 860 890 q 764 914 808 914 q 664 876 696 914 q 632 746 632 838 l 632 653 l 843 653 l 843 582 l 632 582 l 632 0 l 535 0 l 535 582 l 231 582 l 231 0 l 133 0 l 133 582 l 26 582 l 26 653 l 133 653 l 133 772 q 188 937 133 881 q 340 993 242 993 q 414 983 376 993 q 483 957 451 974 l 458 890 q 363 914 407 914 q 263 876 294 914 q 231 746 231 838 l 231 653 l 535 653 l 535 772 q 589 937 535 881 q 742 993 643 993 z "},"ﬃ":{"ha":1124,"x_min":26,"x_max":1029,"o":"m 340 993 q 414 984 376 993 q 483 958 451 975 l 458 890 q 408 909 431 904 q 363 914 386 914 q 263 876 294 914 q 231 746 231 838 l 231 653 l 533 653 l 533 731 q 601 924 533 856 q 788 993 669 993 q 879 982 829 993 q 965 954 929 971 l 946 885 q 877 906 914 899 q 810 914 840 914 q 675 870 721 914 q 629 718 629 826 l 629 653 l 1029 653 l 1029 0 l 932 0 l 932 582 l 629 582 l 629 0 l 533 0 l 533 582 l 231 582 l 231 0 l 133 0 l 133 582 l 26 582 l 26 653 l 133 653 l 133 772 q 188 937 133 881 q 340 993 242 993 z "},"ﬄ":{"ha":1115,"x_min":26,"x_max":1026,"o":"m 340 993 q 414 984 376 993 q 483 958 451 975 l 458 890 q 408 909 431 904 q 363 914 386 914 q 263 876 294 914 q 231 746 231 838 l 231 653 l 532 653 l 532 731 q 603 924 532 856 q 792 993 674 993 q 922 976 863 993 q 1026 936 982 960 l 1026 0 l 931 0 l 931 582 l 629 582 l 629 0 l 532 0 l 532 582 l 231 582 l 231 0 l 133 0 l 133 582 l 26 582 l 26 653 l 133 653 l 133 772 q 188 937 133 881 q 340 993 242 993 m 629 653 l 931 653 l 931 892 q 811 914 871 914 q 675 870 721 914 q 629 718 629 826 l 629 653 z "},"ﬁ":{"ha":721,"x_min":26,"x_max":631,"o":"m 533 0 l 533 582 l 231 582 l 231 0 l 133 0 l 133 582 l 26 582 l 26 653 l 133 653 l 133 731 q 202 924 133 856 q 389 993 271 993 q 481 982 431 993 q 567 954 531 971 l 546 885 q 477 906 514 899 q 411 914 440 914 q 276 870 321 914 q 231 718 231 826 l 231 653 l 631 653 l 631 0 l 533 0 z "},"ﬂ":{"ha":736,"x_min":26,"x_max":628,"o":"m 532 0 l 532 582 l 231 582 l 231 0 l 133 0 l 133 582 l 26 582 l 26 653 l 133 653 l 133 731 q 204 924 133 856 q 393 993 275 993 q 524 976 464 993 q 628 936 583 960 l 628 0 l 532 0 m 231 653 l 532 653 l 532 892 q 413 914 472 914 q 276 870 322 914 q 231 718 231 826 l 231 653 z "},"ğ":{"ha":744,"x_min":54,"x_max":703,"o":"m 94 436 q 113 533 94 490 q 166 603 132 575 q 247 647 200 632 q 350 661 294 661 q 392 658 374 661 q 429 653 411 656 l 703 653 l 703 579 l 644 579 l 528 592 q 578 524 560 565 q 597 438 597 483 q 578 341 597 383 q 527 269 560 299 q 449 226 494 240 q 349 211 403 211 q 310 213 329 211 q 274 218 292 214 q 225 184 242 206 q 208 139 208 163 q 231 92 208 106 q 292 78 253 78 l 460 78 q 624 31 568 78 q 681 -96 681 -17 q 594 -260 681 -200 q 354 -319 507 -319 q 135 -267 215 -319 q 54 -119 54 -215 q 86 -33 54 -68 q 171 21 118 1 q 132 59 147 36 q 117 118 117 82 q 144 193 117 163 q 211 240 171 224 q 126 313 158 265 q 94 436 94 361 m 233 0 q 174 -42 196 -15 q 151 -106 151 -69 q 205 -208 151 -174 q 358 -242 258 -242 q 463 -230 419 -242 q 533 -198 506 -218 q 572 -153 560 -178 q 583 -103 583 -128 q 572 -52 583 -72 q 539 -20 560 -32 q 489 -4 518 -8 q 425 0 460 0 l 233 0 m 497 433 q 457 550 497 511 q 350 589 417 589 q 239 551 283 589 q 194 439 194 514 q 238 322 194 360 q 349 283 282 283 q 456 321 415 283 q 497 433 497 358 m 260 944 q 286 867 263 896 q 371 838 310 838 q 449 865 422 838 q 479 944 476 893 l 556 944 q 508 821 556 869 q 371 772 461 772 q 285 787 321 772 q 227 825 250 801 q 193 880 204 849 q 182 944 182 911 l 260 944 z "},"ĝ":{"ha":744,"x_min":54,"x_max":703,"o":"m 94 436 q 113 533 94 490 q 166 603 132 575 q 247 647 200 632 q 350 661 294 661 q 392 658 374 661 q 429 653 411 656 l 703 653 l 703 579 l 644 579 l 528 592 q 578 524 560 565 q 597 438 597 483 q 578 341 597 383 q 527 269 560 299 q 449 226 494 240 q 349 211 403 211 q 310 213 329 211 q 274 218 292 214 q 225 184 242 206 q 208 139 208 163 q 231 92 208 106 q 292 78 253 78 l 460 78 q 624 31 568 78 q 681 -96 681 -17 q 594 -260 681 -200 q 354 -319 507 -319 q 135 -267 215 -319 q 54 -119 54 -215 q 86 -33 54 -68 q 171 21 118 1 q 132 59 147 36 q 117 118 117 82 q 144 193 117 163 q 211 240 171 224 q 126 313 158 265 q 94 436 94 361 m 233 0 q 174 -42 196 -15 q 151 -106 151 -69 q 205 -208 151 -174 q 358 -242 258 -242 q 463 -230 419 -242 q 533 -198 506 -218 q 572 -153 560 -178 q 583 -103 583 -128 q 572 -52 583 -72 q 539 -20 560 -32 q 489 -4 518 -8 q 425 0 460 0 l 233 0 m 497 433 q 457 550 497 511 q 350 589 417 589 q 239 551 283 589 q 194 439 194 514 q 238 322 194 360 q 349 283 282 283 q 456 321 415 283 q 497 433 497 358 m 560 772 l 468 772 l 361 897 l 251 772 l 156 772 l 319 958 l 401 958 l 560 772 z "},"ģ":{"ha":744,"x_min":54,"x_max":703,"o":"m 94 436 q 113 533 94 490 q 166 603 132 575 q 247 647 200 632 q 350 661 294 661 q 392 658 374 661 q 429 653 411 656 l 703 653 l 703 579 l 644 579 l 528 592 q 578 524 560 565 q 597 438 597 483 q 578 341 597 383 q 527 269 560 299 q 449 226 494 240 q 349 211 403 211 q 310 213 329 211 q 274 218 292 214 q 225 184 242 206 q 208 139 208 163 q 231 92 208 106 q 292 78 253 78 l 460 78 q 624 31 568 78 q 681 -96 681 -17 q 594 -260 681 -200 q 354 -319 507 -319 q 135 -267 215 -319 q 54 -119 54 -215 q 86 -33 54 -68 q 171 21 118 1 q 132 59 147 36 q 117 118 117 82 q 144 193 117 163 q 211 240 171 224 q 126 313 158 265 q 94 436 94 361 m 233 0 q 174 -42 196 -15 q 151 -106 151 -69 q 205 -208 151 -174 q 358 -242 258 -242 q 463 -230 419 -242 q 533 -198 506 -218 q 572 -153 560 -178 q 583 -103 583 -128 q 572 -52 583 -72 q 539 -20 560 -32 q 489 -4 518 -8 q 425 0 460 0 l 233 0 m 497 433 q 457 550 497 511 q 350 589 417 589 q 239 551 283 589 q 194 439 194 514 q 238 322 194 360 q 349 283 282 283 q 456 321 415 283 q 497 433 497 358 m 357 921 q 399 898 379 917 q 419 847 419 879 q 401 797 419 818 q 350 776 382 776 q 322 782 336 776 q 295 800 307 788 q 276 833 283 813 q 268 883 268 853 q 279 947 268 915 q 310 1006 290 978 q 356 1056 329 1033 q 411 1096 382 1079 l 443 1051 q 374 994 403 1029 q 340 924 346 960 l 357 921 z "},"ġ":{"ha":744,"x_min":54,"x_max":703,"o":"m 94 436 q 113 533 94 490 q 166 603 132 575 q 247 647 200 632 q 350 661 294 661 q 392 658 374 661 q 429 653 411 656 l 703 653 l 703 579 l 644 579 l 528 592 q 578 524 560 565 q 597 438 597 483 q 578 341 597 383 q 527 269 560 299 q 449 226 494 240 q 349 211 403 211 q 310 213 329 211 q 274 218 292 214 q 225 184 242 206 q 208 139 208 163 q 231 92 208 106 q 292 78 253 78 l 460 78 q 624 31 568 78 q 681 -96 681 -17 q 594 -260 681 -200 q 354 -319 507 -319 q 135 -267 215 -319 q 54 -119 54 -215 q 86 -33 54 -68 q 171 21 118 1 q 132 59 147 36 q 117 118 117 82 q 144 193 117 163 q 211 240 171 224 q 126 313 158 265 q 94 436 94 361 m 233 0 q 174 -42 196 -15 q 151 -106 151 -69 q 205 -208 151 -174 q 358 -242 258 -242 q 463 -230 419 -242 q 533 -198 506 -218 q 572 -153 560 -178 q 583 -103 583 -128 q 572 -52 583 -72 q 539 -20 560 -32 q 489 -4 518 -8 q 425 0 460 0 l 233 0 m 497 433 q 457 550 497 511 q 350 589 417 589 q 239 551 283 589 q 194 439 194 514 q 238 322 194 360 q 349 283 282 283 q 456 321 415 283 q 497 433 497 358 m 289 871 q 308 919 289 899 q 354 939 326 939 q 401 919 382 939 q 421 871 421 899 q 401 820 421 839 q 354 801 382 801 q 308 820 326 801 q 289 871 289 839 z "},"ħ":{"ha":725,"x_min":-14,"x_max":629,"o":"m 375 875 l 375 803 l 193 803 l 193 567 q 294 634 239 607 q 417 661 350 661 q 511 645 471 661 q 577 601 551 629 q 616 534 603 572 q 629 450 629 496 l 629 0 l 532 0 l 532 424 q 495 545 532 508 q 392 582 458 582 q 292 557 343 582 q 193 488 242 532 l 193 0 l 96 0 l 96 803 l -14 803 l -14 875 l 96 875 l 96 986 l 193 986 l 193 875 l 375 875 z "},"ĥ":{"ha":724,"x_min":-60,"x_max":629,"o":"m 193 0 l 96 0 l 96 965 l 193 965 l 193 567 q 294 634 239 607 q 417 661 350 661 q 511 645 471 661 q 577 601 551 629 q 616 534 603 572 q 629 450 629 496 l 629 0 l 532 0 l 532 424 q 495 545 532 508 q 392 582 458 582 q 292 557 343 582 q 193 488 242 532 l 193 0 m 344 1022 l 253 1022 l 144 1149 l 36 1022 l -60 1022 l 104 1208 l 186 1208 l 344 1022 z "},"ĭ":{"ha":319,"x_min":-28,"x_max":346,"o":"m 111 0 l 111 653 l 208 653 l 208 0 l 111 0 m 49 944 q 75 867 51 896 q 160 838 99 838 q 239 865 211 838 q 269 944 267 893 l 346 944 q 298 821 346 869 q 160 772 250 772 q 74 787 110 772 q 16 825 39 801 q -17 880 -7 849 q -28 944 -28 911 l 49 944 z "},"ī":{"ha":319,"x_min":-4,"x_max":322,"o":"m 111 0 l 111 653 l 208 653 l 208 0 l 111 0 m 322 904 l 322 836 l -4 836 l -4 904 l 322 904 z "},"į":{"ha":319,"x_min":-3,"x_max":257,"o":"m 208 0 q 114 -63 149 -32 q 79 -139 79 -94 q 104 -196 79 -175 q 169 -217 129 -217 q 210 -213 192 -217 q 242 -204 228 -210 l 257 -257 q 208 -278 235 -271 q 149 -286 181 -286 q 41 -251 85 -286 q -3 -151 -3 -217 q 8 -101 -3 -125 q 34 -58 18 -78 q 70 -24 50 -39 q 111 0 90 -10 l 111 653 l 208 653 l 208 0 m 160 822 q 114 840 132 822 q 96 888 96 858 q 114 935 96 917 q 160 953 132 953 q 203 935 185 953 q 222 888 222 918 q 204 840 222 857 q 160 822 186 822 z "},"ĩ":{"ha":319,"x_min":-50,"x_max":369,"o":"m 111 0 l 111 653 l 208 653 l 208 0 l 111 0 m -50 775 q -22 881 -50 840 q 69 922 6 922 q 122 911 99 922 q 165 887 144 900 q 206 863 186 874 q 247 851 225 851 q 308 926 306 851 l 369 926 q 342 821 369 861 q 256 781 314 781 q 199 792 225 781 q 151 815 174 803 q 110 839 129 828 q 72 850 90 850 q 11 775 13 850 l -50 775 z "},"ĳ":{"ha":583,"x_min":96,"x_max":488,"o":"m 113 0 l 113 653 l 210 653 l 210 0 l 113 0 m 163 821 q 115 839 135 821 q 96 886 96 857 q 115 934 96 915 q 161 953 133 953 q 207 935 188 953 q 226 886 226 917 q 207 838 226 856 q 163 821 188 821 m 375 653 l 472 653 l 472 100 q 463 -45 472 21 q 428 -163 453 -111 q 362 -256 404 -215 q 253 -326 319 -297 l 208 -256 q 285 -206 254 -232 q 337 -143 317 -181 q 366 -51 357 -106 q 375 86 375 4 l 375 653 m 422 821 q 376 839 394 821 q 357 886 357 857 q 376 934 357 915 q 422 953 394 953 q 467 935 447 953 q 488 886 488 917 q 468 838 488 856 q 422 821 449 821 z "},"ĵ":{"ha":321,"x_min":-58,"x_max":364,"o":"m 108 653 l 206 653 l 206 100 q 196 -45 206 21 q 162 -163 186 -111 q 95 -256 138 -215 q -14 -326 53 -297 l -58 -256 q 19 -206 -12 -232 q 70 -143 50 -181 q 99 -51 90 -106 q 108 86 108 4 l 108 653 m 364 772 l 272 772 l 164 899 l 56 772 l -40 772 l 124 958 l 206 958 l 364 772 z "},"ķ":{"ha":626,"x_min":96,"x_max":621,"o":"m 192 239 l 192 0 l 96 0 l 96 986 l 192 986 l 192 347 l 488 653 l 608 653 l 336 378 l 621 0 l 506 0 l 272 319 l 192 239 m 329 -256 q 287 -233 307 -251 q 267 -182 267 -215 q 285 -133 267 -153 q 336 -112 304 -112 q 365 -118 350 -112 q 391 -136 379 -124 q 410 -169 403 -149 q 418 -219 418 -189 q 407 -282 418 -251 q 376 -340 396 -312 q 331 -392 357 -368 q 275 -431 304 -415 l 243 -387 q 312 -330 283 -365 q 346 -260 340 -294 l 329 -256 z "},"ĺ":{"ha":286,"x_min":96,"x_max":315,"o":"m 96 0 l 96 965 l 192 965 l 192 0 l 96 0 m 175 1042 l 96 1042 l 200 1228 l 315 1228 l 175 1042 z "},"ľ":{"ha":449,"x_min":96,"x_max":469,"o":"m 96 0 l 96 986 l 192 986 l 192 0 l 96 0 m 381 871 q 338 893 358 875 q 318 944 318 911 q 337 994 318 974 q 388 1014 356 1014 q 416 1008 401 1014 q 442 990 431 1003 q 462 958 454 978 q 469 907 469 938 q 458 844 469 875 q 428 786 447 814 q 382 735 408 758 q 325 696 356 711 l 294 739 q 363 797 335 761 q 396 867 392 832 l 381 871 z "},"ļ":{"ha":286,"x_min":49,"x_max":224,"o":"m 96 0 l 96 986 l 192 986 l 192 0 l 96 0 m 135 -256 q 92 -233 113 -251 q 72 -182 72 -215 q 91 -133 72 -153 q 142 -112 110 -112 q 170 -118 156 -112 q 197 -136 185 -124 q 216 -169 208 -149 q 224 -219 224 -189 q 213 -282 224 -251 q 182 -340 201 -312 q 136 -392 163 -368 q 79 -431 110 -415 l 49 -387 q 117 -330 89 -365 q 150 -260 146 -294 l 135 -256 z "},"ŀ":{"ha":392,"x_min":96,"x_max":440,"o":"m 96 0 l 96 986 l 192 986 l 192 0 l 96 0 m 303 458 q 322 512 303 490 q 372 533 342 533 q 420 512 400 533 q 440 458 440 490 q 420 406 440 426 q 372 385 400 385 q 322 406 342 385 q 303 458 303 426 z "},"ł":{"ha":468,"x_min":7,"x_max":481,"o":"m 438 692 l 481 649 l 264 432 l 264 0 l 168 0 l 168 358 l 50 240 l 7 283 l 168 444 l 168 986 l 264 986 l 264 519 l 438 692 z "},"ń":{"ha":715,"x_min":93,"x_max":621,"o":"m 190 0 l 93 0 l 93 653 l 167 653 l 182 563 q 284 635 231 608 q 407 661 338 661 q 564 606 507 661 q 621 450 621 550 l 621 0 l 524 0 l 524 432 q 490 540 524 497 q 379 582 457 582 q 281 558 331 582 q 190 489 231 533 l 190 0 m 381 772 l 301 772 l 406 958 l 521 958 l 381 772 z "},"ŉ":{"ha":729,"x_min":-31,"x_max":635,"o":"m 204 0 l 107 0 l 107 653 l 182 653 l 196 563 q 299 635 244 608 q 422 661 353 661 q 578 606 522 661 q 635 450 635 550 l 635 0 l 538 0 l 538 432 q 505 540 538 497 q 394 582 472 582 q 294 558 344 582 q 204 489 244 533 l 204 0 m 56 871 q 13 893 33 875 q -7 944 -7 911 q 12 994 -7 974 q 63 1014 31 1014 q 91 1008 76 1014 q 117 990 106 1003 q 137 958 129 978 q 144 907 144 938 q 133 844 144 875 q 103 786 122 814 q 57 735 83 758 q 0 696 31 711 l -31 739 q 38 797 10 761 q 71 867 67 832 l 56 871 z "},"ň":{"ha":715,"x_min":93,"x_max":621,"o":"m 190 0 l 93 0 l 93 653 l 167 653 l 182 563 q 284 635 231 608 q 407 661 338 661 q 564 606 507 661 q 621 450 621 550 l 621 0 l 524 0 l 524 432 q 490 540 524 497 q 379 582 457 582 q 281 558 331 582 q 190 489 231 533 l 190 0 m 408 772 l 326 772 l 168 958 l 263 958 l 368 832 l 474 958 l 567 958 l 408 772 z "},"ņ":{"ha":715,"x_min":93,"x_max":621,"o":"m 190 0 l 93 0 l 93 653 l 167 653 l 182 563 q 284 635 231 608 q 407 661 338 661 q 564 606 507 661 q 621 450 621 550 l 621 0 l 524 0 l 524 432 q 490 540 524 497 q 379 582 457 582 q 281 558 331 582 q 190 489 231 533 l 190 0 m 357 -256 q 315 -233 335 -251 q 294 -182 294 -215 q 313 -133 294 -153 q 364 -112 332 -112 q 392 -118 378 -112 q 419 -136 407 -124 q 438 -169 431 -149 q 446 -219 446 -189 q 435 -282 446 -251 q 404 -340 424 -312 q 358 -392 385 -368 q 301 -431 332 -415 l 271 -387 q 340 -330 311 -365 q 372 -260 368 -294 l 357 -256 z "},"ŏ":{"ha":718,"x_min":53,"x_max":664,"o":"m 664 333 q 640 187 664 251 q 575 78 617 122 q 477 10 533 33 q 357 -12 421 -12 q 236 9 292 -12 q 140 73 181 31 q 76 177 100 115 q 53 319 53 239 q 77 465 53 401 q 143 573 101 529 q 241 639 185 617 q 363 661 297 661 q 482 640 426 661 q 578 578 538 619 q 641 475 618 536 q 664 333 664 414 m 563 326 q 545 444 563 394 q 499 524 528 493 q 434 570 471 556 q 358 585 397 585 q 283 571 319 585 q 217 526 246 557 q 172 447 189 496 q 154 326 154 397 q 172 206 154 256 q 218 124 189 156 q 285 78 247 93 q 361 64 322 64 q 436 77 400 64 q 501 122 472 90 q 546 203 529 153 q 563 326 563 253 m 253 944 q 279 867 256 896 q 364 838 303 838 q 442 865 415 838 q 472 944 469 893 l 549 944 q 501 821 549 869 q 364 772 454 772 q 278 787 314 772 q 220 825 243 801 q 186 880 197 849 q 175 944 175 911 l 253 944 z "},"ő":{"ha":718,"x_min":53,"x_max":664,"o":"m 664 333 q 640 187 664 251 q 575 78 617 122 q 477 10 533 33 q 357 -12 421 -12 q 236 9 292 -12 q 140 73 181 31 q 76 177 100 115 q 53 319 53 239 q 77 465 53 401 q 143 573 101 529 q 241 639 185 617 q 363 661 297 661 q 482 640 426 661 q 578 578 538 619 q 641 475 618 536 q 664 333 664 414 m 563 326 q 545 444 563 394 q 499 524 528 493 q 434 570 471 556 q 358 585 397 585 q 283 571 319 585 q 217 526 246 557 q 172 447 189 496 q 154 326 154 397 q 172 206 154 256 q 218 124 189 156 q 285 78 247 93 q 361 64 322 64 q 436 77 400 64 q 501 122 472 90 q 546 203 529 153 q 563 326 563 253 m 256 772 l 179 772 l 293 958 l 406 958 l 256 772 m 485 772 l 408 772 l 522 958 l 635 958 l 485 772 z "},"ō":{"ha":718,"x_min":53,"x_max":664,"o":"m 664 333 q 640 187 664 251 q 575 78 617 122 q 477 10 533 33 q 357 -12 421 -12 q 236 9 292 -12 q 140 73 181 31 q 76 177 100 115 q 53 319 53 239 q 77 465 53 401 q 143 573 101 529 q 241 639 185 617 q 363 661 297 661 q 482 640 426 661 q 578 578 538 619 q 641 475 618 536 q 664 333 664 414 m 563 326 q 545 444 563 394 q 499 524 528 493 q 434 570 471 556 q 358 585 397 585 q 283 571 319 585 q 217 526 246 557 q 172 447 189 496 q 154 326 154 397 q 172 206 154 256 q 218 124 189 156 q 285 78 247 93 q 361 64 322 64 q 436 77 400 64 q 501 122 472 90 q 546 203 529 153 q 563 326 563 253 m 525 906 l 525 835 l 199 835 l 199 906 l 525 906 z "},"ǿ":{"ha":718,"x_min":53,"x_max":664,"o":"m 494 790 l 546 778 l 500 632 q 619 522 574 596 q 664 333 664 449 q 640 187 664 251 q 575 78 617 122 q 477 10 533 33 q 357 -12 421 -12 q 292 -6 324 -12 l 254 -125 l 203 -111 l 242 8 q 105 117 157 40 q 53 319 53 194 q 77 465 53 401 q 143 573 101 529 q 241 639 185 617 q 363 661 297 661 q 450 650 406 661 l 494 790 m 358 585 q 283 571 319 585 q 217 526 246 557 q 172 447 189 496 q 154 326 154 397 q 187 169 154 226 q 268 86 219 111 l 422 574 q 358 585 392 585 m 563 326 q 536 466 563 411 q 469 549 510 521 l 318 68 q 361 64 339 64 q 436 77 400 64 q 501 122 472 90 q 546 203 529 153 q 563 326 563 253 m 333 772 l 254 772 l 358 958 l 474 958 l 333 772 z "},"ŕ":{"ha":492,"x_min":92,"x_max":485,"o":"m 92 0 l 92 653 l 161 653 l 179 522 q 258 623 203 585 q 385 661 314 661 q 444 656 419 661 q 485 643 469 650 l 467 557 q 429 571 450 565 q 381 576 408 576 q 306 562 340 576 q 244 519 271 547 q 203 449 218 492 q 188 350 188 406 l 188 0 l 92 0 m 190 772 l 111 772 l 215 958 l 331 958 l 190 772 z "},"ř":{"ha":492,"x_min":54,"x_max":485,"o":"m 92 0 l 92 653 l 161 653 l 179 522 q 258 623 203 585 q 385 661 314 661 q 444 656 419 661 q 485 643 469 650 l 467 557 q 429 571 450 565 q 381 576 408 576 q 306 562 340 576 q 244 519 271 547 q 203 449 218 492 q 188 350 188 406 l 188 0 l 92 0 m 294 772 l 213 772 l 54 958 l 149 958 l 254 832 l 360 958 l 453 958 l 294 772 z "},"ŗ":{"ha":492,"x_min":44,"x_max":485,"o":"m 92 0 l 92 653 l 161 653 l 179 522 q 258 623 203 585 q 385 661 314 661 q 444 656 419 661 q 485 643 469 650 l 467 557 q 429 571 450 565 q 381 576 408 576 q 306 562 340 576 q 244 519 271 547 q 203 449 218 492 q 188 350 188 406 l 188 0 l 92 0 m 131 -256 q 88 -233 108 -251 q 68 -182 68 -215 q 87 -133 68 -153 q 138 -112 106 -112 q 166 -118 151 -112 q 192 -136 181 -124 q 212 -169 204 -149 q 219 -219 219 -189 q 208 -282 219 -251 q 178 -340 197 -312 q 132 -392 158 -368 q 75 -431 106 -415 l 44 -387 q 113 -330 85 -365 q 146 -260 142 -294 l 131 -256 z "},"ś":{"ha":557,"x_min":54,"x_max":503,"o":"m 450 550 q 373 578 410 569 q 296 586 336 586 q 190 558 225 586 q 156 486 156 531 q 183 423 156 446 q 285 378 210 400 l 326 365 q 458 294 413 339 q 503 179 503 250 q 440 42 503 96 q 261 -12 378 -12 q 146 -2 199 -12 q 54 28 93 8 l 79 104 q 160 74 117 85 q 254 64 203 64 q 365 91 325 64 q 404 171 404 118 q 373 241 404 215 q 272 289 342 267 l 228 303 q 100 373 142 331 q 58 481 58 415 q 75 554 58 521 q 122 611 92 588 q 194 648 153 635 q 285 661 235 661 q 381 653 331 661 q 474 625 431 644 l 450 550 m 267 772 l 188 772 l 292 958 l 407 958 l 267 772 z "},"ş":{"ha":557,"x_min":54,"x_max":503,"o":"m 450 550 q 373 578 410 569 q 296 586 336 586 q 190 558 225 586 q 156 486 156 531 q 183 423 156 446 q 285 378 210 400 l 326 365 q 458 294 413 339 q 503 179 503 250 q 449 49 503 101 q 296 -10 396 -3 l 267 -67 q 363 -97 331 -69 q 396 -164 396 -124 q 383 -214 396 -193 q 349 -249 371 -235 q 300 -271 328 -264 q 242 -278 272 -278 q 183 -273 210 -278 q 139 -261 156 -268 l 154 -208 q 232 -222 193 -222 q 296 -209 272 -222 q 319 -167 319 -196 q 290 -124 319 -139 q 186 -108 261 -108 l 232 -11 q 54 28 126 -7 l 79 104 q 160 74 117 85 q 254 64 203 64 q 365 91 325 64 q 404 171 404 118 q 373 241 404 215 q 272 289 342 267 l 228 303 q 100 373 142 331 q 58 481 58 415 q 75 554 58 521 q 122 611 92 588 q 194 648 153 635 q 285 661 235 661 q 381 653 331 661 q 474 625 431 644 l 450 550 z "},"ŝ":{"ha":557,"x_min":54,"x_max":503,"o":"m 450 550 q 373 578 410 569 q 296 586 336 586 q 190 558 225 586 q 156 486 156 531 q 183 423 156 446 q 285 378 210 400 l 326 365 q 458 294 413 339 q 503 179 503 250 q 440 42 503 96 q 261 -12 378 -12 q 146 -2 199 -12 q 54 28 93 8 l 79 104 q 160 74 117 85 q 254 64 203 64 q 365 91 325 64 q 404 171 404 118 q 373 241 404 215 q 272 289 342 267 l 228 303 q 100 373 142 331 q 58 481 58 415 q 75 554 58 521 q 122 611 92 588 q 194 648 153 635 q 285 661 235 661 q 381 653 331 661 q 474 625 431 644 l 450 550 m 485 772 l 393 772 l 286 897 l 176 772 l 81 772 l 244 958 l 326 958 l 485 772 z "},"ș":{"ha":557,"x_min":54,"x_max":503,"o":"m 450 550 q 373 578 410 569 q 296 586 336 586 q 190 558 225 586 q 156 486 156 531 q 183 423 156 446 q 285 378 210 400 l 326 365 q 458 294 413 339 q 503 179 503 250 q 440 42 503 96 q 261 -12 378 -12 q 146 -2 199 -12 q 54 28 93 8 l 79 104 q 160 74 117 85 q 254 64 203 64 q 365 91 325 64 q 404 171 404 118 q 394 215 404 196 q 362 249 383 233 q 307 276 340 264 q 228 303 274 289 q 58 481 58 357 q 75 554 58 521 q 122 611 92 588 q 194 648 153 635 q 285 661 235 661 q 381 653 331 661 q 474 625 431 644 l 450 550 m 272 -256 q 230 -233 250 -251 q 210 -182 210 -215 q 228 -133 210 -153 q 279 -112 247 -112 q 308 -118 293 -112 q 334 -136 322 -124 q 353 -169 346 -149 q 361 -219 361 -189 q 350 -282 361 -251 q 319 -340 339 -312 q 274 -392 300 -368 q 217 -431 247 -415 l 186 -387 q 255 -330 226 -365 q 288 -260 283 -294 l 272 -256 z "},"ﬆ":{"ha":1050,"x_min":54,"x_max":1019,"o":"m 683 736 q 638 906 683 854 q 514 957 593 957 q 456 947 483 957 q 408 918 429 938 q 376 870 388 899 q 364 806 364 842 q 394 692 364 735 q 474 625 425 649 l 450 550 q 373 578 410 569 q 296 586 336 586 q 190 558 225 586 q 156 486 156 531 q 183 423 156 446 q 285 378 210 400 l 326 365 q 458 294 413 339 q 503 179 503 250 q 440 42 503 96 q 261 -12 378 -12 q 146 -2 199 -12 q 54 28 93 8 l 79 104 q 160 74 117 85 q 254 64 203 64 q 365 91 325 64 q 404 171 404 118 q 373 241 404 215 q 272 289 342 267 l 228 303 q 100 374 142 331 q 58 482 58 417 q 117 613 58 564 q 279 661 176 661 q 304 661 290 661 q 331 658 318 661 l 333 663 q 314 683 325 671 q 293 715 303 696 q 276 759 283 733 q 269 821 269 785 q 288 904 269 865 q 338 972 306 943 q 416 1017 371 1000 q 515 1033 461 1033 q 633 1013 583 1033 q 715 953 682 992 q 763 861 747 915 q 779 742 779 807 l 779 653 l 985 653 l 985 579 l 779 579 l 779 175 q 806 99 779 118 q 878 79 833 79 q 947 86 913 79 q 1004 101 981 93 l 1019 28 q 951 8 992 17 q 861 0 910 0 q 683 163 683 0 l 683 579 l 582 579 l 582 653 l 683 653 l 683 736 z "},"ŧ":{"ha":501,"x_min":28,"x_max":472,"o":"m 431 417 l 431 346 l 232 346 l 232 175 q 259 99 232 118 q 331 79 286 79 q 399 86 365 79 q 457 101 432 93 l 472 28 q 403 8 444 17 q 313 0 361 0 q 135 163 135 0 l 135 346 l 28 346 l 28 417 l 135 417 l 135 579 l 28 579 l 28 653 l 135 653 l 135 861 l 232 861 l 232 653 l 438 653 l 438 579 l 232 579 l 232 417 l 431 417 z "},"ť":{"ha":639,"x_min":28,"x_max":660,"o":"m 438 579 l 232 579 l 232 175 q 259 99 232 118 q 331 79 286 79 q 399 86 365 79 q 457 101 432 93 l 472 28 q 403 8 444 17 q 313 0 361 0 q 135 163 135 0 l 135 579 l 28 579 l 28 653 l 135 653 l 135 861 l 232 861 l 232 653 l 438 653 l 438 579 m 571 871 q 528 893 549 875 q 508 944 508 911 q 527 994 508 974 q 578 1014 546 1014 q 606 1008 592 1014 q 633 990 621 1003 q 652 958 644 978 q 660 907 660 938 q 649 844 660 875 q 618 786 638 814 q 572 735 599 758 q 517 696 546 711 l 485 739 q 553 797 525 761 q 588 867 582 832 l 571 871 z "},"ţ":{"ha":501,"x_min":28,"x_max":472,"o":"m 438 579 l 232 579 l 232 175 q 259 99 232 118 q 331 79 286 79 q 399 86 365 79 q 457 101 432 93 l 472 28 q 403 8 444 17 q 313 0 361 0 q 135 163 135 0 l 135 579 l 28 579 l 28 653 l 135 653 l 135 861 l 232 861 l 232 653 l 438 653 l 438 579 m 286 -256 q 244 -233 264 -251 q 224 -182 224 -215 q 242 -133 224 -153 q 293 -112 261 -112 q 322 -118 307 -112 q 348 -136 336 -124 q 367 -169 360 -149 q 375 -219 375 -189 q 364 -282 375 -251 q 333 -340 353 -312 q 288 -392 314 -368 q 232 -431 261 -415 l 200 -387 q 269 -330 240 -365 q 303 -260 297 -294 l 286 -256 z "},"ŭ":{"ha":724,"x_min":94,"x_max":629,"o":"m 532 653 l 629 653 l 629 0 l 556 0 l 542 82 l 538 82 q 447 15 501 43 q 321 -12 393 -12 q 157 44 219 -12 q 94 217 94 100 l 94 653 l 192 653 l 192 232 q 203 151 192 183 q 234 100 214 119 q 281 73 254 81 q 340 65 308 65 q 449 92 400 65 q 532 160 499 118 l 532 653 m 249 944 q 275 867 251 896 q 360 838 299 838 q 439 865 411 838 q 469 944 467 893 l 546 944 q 498 821 546 869 q 360 772 450 772 q 274 787 310 772 q 216 825 239 801 q 183 880 193 849 q 172 944 172 911 l 249 944 z "},"ű":{"ha":731,"x_min":94,"x_max":656,"o":"m 532 653 l 629 653 l 629 0 l 556 0 l 542 82 l 538 82 q 447 15 501 43 q 321 -12 393 -12 q 157 44 219 -12 q 94 217 94 100 l 94 653 l 192 653 l 192 232 q 203 151 192 183 q 234 100 214 119 q 281 73 254 81 q 340 65 308 65 q 449 92 400 65 q 532 160 499 118 l 532 653 m 276 772 l 200 772 l 314 958 l 426 958 l 276 772 m 506 772 l 429 772 l 543 958 l 656 958 l 506 772 z "},"ū":{"ha":724,"x_min":94,"x_max":629,"o":"m 532 653 l 629 653 l 629 0 l 556 0 l 542 82 l 538 82 q 447 15 501 43 q 321 -12 393 -12 q 157 44 219 -12 q 94 217 94 100 l 94 653 l 192 653 l 192 232 q 203 151 192 183 q 234 100 214 119 q 281 73 254 81 q 340 65 308 65 q 449 92 400 65 q 532 160 499 118 l 532 653 m 525 906 l 525 835 l 199 835 l 199 906 l 525 906 z "},"ų":{"ha":724,"x_min":94,"x_max":696,"o":"m 532 653 l 629 653 l 629 0 q 554 -61 583 -26 q 525 -139 525 -96 q 549 -196 525 -175 q 608 -217 572 -217 q 649 -213 631 -217 q 681 -204 667 -210 l 696 -257 q 646 -278 672 -271 q 588 -286 619 -286 q 484 -251 525 -286 q 443 -151 443 -217 q 477 -60 443 -99 q 556 1 511 -21 l 542 82 l 538 82 q 447 15 501 43 q 321 -12 393 -12 q 157 44 219 -12 q 94 217 94 100 l 94 653 l 192 653 l 192 232 q 203 151 192 183 q 234 100 214 119 q 281 73 254 81 q 340 65 308 65 q 449 92 400 65 q 532 160 499 118 l 532 653 z "},"ů":{"ha":724,"x_min":94,"x_max":629,"o":"m 532 653 l 629 653 l 629 0 l 556 0 l 542 82 l 538 82 q 447 15 501 43 q 321 -12 393 -12 q 157 44 219 -12 q 94 217 94 100 l 94 653 l 192 653 l 192 232 q 203 151 192 183 q 234 100 214 119 q 281 73 254 81 q 340 65 308 65 q 449 92 400 65 q 532 160 499 118 l 532 653 m 235 865 q 273 952 235 924 q 363 981 311 981 q 452 952 415 981 q 489 865 489 924 q 478 815 489 836 q 450 778 468 793 q 410 757 432 764 q 363 750 388 750 q 274 780 313 750 q 235 865 235 810 m 294 865 q 311 813 294 833 q 363 792 328 792 q 413 813 396 792 q 431 865 431 833 q 413 917 431 897 q 363 938 394 938 q 312 917 329 938 q 294 865 294 897 z "},"ũ":{"ha":724,"x_min":94,"x_max":629,"o":"m 532 653 l 629 653 l 629 0 l 556 0 l 542 82 l 538 82 q 447 15 501 43 q 321 -12 393 -12 q 157 44 219 -12 q 94 217 94 100 l 94 653 l 192 653 l 192 232 q 203 151 192 183 q 234 100 214 119 q 281 73 254 81 q 340 65 308 65 q 449 92 400 65 q 532 160 499 118 l 532 653 m 149 775 q 177 881 149 840 q 268 922 206 922 q 321 911 297 922 q 365 887 344 900 q 406 863 386 874 q 447 851 425 851 q 507 926 504 851 l 568 926 q 540 821 568 861 q 454 781 513 781 q 398 792 424 781 q 350 815 372 803 q 308 839 328 828 q 271 850 289 850 q 228 832 243 850 q 211 775 213 814 l 149 775 z "},"ẃ":{"ha":947,"x_min":15,"x_max":935,"o":"m 15 653 l 117 653 l 229 242 l 261 78 l 265 78 l 304 242 l 424 653 l 528 653 l 646 242 l 685 78 l 689 78 l 726 242 l 838 653 l 935 653 l 743 0 l 632 0 l 514 414 l 475 582 l 435 414 l 314 0 l 210 0 l 15 653 m 472 772 l 393 772 l 497 958 l 613 958 l 472 772 z "},"ŵ":{"ha":947,"x_min":15,"x_max":935,"o":"m 15 653 l 117 653 l 229 242 l 261 78 l 265 78 l 304 242 l 424 653 l 528 653 l 646 242 l 685 78 l 689 78 l 726 242 l 838 653 l 935 653 l 743 0 l 632 0 l 514 414 l 475 582 l 435 414 l 314 0 l 210 0 l 15 653 m 674 772 l 582 772 l 474 899 l 365 772 l 269 772 l 433 958 l 515 958 l 674 772 z "},"ẅ":{"ha":947,"x_min":15,"x_max":935,"o":"m 15 653 l 117 653 l 229 242 l 261 78 l 265 78 l 304 242 l 424 653 l 528 653 l 646 242 l 685 78 l 689 78 l 726 242 l 838 653 l 935 653 l 743 0 l 632 0 l 514 414 l 475 582 l 435 414 l 314 0 l 210 0 l 15 653 m 294 865 q 313 910 294 892 q 357 929 331 929 q 401 910 383 929 q 419 865 419 892 q 401 817 419 836 q 357 799 383 799 q 313 817 331 799 q 294 865 294 836 m 528 865 q 546 910 528 892 q 590 929 564 929 q 635 910 617 929 q 653 865 653 892 q 635 817 653 836 q 590 799 617 799 q 546 817 564 799 q 528 865 528 836 z "},"ẁ":{"ha":947,"x_min":15,"x_max":935,"o":"m 15 653 l 117 653 l 229 242 l 261 78 l 265 78 l 304 242 l 424 653 l 528 653 l 646 242 l 685 78 l 689 78 l 726 242 l 838 653 l 935 653 l 743 0 l 632 0 l 514 414 l 475 582 l 435 414 l 314 0 l 210 0 l 15 653 m 339 958 l 454 958 l 558 772 l 479 772 l 339 958 z "},"ŷ":{"ha":613,"x_min":13,"x_max":603,"o":"m 13 653 l 115 653 l 269 249 l 318 97 l 321 97 l 365 249 l 506 653 l 603 653 l 351 -56 q 250 -233 311 -168 q 106 -329 189 -297 l 64 -254 q 182 -178 132 -226 q 264 -37 232 -129 l 276 0 l 13 653 m 518 772 l 426 772 l 319 899 l 210 772 l 115 772 l 278 958 l 360 958 l 518 772 z "},"ỳ":{"ha":613,"x_min":13,"x_max":603,"o":"m 13 653 l 115 653 l 269 249 l 318 97 l 321 97 l 365 249 l 506 653 l 603 653 l 351 -56 q 250 -233 311 -168 q 106 -329 189 -297 l 64 -254 q 182 -178 132 -226 q 264 -37 232 -129 l 276 0 l 13 653 m 188 958 l 303 958 l 407 772 l 328 772 l 188 958 z "},"ź":{"ha":571,"x_min":35,"x_max":538,"o":"m 531 597 l 153 75 l 538 75 l 538 0 l 35 0 l 35 61 l 408 576 l 58 576 l 58 653 l 531 653 l 531 597 m 299 772 l 219 772 l 324 958 l 439 958 l 299 772 z "},"ż":{"ha":571,"x_min":35,"x_max":538,"o":"m 531 597 l 153 75 l 538 75 l 538 0 l 35 0 l 35 61 l 408 576 l 58 576 l 58 653 l 531 653 l 531 597 m 228 871 q 247 919 228 899 q 294 939 267 939 q 341 919 322 939 q 360 871 360 899 q 341 820 360 839 q 294 801 322 801 q 247 820 267 801 q 228 871 228 839 z "},"Ŋ":{"ha":892,"x_min":111,"x_max":782,"o":"m 335 535 l 200 792 l 196 792 l 208 508 l 208 0 l 111 0 l 111 875 l 243 875 l 578 317 l 690 107 l 693 107 l 685 342 l 685 875 l 782 875 l 782 85 q 773 -54 782 7 q 740 -164 764 -115 q 675 -250 715 -212 q 572 -317 635 -287 l 526 -242 q 639 -153 603 -203 q 682 -22 675 -104 l 335 535 z "},"ŋ":{"ha":717,"x_min":94,"x_max":622,"o":"m 622 96 q 613 -48 622 17 q 578 -165 603 -112 q 510 -257 553 -217 q 401 -326 468 -297 l 357 -256 q 433 -208 401 -233 q 485 -147 465 -183 q 515 -58 506 -110 q 525 71 525 -7 l 525 432 q 492 540 525 497 q 381 582 458 582 q 282 558 332 582 q 192 489 232 533 l 192 0 l 94 0 l 94 653 l 168 653 l 183 563 q 285 635 232 608 q 408 661 339 661 q 565 606 508 661 q 622 450 622 550 l 622 96 z "},"₹":{"ha":688,"x_min":-7,"x_max":604,"o":"m 28 572 l 28 646 l 342 646 q 314 731 335 688 q 267 804 293 774 l -7 804 l -7 875 l 604 875 l 604 804 l 363 804 q 405 740 382 782 q 438 646 428 697 l 569 646 l 569 572 l 443 572 q 420 485 440 526 q 365 415 400 444 q 281 367 329 385 q 175 349 233 349 l 432 39 l 354 -14 l 160 242 q 110 303 132 278 q 71 347 88 329 q 35 382 51 368 l 63 439 q 101 429 82 432 q 149 426 121 426 q 287 468 235 426 q 344 572 339 510 l 28 572 z "},"":{"ha":708,"x_min":56,"x_max":653,"o":"m 653 333 q 631 187 653 251 q 568 78 608 122 q 473 10 528 33 q 351 -12 418 -12 q 231 9 285 -12 q 138 73 176 31 q 77 177 99 115 q 56 319 56 239 q 78 465 56 401 q 140 573 100 529 q 235 639 181 617 q 357 661 290 661 q 478 640 424 661 q 571 578 532 619 q 631 475 610 536 q 653 333 653 414 m 554 326 q 538 446 554 397 q 492 526 521 494 q 428 571 464 557 q 353 585 392 585 q 278 572 314 585 q 215 530 242 560 q 171 450 188 500 q 154 326 154 400 q 171 206 154 256 q 215 124 188 156 q 279 78 243 93 q 354 64 315 64 q 429 77 393 64 q 493 121 465 90 q 538 202 521 151 q 554 326 554 253 z "},"":{"ha":533,"x_min":58,"x_max":478,"o":"m 281 653 l 324 653 l 324 75 l 478 75 l 478 0 l 72 0 l 72 75 l 233 75 l 233 426 l 236 553 l 79 503 l 58 579 l 281 653 z "},"":{"ha":560,"x_min":43,"x_max":507,"o":"m 43 590 q 146 645 96 629 q 253 661 196 661 q 422 603 361 661 q 483 447 483 544 q 457 330 483 386 q 390 226 431 274 q 303 138 350 178 q 214 71 256 99 l 328 76 l 507 76 l 507 0 l 69 0 l 69 58 q 169 126 114 85 q 272 219 224 168 q 352 327 319 269 q 385 443 385 385 q 349 546 385 508 q 243 583 313 583 q 163 568 206 583 q 83 525 121 553 l 43 590 z "},"":{"ha":592,"x_min":51,"x_max":522,"o":"m 56 611 q 151 651 104 640 q 256 661 197 661 q 428 606 365 661 q 492 460 492 550 q 451 347 492 394 q 350 282 410 300 l 350 279 q 472 210 421 265 q 522 67 522 156 q 497 -52 522 1 q 423 -143 471 -106 q 308 -201 375 -181 q 157 -222 240 -222 q 115 -221 138 -222 q 65 -215 93 -219 l 51 -144 q 129 -149 97 -149 q 351 -90 276 -149 q 426 69 426 -31 q 372 194 426 150 q 218 239 317 239 q 185 238 204 239 q 135 235 167 238 l 135 313 l 174 313 q 347 353 296 313 q 399 460 399 394 q 355 552 399 519 q 250 585 311 585 q 172 576 211 585 q 92 543 132 567 l 56 611 z "},"":{"ha":746,"x_min":49,"x_max":681,"o":"m 439 653 l 543 653 l 543 76 l 681 76 l 681 0 l 543 0 l 543 -222 l 456 -222 l 456 0 l 49 0 l 49 58 l 439 653 m 157 76 l 456 76 l 456 369 l 461 565 l 353 385 l 157 76 z "},"":{"ha":592,"x_min":51,"x_max":519,"o":"m 126 653 l 493 656 l 485 581 l 194 581 l 158 349 q 221 353 193 353 q 346 332 290 353 q 440 276 401 311 q 499 192 478 240 q 519 89 519 144 q 494 -33 519 24 q 422 -132 469 -90 q 305 -198 374 -174 q 147 -222 236 -222 q 108 -221 128 -222 q 65 -217 89 -219 l 51 -144 q 122 -149 93 -149 q 258 -131 201 -149 q 352 -81 315 -112 q 406 -6 389 -49 q 424 86 424 36 q 356 226 424 175 q 179 276 288 276 q 126 274 150 276 q 71 268 103 272 l 126 653 z "},"":{"ha":721,"x_min":76,"x_max":651,"o":"m 593 808 q 569 812 581 811 q 540 813 558 813 q 394 782 458 813 q 283 701 329 751 q 210 588 238 651 q 174 461 183 525 l 176 460 q 264 528 208 501 q 382 554 319 554 q 496 534 446 554 q 581 477 546 514 q 633 390 615 440 q 651 282 651 340 q 629 161 651 215 q 569 69 607 107 q 480 9 531 31 q 372 -12 429 -12 q 257 10 311 -12 q 163 77 203 32 q 99 190 122 122 q 76 351 76 258 q 106 551 76 454 q 192 722 136 647 q 331 841 249 796 q 521 886 414 886 q 553 885 536 886 q 585 881 569 883 l 593 808 m 169 301 q 184 206 169 250 q 226 131 199 163 q 290 82 253 100 q 372 64 326 64 q 448 80 414 64 q 506 124 482 96 q 542 191 529 151 q 556 276 556 231 q 505 422 556 368 q 369 476 454 476 q 256 449 299 476 q 192 385 213 421 q 174 344 179 365 q 169 301 169 324 z "},"":{"ha":596,"x_min":65,"x_max":568,"o":"m 568 653 l 568 590 q 441 376 501 486 q 331 160 381 265 q 242 -40 281 56 q 181 -212 204 -136 l 94 -190 q 163 -13 121 -110 q 253 184 204 83 q 356 385 301 285 q 463 575 410 486 l 65 575 l 65 653 l 568 653 z "},"":{"ha":694,"x_min":76,"x_max":618,"o":"m 349 886 q 454 869 407 886 q 533 822 501 853 q 583 751 565 792 q 600 663 600 710 q 586 594 600 625 q 549 537 572 563 q 495 493 525 511 q 432 465 465 475 l 432 463 q 618 240 618 394 q 596 135 618 181 q 536 60 574 90 q 450 15 499 31 q 350 0 401 0 q 247 15 296 0 q 159 58 197 29 q 99 131 121 88 q 76 233 76 175 q 261 454 76 392 l 261 457 q 144 536 189 489 q 99 664 99 583 q 115 752 99 711 q 163 823 132 793 q 241 869 194 853 q 349 886 288 886 m 189 669 q 202 608 189 635 q 237 559 215 581 q 288 523 258 538 q 349 499 317 508 q 406 522 378 507 q 458 557 435 536 q 495 604 481 578 q 510 664 510 631 q 495 731 510 703 q 458 777 481 758 q 406 805 435 796 q 349 814 378 814 q 235 776 281 814 q 189 669 189 739 m 349 421 q 212 345 254 393 q 169 236 169 297 q 184 163 169 194 q 224 113 199 132 q 281 83 249 93 q 350 74 314 74 q 415 83 383 74 q 472 114 447 93 q 510 166 496 135 q 525 240 525 197 q 510 306 525 276 q 471 357 496 335 q 414 394 446 379 q 349 421 382 410 z "},"":{"ha":721,"x_min":69,"x_max":644,"o":"m 140 -149 q 301 -120 231 -149 q 422 -46 372 -92 q 503 59 472 0 q 544 179 533 118 l 542 182 q 453 117 507 139 q 339 96 399 96 q 225 117 275 96 q 140 174 175 138 q 88 260 106 210 q 69 369 69 311 q 92 490 69 436 q 154 581 115 543 q 245 640 193 619 q 357 661 297 661 q 471 639 418 661 q 562 572 524 617 q 622 460 600 528 q 644 299 644 392 q 613 97 644 192 q 519 -69 581 1 q 367 -181 458 -140 q 157 -222 275 -222 q 125 -221 142 -222 q 93 -217 108 -219 l 86 -144 q 110 -148 99 -147 q 140 -149 122 -149 m 551 340 q 540 432 551 388 q 503 510 528 476 q 442 565 479 544 q 354 586 406 586 q 278 571 313 586 q 218 527 243 556 q 179 460 193 499 q 165 375 165 421 q 216 228 165 283 q 351 174 267 174 q 463 199 419 174 q 525 253 506 224 q 544 293 538 272 q 551 340 551 314 z "},"Ḍ":{"ha":864,"x_min":111,"x_max":800,"o":"m 382 875 q 548 849 471 875 q 681 770 625 822 q 768 640 736 718 q 800 457 800 561 q 763 243 800 331 q 661 101 725 156 q 513 24 597 47 q 333 0 428 0 l 111 0 l 111 875 l 382 875 m 211 82 l 321 82 q 457 98 390 82 q 576 156 524 114 q 661 272 629 199 q 693 457 693 344 q 669 600 693 538 q 601 706 644 663 q 494 771 557 749 q 357 793 432 793 l 211 793 l 211 82 m 340 -168 q 360 -119 340 -140 q 407 -99 379 -99 q 454 -119 435 -99 q 474 -168 474 -140 q 454 -218 474 -199 q 407 -237 435 -237 q 360 -218 379 -237 q 340 -168 340 -199 z "},"ḍ":{"ha":721,"x_min":56,"x_max":626,"o":"m 529 986 l 626 986 l 626 0 l 546 0 l 533 67 l 531 67 q 450 8 494 28 q 338 -12 406 -12 q 235 8 285 -12 q 144 71 185 29 q 80 176 104 113 q 56 325 56 239 q 76 464 56 401 q 134 570 96 526 q 227 638 172 614 q 351 661 282 661 q 448 646 403 661 q 529 599 493 631 l 529 986 m 529 510 q 457 566 499 546 q 371 586 415 586 q 290 572 329 586 q 222 528 251 558 q 174 448 192 497 q 156 329 156 399 q 173 207 156 257 q 219 125 190 157 q 285 78 249 93 q 361 64 322 64 q 460 86 418 64 q 529 149 501 108 l 529 510 m 304 -167 q 323 -119 304 -139 q 369 -99 342 -99 q 417 -119 397 -99 q 436 -167 436 -139 q 417 -217 436 -199 q 369 -236 397 -236 q 323 -217 342 -236 q 304 -167 304 -199 z "},"Ḥ":{"ha":864,"x_min":111,"x_max":754,"o":"m 111 0 l 111 875 l 211 875 l 211 494 l 654 494 l 654 875 l 754 875 l 754 0 l 654 0 l 654 411 l 211 411 l 211 0 l 111 0 m 374 -168 q 393 -119 374 -140 q 440 -99 413 -99 q 488 -119 468 -99 q 507 -168 507 -140 q 488 -218 507 -199 q 440 -237 468 -237 q 393 -218 413 -237 q 374 -168 374 -199 z "},"ḥ":{"ha":738,"x_min":103,"x_max":636,"o":"m 200 0 l 103 0 l 103 986 l 200 986 l 200 567 q 301 634 246 607 q 424 661 357 661 q 518 645 478 661 q 584 601 558 629 q 623 534 610 572 q 636 450 636 496 l 636 0 l 539 0 l 539 424 q 502 545 539 508 q 399 582 465 582 q 299 557 350 582 q 200 488 249 532 l 200 0 m 306 -153 q 324 -105 306 -125 q 371 -85 343 -85 q 418 -105 399 -85 q 438 -153 438 -125 q 418 -203 438 -185 q 371 -222 399 -222 q 324 -203 343 -222 q 306 -153 306 -185 z "},"Ḷ":{"ha":619,"x_min":111,"x_max":599,"o":"m 111 875 l 211 875 l 211 83 l 599 83 l 599 0 l 111 0 l 111 875 m 288 -182 q 307 -133 288 -154 q 354 -112 326 -112 q 401 -133 382 -112 q 421 -182 421 -154 q 401 -232 421 -212 q 354 -251 382 -251 q 307 -232 326 -251 q 288 -182 288 -212 z "},"ḷ":{"ha":307,"x_min":89,"x_max":221,"o":"m 106 0 l 106 986 l 201 986 l 201 0 l 106 0 m 89 -167 q 108 -119 89 -139 q 154 -99 126 -99 q 201 -119 182 -99 q 221 -167 221 -139 q 201 -217 221 -199 q 154 -236 182 -236 q 108 -217 126 -236 q 89 -167 89 -199 z "},"Ḹ":{"ha":619,"x_min":111,"x_max":599,"o":"m 111 875 l 211 875 l 211 83 l 599 83 l 599 0 l 111 0 l 111 875 m 288 -182 q 307 -133 288 -154 q 354 -112 326 -112 q 401 -133 382 -112 q 421 -182 421 -154 q 401 -232 421 -212 q 354 -251 382 -251 q 307 -232 326 -251 q 288 -182 288 -212 m 486 1072 l 486 1000 l 146 1000 l 146 1072 l 486 1072 z "},"ḹ":{"ha":307,"x_min":-7,"x_max":333,"o":"m 89 -167 q 108 -119 89 -139 q 154 -99 126 -99 q 201 -119 182 -99 q 221 -167 221 -139 q 201 -217 221 -199 q 154 -236 182 -236 q 108 -217 126 -236 q 89 -167 89 -199 m 211 875 l 211 0 l 111 0 l 111 875 l 211 875 m 333 1072 l 333 1000 l -7 1000 l -7 1072 l 333 1072 z "},"Ḻ":{"ha":619,"x_min":111,"x_max":599,"o":"m 111 875 l 211 875 l 211 83 l 599 83 l 599 0 l 111 0 l 111 875 m 511 -139 l 511 -207 l 185 -207 l 185 -139 l 511 -139 z "},"ḻ":{"ha":307,"x_min":-4,"x_max":322,"o":"m 106 0 l 106 986 l 201 986 l 201 0 l 106 0 m 322 -139 l 322 -207 l -4 -207 l -4 -139 l 322 -139 z "},"Ṃ":{"ha":1106,"x_min":89,"x_max":1017,"o":"m 171 875 l 301 875 l 504 274 q 528 201 515 242 q 553 124 542 161 l 556 124 q 579 199 567 160 q 603 274 592 239 l 801 875 l 933 875 l 1017 0 l 917 0 l 874 482 q 862 627 867 556 q 854 772 857 699 l 851 772 q 809 630 832 706 q 763 482 786 554 l 597 0 l 507 0 l 342 483 q 294 627 317 557 q 253 772 272 697 l 250 772 q 240 631 246 706 q 228 482 235 556 l 186 0 l 89 0 l 171 875 m 486 -182 q 506 -133 486 -154 q 553 -112 525 -112 q 600 -133 581 -112 q 619 -182 619 -154 q 600 -232 619 -212 q 553 -251 581 -251 q 506 -232 525 -251 q 486 -182 486 -212 z "},"ṃ":{"ha":1131,"x_min":100,"x_max":1031,"o":"m 197 0 l 100 0 l 100 653 l 172 653 l 188 563 q 286 635 233 608 q 413 663 339 663 q 526 634 482 663 q 593 556 571 606 q 700 635 642 607 q 829 663 758 663 q 980 606 929 663 q 1031 450 1031 550 l 1031 0 l 933 0 l 933 428 q 902 542 933 503 q 792 582 871 582 q 697 558 744 582 q 613 492 650 535 q 614 471 614 482 q 614 450 614 460 l 614 0 l 517 0 l 517 428 q 486 542 517 503 q 378 582 456 582 q 283 557 329 582 q 197 488 236 532 l 197 0 m 503 -167 q 522 -119 503 -139 q 568 -99 540 -99 q 615 -119 596 -99 q 635 -167 635 -139 q 615 -217 635 -199 q 568 -236 596 -236 q 522 -217 540 -236 q 503 -167 503 -199 z "},"Ṅ":{"ha":899,"x_min":111,"x_max":789,"o":"m 111 875 l 201 875 l 592 310 q 644 232 618 271 q 693 154 669 193 l 696 154 q 692 256 693 206 q 692 358 692 307 l 692 875 l 789 875 l 789 0 l 699 0 l 317 549 q 259 638 288 590 q 206 733 231 686 l 203 733 q 207 610 206 671 q 208 488 208 550 l 208 0 l 111 0 l 111 875 m 403 1058 q 422 1107 403 1086 q 469 1128 442 1128 q 517 1107 497 1128 q 536 1058 536 1086 q 517 1008 536 1028 q 469 989 497 989 q 422 1008 442 989 q 403 1058 403 1028 z "},"ṅ":{"ha":728,"x_min":100,"x_max":628,"o":"m 197 0 l 100 0 l 100 653 l 174 653 l 189 563 q 291 635 238 608 q 414 661 344 661 q 571 606 514 661 q 628 450 628 550 l 628 0 l 531 0 l 531 432 q 497 540 531 497 q 386 582 464 582 q 288 558 338 582 q 197 489 238 533 l 197 0 m 306 871 q 324 919 306 899 q 371 939 343 939 q 418 919 399 939 q 438 871 438 899 q 418 820 438 839 q 371 801 399 801 q 324 820 343 801 q 306 871 306 839 z "},"Ṇ":{"ha":899,"x_min":111,"x_max":789,"o":"m 111 875 l 201 875 l 592 310 q 644 232 618 271 q 693 154 669 193 l 696 154 q 692 256 693 206 q 692 358 692 307 l 692 875 l 789 875 l 789 0 l 699 0 l 317 549 q 259 638 288 590 q 206 733 231 686 l 203 733 q 207 610 206 671 q 208 488 208 550 l 208 0 l 111 0 l 111 875 m 382 -168 q 401 -119 382 -140 q 449 -99 421 -99 q 496 -119 476 -99 q 515 -168 515 -140 q 496 -218 515 -199 q 449 -237 476 -237 q 401 -218 421 -237 q 382 -168 382 -199 z "},"ṇ":{"ha":728,"x_min":100,"x_max":628,"o":"m 197 0 l 100 0 l 100 653 l 174 653 l 189 563 q 291 635 238 608 q 414 661 344 661 q 571 606 514 661 q 628 450 628 550 l 628 0 l 531 0 l 531 432 q 497 540 531 497 q 386 582 464 582 q 288 558 338 582 q 197 489 238 533 l 197 0 m 304 -167 q 323 -119 304 -139 q 369 -99 342 -99 q 417 -119 397 -99 q 436 -167 436 -139 q 417 -217 436 -199 q 369 -236 397 -236 q 323 -217 342 -236 q 304 -167 304 -199 z "},"Ṉ":{"ha":899,"x_min":111,"x_max":789,"o":"m 111 875 l 201 875 l 592 310 q 644 232 618 271 q 693 154 669 193 l 696 154 q 692 256 693 206 q 692 358 692 307 l 692 875 l 789 875 l 789 0 l 699 0 l 317 549 q 259 638 288 590 q 206 733 231 686 l 203 733 q 207 610 206 671 q 208 488 208 550 l 208 0 l 111 0 l 111 875 m 618 -139 l 618 -207 l 292 -207 l 292 -139 l 618 -139 z "},"ṉ":{"ha":728,"x_min":100,"x_max":628,"o":"m 197 0 l 100 0 l 100 653 l 174 653 l 189 563 q 291 635 238 608 q 414 661 344 661 q 571 606 514 661 q 628 450 628 550 l 628 0 l 531 0 l 531 432 q 497 540 531 497 q 386 582 464 582 q 288 558 338 582 q 197 489 238 533 l 197 0 m 528 -139 l 528 -207 l 201 -207 l 201 -139 l 528 -139 z "},"Ṛ":{"ha":733,"x_min":111,"x_max":711,"o":"m 111 875 l 381 875 q 501 856 449 875 q 588 804 553 838 q 640 724 622 771 q 658 622 658 678 q 643 531 658 572 q 602 460 628 490 q 543 408 576 429 q 474 375 510 388 l 711 0 l 597 0 l 381 357 l 204 357 l 204 0 l 111 0 l 111 875 m 204 438 l 338 438 q 423 448 383 438 q 492 481 463 458 q 538 537 521 503 q 554 618 554 571 q 502 752 554 710 q 349 794 450 794 l 204 794 l 204 438 m 329 -182 q 349 -133 329 -154 q 396 -112 368 -112 q 443 -133 424 -112 q 463 -182 463 -154 q 443 -232 463 -212 q 396 -251 424 -251 q 349 -232 368 -251 q 329 -182 329 -212 z "},"ṛ":{"ha":504,"x_min":79,"x_max":490,"o":"m 97 0 l 97 653 l 167 653 l 185 522 q 264 623 208 585 q 390 661 319 661 q 450 656 425 661 q 490 643 475 650 l 472 557 q 435 571 456 565 q 386 576 414 576 q 311 562 346 576 q 250 519 276 547 q 208 449 224 492 q 193 350 193 406 l 193 0 l 97 0 m 79 -167 q 98 -119 79 -139 q 144 -99 117 -99 q 192 -119 172 -99 q 211 -167 211 -139 q 192 -217 211 -199 q 144 -236 172 -236 q 98 -217 117 -236 q 79 -167 79 -199 z "},"Ṝ":{"ha":733,"x_min":111,"x_max":711,"o":"m 111 875 l 381 875 q 501 856 449 875 q 588 804 553 838 q 640 724 622 771 q 658 622 658 678 q 643 531 658 572 q 602 460 628 490 q 543 408 576 429 q 474 375 510 388 l 711 0 l 597 0 l 381 357 l 204 357 l 204 0 l 111 0 l 111 875 m 204 438 l 338 438 q 423 448 383 438 q 492 481 463 458 q 538 537 521 503 q 554 618 554 571 q 502 752 554 710 q 349 794 450 794 l 204 794 l 204 438 m 329 -182 q 349 -133 329 -154 q 396 -112 368 -112 q 443 -133 424 -112 q 463 -182 463 -154 q 443 -232 463 -212 q 396 -251 424 -251 q 349 -232 368 -251 q 329 -182 329 -212 m 542 1072 l 542 1000 l 201 1000 l 201 1072 l 542 1072 z "},"ṝ":{"ha":504,"x_min":79,"x_max":490,"o":"m 97 0 l 97 653 l 167 653 l 185 522 q 264 623 208 585 q 390 661 319 661 q 450 656 425 661 q 490 643 475 650 l 472 557 q 435 571 456 565 q 386 576 414 576 q 311 562 346 576 q 250 519 276 547 q 208 449 224 492 q 193 350 193 406 l 193 0 l 97 0 m 79 -167 q 98 -119 79 -139 q 144 -99 117 -99 q 192 -119 172 -99 q 211 -167 211 -139 q 192 -217 211 -199 q 144 -236 172 -236 q 98 -217 117 -236 q 79 -167 79 -199 m 433 904 l 433 836 l 107 836 l 107 904 l 433 904 z "},"Ṟ":{"ha":733,"x_min":111,"x_max":711,"o":"m 111 875 l 381 875 q 501 856 449 875 q 588 804 553 838 q 640 724 622 771 q 658 622 658 678 q 643 531 658 572 q 602 460 628 490 q 543 408 576 429 q 474 375 510 388 l 711 0 l 597 0 l 381 357 l 204 357 l 204 0 l 111 0 l 111 875 m 204 438 l 338 438 q 423 448 383 438 q 492 481 463 458 q 538 537 521 503 q 554 618 554 571 q 502 752 554 710 q 349 794 450 794 l 204 794 l 204 438 m 567 -139 l 567 -207 l 240 -207 l 240 -139 l 567 -139 z "},"ṟ":{"ha":504,"x_min":-17,"x_max":490,"o":"m 97 0 l 97 653 l 167 653 l 185 522 q 264 623 208 585 q 390 661 319 661 q 450 656 425 661 q 490 643 475 650 l 472 557 q 435 571 456 565 q 386 576 414 576 q 311 562 346 576 q 250 519 276 547 q 208 449 224 492 q 193 350 193 406 l 193 0 l 97 0 m 310 -139 l 310 -207 l -17 -207 l -17 -139 l 310 -139 z "},"Ṣ":{"ha":686,"x_min":63,"x_max":624,"o":"m 349 886 q 469 875 411 886 q 583 838 526 864 l 558 756 q 451 794 499 783 q 353 806 403 806 q 217 767 268 806 q 165 660 165 729 q 204 563 165 599 q 325 501 243 528 l 418 471 q 574 373 525 435 q 624 232 624 311 q 602 130 624 175 q 542 53 581 85 q 449 5 503 22 q 329 -12 394 -12 q 197 0 263 -12 q 64 43 131 13 l 90 125 q 205 83 149 96 q 324 69 261 69 q 465 107 408 69 q 521 222 521 144 q 513 274 521 250 q 486 319 506 299 q 433 359 467 340 q 349 394 400 378 l 258 424 q 117 505 171 451 q 63 647 63 558 q 136 822 63 757 q 349 886 210 886 m 264 -182 q 283 -133 264 -154 q 331 -112 303 -112 q 378 -133 358 -112 q 397 -182 397 -154 q 378 -232 397 -212 q 331 -251 358 -251 q 283 -232 303 -251 q 264 -182 264 -212 z "},"ṣ":{"ha":557,"x_min":54,"x_max":503,"o":"m 450 550 q 373 578 410 569 q 296 586 336 586 q 190 558 225 586 q 156 486 156 531 q 183 423 156 446 q 285 378 210 400 l 326 365 q 458 294 413 339 q 503 179 503 250 q 440 42 503 96 q 261 -12 378 -12 q 146 -2 199 -12 q 54 28 93 8 l 79 104 q 160 74 117 85 q 254 64 203 64 q 365 91 325 64 q 404 171 404 118 q 373 241 404 215 q 272 289 342 267 l 228 303 q 100 373 142 331 q 58 481 58 415 q 75 554 58 521 q 122 611 92 588 q 194 648 153 635 q 285 661 235 661 q 381 653 331 661 q 474 625 431 644 l 450 550 m 203 -167 q 222 -119 203 -139 q 268 -99 240 -99 q 315 -119 296 -99 q 335 -167 335 -139 q 315 -217 335 -199 q 268 -236 296 -236 q 222 -217 240 -236 q 203 -167 203 -199 z "},"Ṭ":{"ha":696,"x_min":14,"x_max":683,"o":"m 683 875 l 683 792 l 396 792 l 396 0 l 296 0 l 296 792 l 14 792 l 14 875 l 683 875 m 281 -182 q 300 -133 281 -154 q 347 -112 319 -112 q 394 -133 375 -112 q 414 -182 414 -154 q 394 -232 414 -212 q 347 -251 375 -251 q 300 -232 319 -251 q 281 -182 281 -212 z "},"ṭ":{"ha":501,"x_min":28,"x_max":472,"o":"m 438 579 l 232 579 l 232 175 q 259 99 232 118 q 331 79 286 79 q 399 86 365 79 q 457 101 432 93 l 472 28 q 403 8 444 17 q 313 0 361 0 q 135 163 135 0 l 135 579 l 28 579 l 28 653 l 135 653 l 135 861 l 232 861 l 232 653 l 438 653 l 438 579 m 233 -167 q 252 -119 233 -139 q 299 -99 271 -99 q 346 -119 326 -99 q 365 -167 365 -139 q 346 -217 365 -199 q 299 -236 326 -236 q 252 -217 271 -236 q 233 -167 233 -199 z "},"Ṯ":{"ha":696,"x_min":14,"x_max":683,"o":"m 683 875 l 683 792 l 396 792 l 396 0 l 296 0 l 296 792 l 14 792 l 14 875 l 683 875 m 514 -139 l 514 -207 l 188 -207 l 188 -139 l 514 -139 z "},"ṯ":{"ha":501,"x_min":28,"x_max":479,"o":"m 438 579 l 232 579 l 232 175 q 259 99 232 118 q 331 79 286 79 q 399 86 365 79 q 457 101 432 93 l 472 28 q 403 8 444 17 q 313 0 361 0 q 135 163 135 0 l 135 579 l 28 579 l 28 653 l 135 653 l 135 861 l 232 861 l 232 653 l 438 653 l 438 579 m 479 -139 l 479 -207 l 153 -207 l 153 -139 l 479 -139 z "},"Ẏ":{"ha":708,"x_min":17,"x_max":708,"o":"m 129 875 l 363 461 l 597 875 l 708 875 l 410 367 l 410 0 l 310 0 l 310 367 l 17 875 l 129 875 m 294 1058 q 314 1107 294 1086 q 361 1128 333 1128 q 408 1107 389 1128 q 428 1058 428 1086 q 408 1008 428 1028 q 361 989 389 989 q 314 1008 333 989 q 294 1058 294 1028 z "},"ẏ":{"ha":617,"x_min":14,"x_max":604,"o":"m 14 653 l 117 653 l 271 249 l 319 97 l 322 97 l 368 249 l 507 653 l 604 653 l 353 -56 q 252 -233 313 -168 q 107 -329 192 -297 l 67 -254 q 185 -178 135 -226 q 265 -37 235 -129 l 278 0 l 14 653 m 250 857 q 269 905 250 885 q 315 925 288 925 q 363 905 343 925 q 382 857 382 885 q 363 806 382 825 q 315 788 343 788 q 269 806 288 788 q 250 857 250 825 z "},"·":{"ha":253,"x_min":58,"x_max":194,"o":"m 58 458 q 78 512 58 490 q 128 533 97 533 q 175 512 156 533 q 194 458 194 490 q 175 406 194 426 q 128 385 156 385 q 78 406 97 385 q 58 458 58 426 z "},"⁰":{"ha":549,"x_min":32,"x_max":515,"o":"m 281 1192 q 385 1169 340 1192 q 458 1108 429 1147 q 501 1015 488 1069 q 515 899 515 961 q 451 689 515 767 q 274 611 386 611 q 179 631 224 611 q 102 688 135 650 q 51 778 69 725 q 32 899 32 832 q 100 1115 32 1038 q 281 1192 168 1192 m 117 900 q 158 735 117 793 q 276 678 199 678 q 431 899 431 678 q 394 1063 431 1000 q 276 1125 358 1125 q 159 1068 201 1125 q 117 900 117 1011 z "},"¹":{"ha":351,"x_min":31,"x_max":257,"o":"m 203 1182 l 257 1182 l 257 618 l 178 618 l 178 1093 l 49 1035 l 31 1103 l 203 1182 z "},"²":{"ha":436,"x_min":18,"x_max":394,"o":"m 192 1124 q 126 1114 158 1124 q 54 1081 93 1104 l 18 1139 q 103 1179 60 1167 q 194 1192 146 1192 q 342 1142 290 1192 q 394 1019 394 1093 q 350 886 394 950 q 226 760 306 822 l 131 685 l 394 685 l 394 618 l 35 618 l 22 669 l 135 767 q 211 835 178 804 q 267 896 244 867 q 300 954 289 925 q 311 1017 311 983 q 278 1093 311 1063 q 192 1124 246 1124 z "},"³":{"ha":415,"x_min":14,"x_max":385,"o":"m 29 1160 q 109 1185 72 1179 q 182 1192 146 1192 q 253 1181 219 1192 q 311 1149 286 1169 q 351 1101 336 1129 q 365 1039 365 1074 q 256 908 365 940 l 256 906 q 349 860 314 894 q 385 774 385 825 q 367 701 385 732 q 319 651 349 671 q 250 621 289 631 q 169 611 211 611 q 88 618 133 611 q 14 636 43 625 l 32 699 q 102 683 72 686 q 168 679 132 679 q 217 685 193 679 q 258 703 240 690 q 288 734 276 715 q 299 779 299 753 q 267 842 299 815 q 160 868 235 868 l 78 868 l 78 933 l 139 933 q 246 960 211 933 q 281 1032 281 988 q 246 1103 281 1082 q 168 1125 211 1125 q 53 1099 110 1125 l 29 1160 z "},"⁴":{"ha":524,"x_min":24,"x_max":496,"o":"m 303 1182 l 388 1182 l 388 829 l 496 829 l 496 767 l 388 767 l 388 618 l 308 618 l 308 767 l 24 767 l 24 817 l 303 1182 m 257 1013 l 117 829 l 308 829 l 308 1006 l 314 1097 l 311 1097 l 257 1013 z "},"⁵":{"ha":458,"x_min":31,"x_max":417,"o":"m 396 1185 l 396 1118 l 147 1118 l 132 974 q 210 981 167 981 q 363 933 310 981 q 417 810 417 885 q 399 727 417 764 q 350 665 382 690 q 274 625 318 639 q 179 611 231 611 q 98 617 135 611 q 31 636 61 622 l 49 700 q 106 683 76 689 q 181 678 136 678 q 293 715 254 678 q 332 806 332 753 q 290 890 332 863 q 178 918 249 918 q 118 913 146 918 q 60 900 90 907 l 86 1182 l 396 1185 z "},"⁶":{"ha":488,"x_min":32,"x_max":456,"o":"m 115 936 q 181 988 140 971 q 261 1004 221 1004 q 403 952 350 1004 q 456 817 456 900 q 402 670 456 729 q 249 611 349 611 q 167 626 207 611 q 98 675 128 642 q 50 760 68 708 q 32 883 32 811 q 51 1022 32 964 q 104 1118 69 1081 q 188 1174 139 1156 q 297 1192 238 1192 q 359 1186 331 1192 q 418 1169 388 1181 l 397 1101 q 297 1124 353 1124 q 163 1071 210 1124 q 113 938 115 1018 l 115 936 m 115 831 q 151 719 115 761 q 253 678 188 678 q 342 715 314 678 q 371 813 371 753 q 337 910 371 879 q 246 940 303 940 q 175 923 206 940 q 128 881 144 906 q 119 860 122 871 q 115 831 115 849 z "},"⁷":{"ha":431,"x_min":25,"x_max":414,"o":"m 414 1182 l 414 1128 l 151 603 l 81 633 l 332 1114 l 25 1114 l 25 1182 l 414 1182 z "},"⁸":{"ha":475,"x_min":33,"x_max":442,"o":"m 150 910 q 101 938 119 922 q 72 969 82 953 q 57 1003 61 986 q 53 1039 53 1021 q 65 1095 53 1068 q 99 1144 76 1122 q 158 1178 122 1165 q 239 1192 193 1192 q 324 1178 289 1192 q 383 1143 360 1165 q 416 1094 406 1121 q 426 1039 426 1067 q 406 969 426 1001 q 322 914 386 938 l 322 911 q 414 853 386 892 q 442 774 442 815 q 389 656 442 701 q 236 611 336 611 q 153 623 190 611 q 90 656 117 635 q 48 706 63 678 q 33 768 33 735 q 58 852 33 817 q 150 907 82 888 l 150 910 m 132 1039 q 240 942 132 964 q 321 980 296 954 q 346 1039 346 1006 q 318 1102 346 1078 q 239 1126 290 1126 q 160 1102 189 1126 q 132 1039 132 1078 m 238 878 q 146 839 175 867 q 117 772 117 811 q 147 707 117 736 q 239 678 176 678 q 328 706 297 678 q 358 776 358 733 q 327 842 358 813 q 238 878 296 871 z "},"⁹":{"ha":486,"x_min":32,"x_max":453,"o":"m 371 861 q 310 815 347 832 q 228 799 272 799 q 88 849 144 799 q 32 992 32 900 q 46 1072 32 1035 q 87 1135 60 1108 q 153 1176 114 1161 q 242 1192 192 1192 q 323 1176 285 1192 q 390 1129 361 1161 q 436 1047 419 1097 q 453 924 453 996 q 381 687 453 763 q 186 611 310 611 q 127 615 158 611 q 72 629 96 619 l 88 693 q 140 680 113 683 q 190 676 167 676 q 266 691 233 676 q 322 731 299 706 q 358 789 344 756 q 375 860 371 822 l 371 861 m 369 978 q 362 1030 369 1004 q 338 1076 354 1056 q 297 1110 322 1097 q 238 1124 272 1124 q 150 1088 183 1124 q 117 993 117 1053 q 152 894 117 926 q 244 863 188 863 q 315 878 286 863 q 358 921 343 894 q 367 947 365 932 q 369 978 369 963 z "},"⁽":{"ha":282,"x_min":49,"x_max":261,"o":"m 260 1260 q 203 1176 226 1217 q 163 1094 179 1136 q 140 1004 147 1051 q 132 900 132 957 q 163 708 132 799 q 261 533 193 618 l 219 496 q 94 678 139 579 q 49 899 49 776 q 94 1119 49 1021 q 221 1299 140 1217 l 260 1260 z "},"⁾":{"ha":282,"x_min":21,"x_max":233,"o":"m 21 535 q 78 618 54 578 q 119 701 103 658 q 142 790 135 743 q 150 894 150 838 q 119 1085 150 996 q 21 1260 89 1175 l 63 1299 q 188 1117 143 1215 q 233 896 233 1018 q 188 676 233 774 q 61 496 142 578 l 21 535 z "},"₀":{"ha":549,"x_min":32,"x_max":515,"o":"m 281 351 q 385 329 340 351 q 458 268 429 307 q 501 175 488 229 q 515 58 515 121 q 451 -151 515 -74 q 274 -229 386 -229 q 179 -210 224 -229 q 102 -153 135 -190 q 51 -62 69 -115 q 32 58 32 -8 q 100 274 32 197 q 281 351 168 351 m 117 60 q 158 -105 117 -47 q 276 -162 199 -162 q 431 58 431 -162 q 394 222 431 160 q 276 285 358 285 q 159 228 201 285 q 117 60 117 171 z "},"₁":{"ha":351,"x_min":31,"x_max":257,"o":"m 203 342 l 257 342 l 257 -222 l 178 -222 l 178 253 l 49 194 l 31 263 l 203 342 z "},"₂":{"ha":436,"x_min":18,"x_max":394,"o":"m 192 283 q 126 274 158 283 q 54 240 93 264 l 18 299 q 103 339 60 326 q 194 351 146 351 q 342 302 290 351 q 394 179 394 253 q 350 46 394 110 q 226 -81 306 -18 l 131 -156 l 394 -156 l 394 -222 l 35 -222 l 22 -171 l 135 -74 q 211 -5 178 -36 q 267 56 244 26 q 300 114 289 85 q 311 176 311 143 q 278 253 311 222 q 192 283 246 283 z "},"₃":{"ha":415,"x_min":14,"x_max":385,"o":"m 29 319 q 109 345 72 339 q 182 351 146 351 q 253 340 219 351 q 311 309 286 329 q 351 261 336 289 q 365 199 365 233 q 256 68 365 100 l 256 65 q 349 19 314 54 q 385 -67 385 -15 q 367 -139 385 -108 q 319 -190 349 -169 q 250 -219 289 -210 q 169 -229 211 -229 q 88 -222 133 -229 q 14 -204 43 -215 l 32 -142 q 102 -158 72 -154 q 168 -161 132 -161 q 217 -156 193 -161 q 258 -137 240 -150 q 288 -106 276 -125 q 299 -61 299 -87 q 267 1 299 -25 q 160 28 235 28 l 78 28 l 78 93 l 139 93 q 246 120 211 93 q 281 192 281 147 q 246 263 281 242 q 168 285 211 285 q 53 258 110 285 l 29 319 z "},"₄":{"ha":524,"x_min":24,"x_max":496,"o":"m 303 342 l 388 342 l 388 -11 l 496 -11 l 496 -74 l 388 -74 l 388 -222 l 308 -222 l 308 -74 l 24 -74 l 24 -24 l 303 342 m 257 172 l 117 -11 l 308 -11 l 308 165 l 314 257 l 311 257 l 257 172 z "},"₅":{"ha":458,"x_min":31,"x_max":417,"o":"m 396 344 l 396 278 l 147 278 l 132 133 q 210 140 167 140 q 363 92 310 140 q 417 -31 417 44 q 399 -113 417 -76 q 350 -176 382 -150 q 274 -215 318 -201 q 179 -229 231 -229 q 98 -224 135 -229 q 31 -204 61 -218 l 49 -140 q 106 -157 76 -151 q 181 -162 136 -162 q 293 -125 254 -162 q 332 -35 332 -87 q 290 50 332 22 q 178 78 249 78 q 118 72 146 78 q 60 60 90 67 l 86 342 l 396 344 z "},"₆":{"ha":488,"x_min":32,"x_max":456,"o":"m 115 96 q 181 147 140 131 q 261 164 221 164 q 403 112 350 164 q 456 -24 456 60 q 402 -170 456 -111 q 249 -229 349 -229 q 167 -214 207 -229 q 98 -165 128 -199 q 50 -81 68 -132 q 32 43 32 -29 q 51 182 32 124 q 104 278 69 240 q 188 333 139 315 q 297 351 238 351 q 359 346 331 351 q 418 329 388 340 l 397 261 q 297 283 353 283 q 163 231 210 283 q 113 97 115 178 l 115 96 m 115 -10 q 151 -121 115 -79 q 253 -162 188 -162 q 342 -125 314 -162 q 371 -28 371 -87 q 337 69 371 39 q 246 100 303 100 q 175 83 206 100 q 128 40 144 65 q 119 19 122 31 q 115 -10 115 8 z "},"₇":{"ha":431,"x_min":25,"x_max":414,"o":"m 414 342 l 414 288 l 151 -237 l 81 -207 l 332 274 l 25 274 l 25 342 l 414 342 z "}}}
